<svg viewBox="0 0 292 80" xmlns="http://www.w3.org/2000/svg" fill-rule="evenodd" clip-rule="evenodd" stroke-linejoin="round" stroke-miterlimit="2"><g fill-rule="nonzero"><path d="M61.796 16.494a59.425 59.425 0 00-15.05-4.729 43.878 43.878 0 00-1.928 4.002c-5.612-.844-11.172-.844-16.68 0a42.772 42.772 0 00-1.951-4.002 59.212 59.212 0 00-15.061 4.741C1.601 30.899-.981 44.934.31 58.771c6.317 4.717 12.439 7.583 18.458 9.458a45.934 45.934 0 003.954-6.51 38.905 38.905 0 01-6.226-3.03 30.417 30.417 0 001.526-1.208c12.004 5.615 25.046 5.615 36.906 0 .499.417 1.01.821 1.526 1.208a38.781 38.781 0 01-6.237 3.035 45.757 45.757 0 003.953 6.511c6.025-1.875 12.153-4.741 18.47-9.464 1.515-16.04-2.587-29.947-10.844-42.277zM24.357 50.262c-3.603 0-6.558-3.364-6.558-7.461 0-4.096 2.891-7.466 6.558-7.466 3.666 0 6.621 3.364 6.558 7.466.006 4.097-2.892 7.461-6.558 7.461zm24.236 0c-3.603 0-6.558-3.364-6.558-7.461 0-4.096 2.892-7.466 6.558-7.466 3.667 0 6.622 3.364 6.559 7.466 0 4.097-2.892 7.461-6.559 7.461zM98.029 26.171h15.664c3.776 0 6.966.603 9.583 1.805 2.61 1.201 4.567 2.877 5.864 5.022 1.296 2.145 1.95 4.6 1.95 7.367 0 2.707-.677 5.163-2.031 7.36-1.354 2.204-3.414 3.944-6.185 5.228-2.771 1.283-6.203 1.928-10.305 1.928h-14.54v-28.71zm14.379 21.414c2.542 0 4.499-.651 5.864-1.946 1.366-1.301 2.049-3.071 2.049-5.315 0-2.081-.609-3.739-1.825-4.982-1.216-1.242-3.058-1.869-5.52-1.869h-4.9v14.112h4.332zM154.541 54.846c-2.169-.575-4.126-1.407-5.864-2.503v-6.81c1.314 1.038 3.075 1.893 5.284 2.567 2.209.668 4.344 1.002 6.409 1.002.964 0 1.693-.128 2.186-.386.494-.258.741-.569.741-.926 0-.41-.132-.75-.402-1.026-.27-.275-.792-.504-1.566-.697l-4.82-1.108c-2.76-.656-4.717-1.565-5.881-2.731-1.165-1.16-1.745-2.684-1.745-4.571 0-1.588.505-2.965 1.527-4.143 1.015-1.178 2.461-2.087 4.337-2.725 1.877-.645 4.068-.967 6.587-.967 2.249 0 4.309.246 6.186.738 1.876.492 3.425 1.12 4.659 1.887v6.441c-1.263-.768-2.709-1.371-4.361-1.829a19.146 19.146 0 00-5.084-.674c-2.519 0-3.775.44-3.775 1.313 0 .41.195.715.585.92.39.205 1.107.416 2.146.639l4.016.738c2.623.463 4.579 1.278 5.864 2.438 1.286 1.161 1.928 2.878 1.928 5.152 0 2.49-1.061 4.465-3.19 5.93-2.129 1.465-5.147 2.198-9.06 2.198a26.382 26.382 0 01-6.707-.867zM182.978 53.984c-2.3-1.149-4.039-2.708-5.198-4.677-1.159-1.969-1.744-4.184-1.744-6.645 0-2.462.602-4.665 1.807-6.605 1.205-1.94 2.972-3.464 5.302-4.571 2.329-1.108 5.112-1.659 8.354-1.659 4.016 0 7.35.862 10.001 2.585v7.507c-.935-.656-2.026-1.19-3.271-1.6-1.245-.41-2.576-.615-3.999-.615-2.49 0-4.435.463-5.841 1.395-1.406.931-2.111 2.144-2.111 3.651 0 1.476.682 2.684 2.048 3.633 1.366.944 3.345 1.418 5.944 1.418 1.337 0 2.657-.199 3.959-.592 1.297-.398 2.416-.885 3.351-1.459v7.261c-2.943 1.805-6.357 2.708-10.242 2.708-3.27-.012-6.059-.586-8.36-1.735zM211.518 53.984c-2.318-1.148-4.085-2.719-5.302-4.717-1.216-1.999-1.83-4.226-1.83-6.687 0-2.461.608-4.659 1.83-6.587s2.978-3.44 5.285-4.536c2.3-1.096 5.049-1.641 8.233-1.641 3.185 0 5.933.545 8.234 1.641s4.057 2.596 5.262 4.512c1.205 1.917 1.807 4.114 1.807 6.605 0 2.461-.602 4.688-1.807 6.687-1.205 1.998-2.967 3.569-5.285 4.717-2.318 1.149-5.055 1.723-8.216 1.723-3.162 0-5.899-.568-8.211-1.717zm12.204-7.278c.976-.997 1.469-2.315 1.469-3.956s-.488-2.948-1.469-3.915c-.975-.973-2.307-1.459-3.993-1.459-1.716 0-3.059.486-4.04 1.459-.975.973-1.463 2.274-1.463 3.915s.488 2.959 1.463 3.956c.976.996 2.324 1.5 4.04 1.5 1.686-.006 3.018-.504 3.993-1.5zM259.17 31.34v8.86c-1.021-.685-2.341-1.025-3.976-1.025-2.141 0-3.793.662-4.941 1.986-1.153 1.325-1.727 3.388-1.727 6.177v7.549h-9.84V30.888h9.64v7.631c.533-2.79 1.4-4.847 2.593-6.177 1.188-1.325 2.725-1.987 4.596-1.987 1.417 0 2.634.328 3.655.985zM291.864 25.35v29.537h-9.841v-5.374c-.832 2.022-2.094 3.563-3.792 4.618-1.699 1.049-3.799 1.576-6.289 1.576-2.226 0-4.165-.551-5.824-1.658-1.658-1.108-2.937-2.626-3.838-4.554-.895-1.928-1.349-4.108-1.349-6.546-.028-2.514.448-4.77 1.429-6.769.976-1.998 2.358-3.557 4.137-4.676 1.779-1.12 3.81-1.682 6.088-1.682 4.688 0 7.832 2.08 9.438 6.235V25.35h9.841zm-11.309 21.192c1.004-.997 1.503-2.292 1.503-3.874 0-1.53-.488-2.778-1.463-3.733-.976-.955-2.313-1.436-3.994-1.436-1.658 0-2.983.486-3.976 1.459-.993.973-1.486 2.233-1.486 3.792 0 1.559.493 2.83 1.486 3.815.993.984 2.301 1.477 3.936 1.477 1.658-.006 2.989-.504 3.994-1.5zM139.382 33.443c2.709 0 4.906-2.015 4.906-4.501 0-2.485-2.197-4.5-4.906-4.5-2.71 0-4.906 2.015-4.906 4.5 0 2.486 2.196 4.501 4.906 4.501zM134.472 36.544c3.006 1.324 6.736 1.383 9.811 0v18.471h-9.811V36.544z"/></g></svg>
