<svg viewBox="0 0 6896 2500" xmlns="http://www.w3.org/2000/svg" fill-rule="evenodd" clip-rule="evenodd" stroke-linejoin="round" stroke-miterlimit="2"><g fill-rule="nonzero"><path d="M2500.002 1250.001C2500.002 559.642 1940.36 0 1250.001 0 559.642 0 0 559.642 0 1250.001c0 690.359 559.642 1250.001 1250.001 1250.001 690.359 0 1250.001-559.642 1250.001-1250.001z" fill="#25aae0"/><path d="M2285.114 1058.888c-26.329-139.058-101.183-225.683-177.904-279.25-79.338-55.392-174.367-83.854-271.134-83.854H462.805c-47.776 0-66.076 46.642-66.255 70.004-.025 3.046.084 15.238.084 15.238s-2.25 607.554 2.016 932.055c12.959 191.575 204.905 191.512 204.905 191.512s626.683-1.837 927.23-3.704c14.095-.092 28.17-1.608 41.85-5.03 171.116-42.812 188.82-201.783 186.991-290.4 343.95 19.109 586.634-223.6 525.488-546.57zm-386.38 315.313c-73.353 9.167-132.95 2.283-132.95 2.283V927.338h90.26c59.653 0 117.195 24.838 156.12 70.042 27.4 31.825 49.321 76.617 49.321 138.488 0 151.246-77.933 210.833-162.75 238.333z" fill="#fff"/><path d="M1069.226 1652.639c14.937 7.52 24.479-1.825 24.479-1.825s218.571-199.492 317.038-314.38c87.583-102.779 93.292-275.975-57.113-340.692-150.404-64.716-274.15 76.134-274.15 76.134-107.308-118.025-269.721-112.05-344.842-32.175-75.117 79.875-48.883 216.97 7.154 293.267 52.604 71.625 283.825 277.712 318.871 312.562 0 0 2.555 2.671 8.563 7.109z" fill="#f15e5e"/><path d="M3940.328 1755.418c4.692 13.546 7.063 26.204 7.063 37.954 0 31.78-12.084 58.259-36.188 79.446-24.137 21.184-52.083 31.775-83.858 31.775-15.309 0-30.013-3.533-44.134-10.591-14.125-7.067-25.9-17.05-35.308-30.017l-383.084-504.888-167.708 160.646v277.163c0 31.775-10.317 57.679-30.892 77.67-20.608 20.03-47.392 30.017-80.329 30.017-31.775 0-57.98-10.291-78.554-30.892-20.609-20.583-30.896-46.179-30.896-76.795V776.52c0-30.587 10.592-56.183 31.78-76.787 21.182-20.58 48.24-30.896 81.203-30.896 31.775 0 57.65 10.013 77.68 30.013 19.991 20.02 30.008 45.895 30.008 77.67v480.18l564.917-556.088c27.058-27.062 55.883-40.604 86.5-40.604 27.063 0 50.008 11.2 68.85 33.542 18.813 22.37 28.246 45.904 28.246 70.616 0 24.713-10.592 47.667-31.78 68.85L3529 1200.213l393.675 520.78c7.062 9.433 12.937 20.913 17.654 34.425zM4774.462 1278.768c-24.125-45.292-56.5-80.321-97.083-105.038-40.625-24.712-85.625-37.07-135.042-37.07-49.458 0-94.458 12.358-135.083 37.07-40.584 24.717-72.959 59.746-97.084 105.038-24.125 45.32-36.208 96.825-36.208 154.475 0 57.675 12.083 108.867 36.208 153.583 24.125 44.742 56.5 79.442 97.084 104.159 40.625 24.712 85.625 37.066 135.083 37.066 49.417 0 94.417-12.354 135.042-37.066 40.583-24.717 72.958-59.417 97.083-104.159 24.125-44.716 36.209-95.908 36.209-153.583 0-57.65-12.084-109.154-36.209-154.475zm184.459 407.8c-42.334 74.754-100.334 132.708-173.876 173.892-73.541 41.204-154.458 61.787-242.708 61.787-89.458 0-170.667-20.583-243.625-61.787-73-41.184-130.667-99.138-173.021-173.892-42.371-74.72-63.554-159.158-63.554-253.325 0-94.146 21.183-178.584 63.554-253.334 42.354-74.725 100.02-132.979 173.02-174.77 72.96-41.763 154.168-62.672 243.626-62.672 88.25 0 169.167 20.909 242.708 62.671 73.542 41.792 131.542 100.046 173.876 174.771 42.375 74.75 63.583 159.188 63.583 253.334 0 94.167-21.208 178.604-63.583 253.325zM5203.42 1438.534c-20.583-20-30.874-45.291-30.874-75.912 0-29.4 10.291-54.117 30.875-74.146 20.583-19.992 46.208-30.008 76.792-30.008h307.208c30.583 0 56.167 10.316 76.792 30.891 20.583 20.609 30.875 46.205 30.875 76.796 0 29.43-10.292 53.846-30.875 73.263-20.625 19.42-46.209 29.129-76.792 29.129h-307.208c-30.584 0-56.209-9.983-76.792-30.013zM6803.714 1873.701c-20 20.6-45.292 30.892-75.875 30.892-30.625 0-55.917-10.291-75.917-30.892-20.042-20.583-30.042-46.179-30.042-76.795v-729.097c0-30.587 10-56.187 30.042-76.792 20-20.579 45.292-30.895 75.917-30.895 30.583 0 55.875 10.316 75.875 30.895 20 20.605 30.041 46.205 30.041 76.792v729.097c0 30.616-10.041 56.212-30.041 76.795zM6641.339 825.955c-16.5-12.938-24.75-35.888-24.75-68.85v-33.542c0-32.933 8.833-55.883 26.5-68.85 17.666-12.937 45.916-19.417 84.75-19.417 41.166 0 70 6.48 86.5 19.417 16.458 12.967 24.708 35.917 24.708 68.85v33.542c0 34.146-8.542 57.375-25.583 69.729-17.084 12.358-46.209 18.542-87.417 18.542-40 0-68.25-6.454-84.708-19.421zm-374.292-6.18c-16.459 22.95-24.709 47.972-24.709 75.03v82.97h160.667c28.25 0 51.75 9.13 70.625 27.363 18.792 18.259 28.209 41.484 28.209 69.734 0 28.246-9.417 51.496-28.209 69.729-18.875 18.262-42.375 27.362-70.625 27.362h-160.667v624.943c0 30.616-10 56.212-30 76.795-20.041 20.6-45.333 30.892-75.916 30.892-30.625 0-55.917-10.291-75.917-30.892-20-20.583-30-46.179-30-76.795v-624.943h-95.334c-28.25 0-51.791-9.1-70.625-27.362-18.833-18.233-28.25-41.483-28.25-69.73 0-28.25 9.417-51.474 28.25-69.733 18.834-18.233 42.375-27.362 70.625-27.362h95.334v-81.204c0-88.271 30.292-160.042 90.917-215.38 60.583-55.304 148-82.97 262.166-82.97 43.5 0 81.459 8.824 113.834 26.483 32.375 17.65 48.583 44.737 48.583 81.204 0 28.246-8.25 51.196-24.708 68.85-16.5 17.654-36.5 26.48-60.042 26.48-5.917 0-12.083-.58-18.542-1.763a1981.519 1981.519 0 00-20.291-3.534c-28.25-7.062-51.792-10.591-70.625-10.591-40 0-68.25 11.475-84.75 34.425z" /></g></svg>
