<svg viewBox="0 0 2500 2500" xmlns="http://www.w3.org/2000/svg" fill-rule="evenodd" clip-rule="evenodd" stroke-linejoin="round" stroke-miterlimit="2"><g fill-rule="nonzero"><path d="M2500.002 1250.001C2500.002 559.642 1940.36 0 1250.001 0 559.642 0 0 559.642 0 1250.001c0 690.359 559.642 1250.001 1250.001 1250.001 690.359 0 1250.001-559.642 1250.001-1250.001z" fill="#25aae0"/><path d="M2285.114 1058.888c-26.329-139.058-101.183-225.683-177.904-279.246-79.338-55.396-174.367-83.858-271.134-83.858H462.805c-47.776 0-66.076 46.642-66.255 70.004-.025 3.046.084 15.238.084 15.238s-2.25 607.554 2.016 932.055c12.959 191.575 204.905 191.512 204.905 191.512s626.683-1.837 927.23-3.704c14.095-.092 28.17-1.608 41.85-5.03 171.116-42.812 188.82-201.783 186.991-290.4 343.95 19.109 586.634-223.6 525.488-546.57zm-386.38 315.313c-73.353 9.167-132.95 2.283-132.95 2.283V927.338h90.26c59.653 0 117.195 24.838 156.12 70.042 27.4 31.825 49.321 76.617 49.321 138.488 0 151.246-77.933 210.833-162.75 238.333z" fill="#fff"/><path d="M1069.226 1652.639c14.937 7.52 24.479-1.825 24.479-1.825s218.571-199.492 317.038-314.38c87.583-102.775 93.292-275.975-57.113-340.692-150.404-64.712-274.15 76.134-274.15 76.134-107.308-118.025-269.721-112.05-344.842-32.175-75.117 79.875-48.883 216.97 7.154 293.267 52.604 71.625 283.825 277.708 318.871 312.562 0 0 2.555 2.667 8.563 7.109z" fill="#f15e5e"/></g></svg>