<svg viewBox="0 0 738 202" fill="none" xmlns="http://www.w3.org/2000/svg"><g clip-path="url(#a)"><mask id="b" style="mask-type:luminance" maskUnits="userSpaceOnUse" x="-1" y="0" width="739" height="201"><path d="M737.178.3H-.006v200.565h737.184V.3Z" fill="#fff"/></mask><g mask="url(#b)"><path d="M345.948 199.597c-12.597 0-25.847-6.716-37.347-18.134-.437.761-.9 1.497-1.376 2.208-4.846 7.262-14.182 15.926-31.187 15.926-11.639 0-27.325-4.516-35.983-26.03-5.804-14.418-8.506-36.516-8.506-69.549 0-28.98 3.343-52.087 9.933-68.673 3.812-9.603 8.817-17.202 14.868-22.587 7.104-6.317 15.762-9.66 25.028-9.66 12.229 0 22.72 5.518 29.539 15.54a41.949 41.949 0 0 1 2.847 4.89c13.562-13.586 27.357-20.436 41.235-20.436 18.28 0 30.085 12.628 30.085 32.177 0 11.036-5.114 23.848-15.205 38.07-5.816 8.194-13.053 16.585-21.286 24.685 15.127 22.847 29.056 51.237 29.056 69.155 0 8.665-3.247 16.784-9.153 22.86-5.981 6.159-13.992 9.552-22.561 9.552l.013.006Z" fill="#fff"/><path d="M369.867 35.27c0-9.293-3.717-16.955-14.861-16.955-12.077 0-29.957 8.595-51.789 43.892.697-4.18.926-8.131.926-11.842 0-19.047-7.897-32.05-22.758-32.05-22.53 0-34.606 31.816-34.606 85.698 0 63.174 9.983 80.356 29.265 80.356 16.257 0 24.616-11.151 25.549-39.712 11.614 25.314 30.426 39.712 44.361 39.712 9.058 0 16.492-7.434 16.492-17.189 0-14.398-14.633-45.287-33.909-71.3 22.067-19.275 41.342-44.126 41.342-60.617l-.012.006ZM695.015 83.124c-22.864 0-41.466-18.883-41.466-42.097 0-11.106 4.231-21.394 11.902-28.968C673.142 4.473 683.639.3 695.015.3c11.381 0 22.054 4.143 29.864 11.659 7.932 7.637 12.298 18.039 12.298 29.297 0 23.088-18.913 41.869-42.162 41.869Z" fill="#fff"/><path d="M695.016 67.902c14.863 0 26.938-12.07 26.938-26.646s-11.376-25.733-26.938-25.733c-15.558 0-26.247 11.157-26.247 25.505 0 14.347 11.615 26.874 26.247 26.874Z" fill="#fff"/><path d="M691.999 200.862c-14.974 0-27.237-7.446-34.513-20.956-5.928-11.018-8.816-26.279-8.816-46.645 0-20.367 2.899-35.602 8.862-46.62 7.403-13.681 19.973-21.216 35.392-21.216 15.42 0 26.577 6.653 33.65 19.237 5.966 10.618 8.746 25.479 8.746 46.772s-2.822 36.915-8.631 48.059c-7.18 13.777-19.505 21.369-34.69 21.369Z" fill="#fff"/><path d="M692.924 80.654c-19.973 0-29.03 17.766-29.03 52.607s9.291 52.379 28.105 52.379c18.813 0 28.105-17.081 28.105-54.199 0-37.118-9.057-50.787-27.172-50.787h-.008Z" fill="#fff"/><path d="M597.708 200.865c-15.312 0-26.077-6.945-31.983-20.639-3.785-8.779-5.759-20.545-6.45-39.243-4.922-2.087-9-4.789-12.325-8.157-6.323-6.406-9.526-14.766-9.526-24.845 0-10.7 3.072-19.466 9.127-26.05 3.287-3.57 7.372-6.431 12.336-8.62.883-21.52 7.691-39.61 19.824-52.524C591.124 7.575 608.831.3 628.597.3c14.156 0 26.447 3.805 35.542 10.998 9.661 7.643 14.982 18.445 14.982 30.414 0 15.87-8.339 28.479-21.804 34.91 8.389 5.462 14.835 14.424 14.835 29.31 0 13.396-4.638 23.678-13.783 30.573-5.322 4.008-11.964 6.767-20.753 8.531-1.148 16.212-3.597 27.534-7.656 35.849-6.393 13.073-17.542 19.98-32.252 19.98Z" fill="#fff"/><path d="M663.892 41.712c0-14.347-12.774-26.189-35.304-26.189-30.654 0-54.578 20.95-54.578 62.629v6.374c-14.863 2.963-21.371 9.794-21.371 23.456 0 11.842 6.504 18.673 21.597 21.635.465 44.184 6.274 56.026 23.456 56.026 17.181 0 24.154-12.527 25.314-53.971 24.618-2.048 33.91-8.88 33.91-25.732 0-15.033-9.292-21.179-33.91-23-.235-8.2-.235-14.118-.461-18.444 3.716.913 8.593 1.592 12.774 1.592 17.65 0 28.566-9.793 28.566-24.369l.007-.007ZM418.638 199.597c-20.533 0-39.351-8.67-52.988-24.413-13.085-15.102-20.297-35.596-20.297-57.694 0-22.098 7.186-41.786 20.233-56.013 13.371-14.582 32.215-22.618 53.052-22.618 20.837 0 39.716 7.922 53.012 22.307 13.262 14.354 20.273 33.826 20.273 56.318 0 22.491-7.207 42.591-20.3 57.694-13.641 15.742-32.459 24.413-52.985 24.413v.006Z" fill="#fff"/><path d="M418.639 54.082c-34.145 0-58.063 26.012-58.063 63.402 0 37.391 24.851 66.885 58.063 66.885 33.211 0 58.061-28.796 58.061-66.885 0-38.088-23.92-63.402-58.061-63.402Zm-2.55 77.572c-7.199 0-12.539-6.501-12.539-14.398 0-7.199 5.34-13.009 12.539-13.009s12.31 5.803 12.31 13.009c0 7.897-5.341 14.398-12.31 14.398Z" fill="#fff"/><path d="M511.712 143.855c-13.257 0-22.791-2.492-30.009-7.846-8.835-6.558-13.319-16.7-13.319-30.134 0-15.737 7.072-24.414 13.004-28.923 7.706-5.861 18.007-8.595 32.409-8.595 14.406 0 25.049 2.537 32.824 7.98 6.485 4.54 14.218 13.471 14.218 30.236 0 16.764-8.209 25.764-15.097 30.096-7.898 4.973-18.395 7.186-34.037 7.186h.007Z" fill="#fff"/><path d="M513.797 83.581c-21.597 0-30.19 7.2-30.19 22.295 0 17.417 9.756 22.758 28.105 22.758 23.92 0 33.907-5.575 33.907-22.066 0-16.492-9.983-22.993-31.814-22.993l-.008.006ZM96.246 197.935c-35.044 0-63.548-15.672-80.255-44.132C1.199 128.856-.006 101.836-.006 71.644c0-17.899 5.385-33.483 15.565-45.071C24.915 15.929 38.171 9.035 52.893 7.157 70.367 4.944 92.09 4.76 114.678 4.76c36.756 0 47.139.45 61.601 1.896 19.238 1.91 35.425 9.09 46.803 20.767 11.557 11.86 17.665 27.698 17.665 45.82v3.64c0 30.922-20.671 56.8-49.48 63.834-2.15 5.075-4.814 10.123-7.966 15.096l-.083.127c-10.148 15.686-34.004 42.002-79.697 42.002H96.24l.006-.007Z" fill="#fff"/><path d="M174.77 21.798c-13.656-1.364-23.215-1.82-60.086-1.82-23.67 0-43.701.228-59.856 2.276-21.395 2.734-39.605 19.117-39.605 49.392 0 30.274 1.592 53.716 13.885 74.426 13.884 23.671 37.099 36.642 67.145 36.642h7.281c36.87 0 56.901-19.574 66.916-35.05 4.326-6.831 7.51-13.656 9.559-20.487 26.176-2.277 45.522-23.9 45.522-50.299v-3.64c0-28.448-18.66-48.25-50.755-51.44h-.006ZM683.057 58.67H648.67v24.364h34.387V58.67Z" fill="#fff"/><path d="M668.769 41.028c0 14.803 11.615 26.874 26.247 26.874s26.938-12.07 26.938-26.646-11.376-25.733-26.938-25.733c-15.558 0-26.247 11.157-26.247 25.505Zm-4.876 92.236c0 35.298 9.292 52.379 28.105 52.379 18.814 0 28.105-17.081 28.105-54.199 0-37.118-9.057-50.787-27.172-50.787-19.973 0-29.03 17.766-29.03 52.607m-111.254-25.282c0 11.842 6.501 18.673 21.598 21.635.46 44.184 6.273 56.026 23.455 56.026s24.154-12.527 25.314-53.971c24.615-2.048 33.907-8.88 33.907-25.732 0-15.033-9.292-21.179-33.907-23-.234-8.2-.234-14.118-.465-18.444 3.717.913 8.597 1.592 12.774 1.592 17.654 0 28.57-9.793 28.57-24.369s-12.774-26.19-35.304-26.19c-30.655 0-54.579 20.95-54.579 62.63v6.374c-14.862 2.962-21.37 9.793-21.37 23.455m-69.034-2.112c0 17.417 9.756 22.758 28.105 22.758 23.92 0 33.906-5.575 33.906-22.067 0-16.49-9.986-22.992-31.814-22.992-21.823 0-30.19 7.199-30.19 22.295m-80.072 11.385c0-7.199 5.34-13.009 12.539-13.009s12.314 5.804 12.314 13.009c0 7.897-5.341 14.398-12.314 14.398-6.972 0-12.539-6.501-12.539-14.398Zm-42.966.235c0 38.088 24.851 66.884 58.062 66.884 33.212 0 58.061-28.796 58.061-66.884 0-38.089-23.92-63.403-58.061-63.403-34.144 0-58.062 26.012-58.062 63.403Zm-79.196-99.176c-22.53 0-34.606 31.815-34.606 85.697 0 63.174 9.989 80.357 29.265 80.357 16.257 0 24.617-11.15 25.549-39.712 11.614 25.314 30.426 39.712 44.361 39.712 9.058 0 16.491-7.434 16.491-17.189 0-14.398-14.632-45.287-33.908-71.3 22.067-19.275 41.342-44.126 41.342-60.617 0-9.292-3.717-16.954-14.861-16.954-12.076 0-29.957 8.594-51.789 43.892.698-4.18.926-8.132.926-11.842 0-19.048-7.896-32.05-22.758-32.05M15.218 71.646c0-30.275 18.21-46.658 39.604-49.392 16.162-2.048 36.192-2.277 59.857-2.277 36.871 0 46.429.457 60.085 1.82 32.095 3.185 50.755 22.987 50.755 51.44v3.641c0 26.405-19.345 48.028-45.522 50.299-2.049 6.831-5.233 13.656-9.558 20.487-10.016 15.476-30.046 35.05-66.917 35.05h-7.281c-30.046 0-53.26-12.971-67.145-36.642-12.292-20.71-13.884-43.702-13.884-74.426" fill="#202020"/><path d="M32.285 71.872c0 29.361 1.82 48.249 11.379 65.775 10.922 20.258 30.724 27.997 53.26 27.997h7.053c29.59 0 43.93-14.341 51.897-26.856 3.869-6.374 7.282-13.427 9.102-22.307l1.364-5.69h8.195c18.21 0 33.914-14.79 33.914-33.686v-3.413c0-21.165-13.199-32.323-36.191-35.05-12.971-1.135-20.71-1.592-57.586-1.592-24.807 0-42.56.228-55.988 2.277-18.89 2.734-26.405 13.428-26.405 32.545" fill="#fff"/><path d="M166.348 87.575c0 2.733 2.049 4.782 5.689 4.782 11.608 0 17.982-6.603 17.982-17.525 0-10.922-6.374-17.753-17.982-17.753-3.64 0-5.689 2.048-5.689 4.782v25.72-.006Z" fill="#202020"/><path d="M54.593 86.205c0 13.428 7.51 25.035 17.069 34.143 6.374 6.147 16.39 12.521 23.214 16.618 2.049 1.136 4.098 1.821 6.375 1.821 2.733 0 5.004-.685 6.831-1.821 6.831-4.097 16.84-10.471 22.986-16.618 9.787-9.102 17.297-20.709 17.297-34.143 0-14.57-10.922-27.54-26.627-27.54-9.33 0-15.705 4.782-20.487 11.379-4.326-6.603-10.922-11.38-20.259-11.38-15.933 0-26.405 12.972-26.405 27.541" fill="#FF5A16"/></g></g><defs><clipPath id="a"><path fill="#fff" d="M-.006.3h737.184v200.806H-.006z"/></clipPath></defs></svg>
