<svg viewBox="0 0 10680 1488" xmlns="http://www.w3.org/2000/svg" fill-rule="evenodd" clip-rule="evenodd" stroke-linejoin="round" stroke-miterlimit="2"><g fill-rule="nonzero"><path d="M776.334 549.875c0-131.083-88.746-244.008-225.859-244.008h-223.82v487.95h223.82c137.113 0 225.859-112.858 225.859-243.942zM0 39.705h590.784c312.567 0 514.238 235.95 514.238 510.17 0 274.221-201.671 510.097-514.238 510.097h-264.13v391.22H0V39.705zM2050.71 442.975l-173.421 580.76h342.775l-169.354-580.76zm304.504 1008.218l-54.391-171.392H1798.71l-54.467 171.392h-348.875L1899.51 39.704h300.438l510.175 1411.489h-354.909zM3258.565 321.988h-318.521V39.704h965.805v282.284h-320.63v1129.205h-326.654V321.988zM5190.337 549.875c0-131.083-88.75-244.008-225.875-244.008H4740.63v487.95h223.833c137.125 0 225.875-112.858 225.875-243.942zm-776.333-510.17h592.875c312.5 0 514.167 235.95 514.167 510.17 0 197.605-104.875 372.988-280.333 455.705l282.375 445.613h-379.084l-250.125-391.221h-153.25v391.22h-326.625V39.705zM6402.255 301.871v320.554h534.334v256.138h-534.334v310.459h534.334v262.17h-861V39.705h861v262.167h-534.334zM8628.424 745.446c0-231.883-157.334-447.642-413.376-447.642-258.125 0-413.375 215.759-413.375 447.642 0 231.884 155.25 447.647 413.375 447.647 256.042 0 413.376-215.763 413.376-447.647zm-1161.543 0c0-387.146 278.292-742.054 748.167-742.054 467.75 0 746.043 354.908 746.043 742.054 0 387.15-278.292 742.055-746.043 742.055-469.875 0-748.167-354.904-748.167-742.055zM10354.508 959.176V39.704h324.626v1411.489h-340.75l-508.21-907.418v907.418h-326.666V39.704h340.75l510.25 919.472z"/></g></svg>
