<svg viewBox="0 0 192 192" xmlns="http://www.w3.org/2000/svg" xmlns:xlink="http://www.w3.org/1999/xlink" xml:space="preserve" fill-rule="evenodd" clip-rule="evenodd" stroke-linejoin="round" stroke-miterlimit="2"><path d="M172 160c0 6.627-5.373 12-12 12H32c-6.627 0-12-5.373-12-12V32c0-6.627 5.373-12 12-12h128c6.627 0 12 5.373 12 12v128Z" fill="#1a59c6" fill-rule="nonzero"/><g transform="scale(-166.54 166.54) rotate(-45 .717 1.727)"><defs><mask id="a"/></defs><g mask="url(#a)"><path d="m.021.049.337.338h.273C.667.387.702.383.712.373.725.36.711.309.695.3h.159C.874.3.937.212.955.176.973.14 1.012.037.996.022.988.014.964.007.946.007H.801L.785-.087a.063.063 0 0 1 .003-.024h.125c.019 0 .058-.016.058-.025A.621.621 0 0 0 .884-.27.449.449 0 0 0 .75-.357H.603C.601-.368.597-.378.592-.382.589-.385.584-.386.576-.386H.356l-.335.334a.071.071 0 0 0 0 .101Z" fill="#10295b"/></g></g><path d="M79.544 107.936c-1.642-2.85-3.6-8.405-3.48-11.317.128-3.16 1.886-9.553 3.82-12.055 1.382-1.787 4.401-4.472 7.108-6.16a19.89 19.89 0 0 1 8.822-2.07c8.132 0 15.118 4.862 18.244 11.831.36.887.701 1.826.996 2.765.483 1.721.76 3.528.76 5.403 0 1.379-.14 2.724-.406 4.023l-.026.108c-.047.222-.115.436-.169.657a37.967 37.967 0 0 1-.507 1.729c-2.705 7.842-10.13 13.484-18.892 13.484-6.715 0-12.643-3.32-16.27-8.398m77.388-31.025c-2.056-6.328-9.355-23.047-13.307-23.047-2.918 0-8.799 4.613-8.917 7.528 0 0 4.56 6.774 7.825 12.566-4.368 2.912-13.795 7.413-20.58 3.367l-16-11.326c-5.978-5.23-4.477-15.796-3.026-20.858 6.502 1.319 14.287 3.54 14.287 3.54 2.516-1.413 5.91-9.43 4.881-10.46-2.095-2.095-19.378-5.532-26.03-5.532-6.655 0-25.169 4.67-26.032 5.532-1.218 1.219 2.245 9.287 4.881 10.464.713.317 8.055-1.983 14.277-3.413 1.45 5.113 2.91 15.544-3.016 20.727l-16 11.417c-6.788 4.049-16.23-.489-20.6-3.409 3.268-5.802 7.845-12.609 7.845-12.609 1.297-2.614-5.999-7.533-8.918-7.533-3.688 0-11.25 16.72-13.306 23.048-2.056 6.329-5.056 24.195-2.782 26.469 2.132 2.131 10.806 1.067 11.935-1.728 0 0 .29-8.02 1.035-14.6 5.283.127 15.578 1.722 18.68 8.963l6.111 18.992c1.737 7.635-5.406 15.205-9.569 18.528-4.509-4.876-9.576-11.287-9.576-11.287-2.926-.882-10.392 3.388-10.392 6.445 0 4.555 12.426 15.87 17.807 19.781 5.383 3.913 21.62 10.68 24.312 10.68 1.37 0 4.023-10.44 2.307-12.156 0 0-7.434-2.726-13.398-5.46 1.852-4.936 6.733-13.833 14.51-14.54h19.776c7.788.708 12.703 9.613 14.558 14.537-5.913 2.54-13.314 5.03-13.635 5.62-1.445 2.656 1.498 10.845 2.495 11.843 1.831 1.832 18.931-6.766 24.313-10.68 5.382-3.913 17.806-16.612 17.806-19.71 0-2.194-7.436-7.254-10.392-6.465 0 0-5.004 6.46-9.493 11.403-4.167-3.28-11.394-10.803-9.652-18.465l6.112-19.1c3.076-7.18 13.218-8.82 18.535-8.972.545 6.358.606 14.037 1.18 14.61 2.133 2.13 10.392 3.299 11.934 1.757 2.083-2.084-.726-20.138-2.78-26.466" fill="#ffc400" fill-rule="nonzero"/><g transform="translate(.064)"><clipPath id="b"><path d="M69.97 38.221c-1.218 1.218 2.244 9.287 4.88 10.464.713.318 8.055-1.983 14.277-3.413 1.451 5.112 2.91 15.543-3.016 20.728l-16 11.416c-6.788 4.049-16.231-.489-20.6-3.408 3.269-5.803 7.846-12.61 7.846-12.61 1.296-2.615-5.999-7.533-8.918-7.533-3.689 0-11.25 16.72-13.307 23.048-2.055 6.328-5.056 24.194-2.782 26.469 2.133 2.132 10.807 1.067 11.935-1.728 0 0 .289-8.02 1.035-14.599 5.283.127 15.578 1.721 18.68 8.962l6.111 18.992c1.737 7.635-5.405 15.206-9.569 18.528-4.509-4.877-9.575-11.286-9.575-11.286-2.927-.884-10.392 3.387-10.392 6.443 0 4.556 12.425 15.871 17.807 19.783 5.383 3.912 21.618 10.679 24.312 10.679 1.369 0 4.023-10.439 2.306-12.156 0 0-7.434-2.725-13.398-5.459 1.852-4.938 6.734-13.835 14.509-14.541h19.778c7.788.707 12.703 9.613 14.557 14.537-5.913 2.54-13.314 5.029-13.635 5.62-1.444 2.656 1.499 10.846 2.496 11.843 1.83 1.831 18.93-6.766 24.312-10.68 5.383-3.914 17.807-16.612 17.807-19.71 0-2.193-7.437-7.254-10.392-6.464 0 0-5.004 6.459-9.494 11.402-4.167-3.281-11.394-10.803-9.651-18.464l6.111-19.1c3.076-7.182 13.219-8.821 18.535-8.974.545 6.358.607 14.038 1.18 14.61 2.133 2.132 10.392 3.3 11.934 1.758 2.084-2.083-.725-20.138-2.781-26.467-2.055-6.327-9.354-23.047-13.306-23.047-2.918 0-8.8 4.613-8.917 7.528 0 0 4.558 6.775 7.825 12.567-4.369 2.91-13.795 7.413-20.581 3.365l-16-11.324c-5.978-5.231-4.477-15.798-3.025-20.859 6.501 1.318 14.286 3.54 14.286 3.54 2.516-1.414 5.911-9.43 4.881-10.46-2.094-2.096-19.378-5.533-26.031-5.533-6.653 0-25.168 4.671-26.03 5.533Zm9.511 69.715c-1.642-2.849-3.6-8.405-3.481-11.317.129-3.159 1.886-9.554 3.82-12.055 1.382-1.788 4.402-4.472 7.108-6.159a19.894 19.894 0 0 1 8.822-2.071c8.133 0 15.118 4.863 18.244 11.832.361.887.701 1.825.996 2.764.484 1.722.76 3.529.76 5.404 0 1.378-.14 2.723-.405 4.022l-.026.108c-.048.223-.116.436-.169.656a39.734 39.734 0 0 1-.507 1.73c-2.705 7.841-10.131 13.484-18.893 13.484-6.715 0-12.642-3.321-16.269-8.398Z" clip-rule="nonzero"/></clipPath><g clip-path="url(#b)"><g opacity=".2"><use xlink:href="#c" width="58" height="52" transform="translate(83 26)" opacity=".2"/><path d="M117.15 47.682s-7.785-2.222-14.287-3.541c-.673 2.346-1.346 5.876-1.29 9.508.067-3.272.68-6.378 1.29-8.508 6.502 1.319 14.287 3.54 14.287 3.54 2.361-1.326 5.496-8.47 5.021-10.192-.38 2.592-2.987 8.049-5.021 9.193" fill="#1a237e" fill-rule="nonzero"/><use xlink:href="#d" width="58" height="52" transform="translate(51 26)" opacity=".2"/><path d="M74.85 48.685c.713.318 8.055-1.982 14.277-3.412.61 2.144 1.211 5.227 1.277 8.464.057-3.595-.606-7.1-1.277-9.464-6.222 1.43-13.564 3.73-14.277 3.412-2.103-.938-4.724-6.255-5.083-8.99-.413 2.1 2.674 8.915 5.083 9.99" fill="#1a237e" fill-rule="nonzero"/><use xlink:href="#e" width="77" height="58" transform="translate(57 63)" opacity=".2"/><path d="M114.99 89.93a36.536 36.536 0 0 0-.996-2.764c-3.126-6.97-10.111-11.833-18.244-11.833-3.171 0-6.157.758-8.822 2.071-2.707 1.688-5.726 4.372-7.108 6.16-1.934 2.501-3.691 8.896-3.82 12.055a7.77 7.77 0 0 0 .015.77c.199-3.229 1.915-9.38 3.805-11.825 1.382-1.788 4.401-4.472 7.108-6.16a19.894 19.894 0 0 1 8.822-2.07c8.133 0 15.118 4.862 18.244 11.832.36.887.701 1.825.996 2.764.433 1.542.688 3.156.738 4.823.003-.14.022-.278.022-.419 0-1.875-.277-3.683-.76-5.404" fill="#1a237e" fill-rule="nonzero"/><use xlink:href="#f" width="45" height="51" transform="translate(31 48)" opacity=".2"/><path d="M49.51 73.008s-.138.91 0 1c3.228-5.628 7.847-12.61 7.847-12.61.18-.365.18-.78.06-1.215-.021.07-.026.147-.06.216 0 0-4.577 6.806-7.846 12.609" fill="#1a237e" fill-rule="nonzero"/><use xlink:href="#g" width="45" height="50" transform="translate(116 48)" opacity=".2"/><path d="M142.34 73.046c-2.92-5.175-6.73-11.208-7.537-12.418-.085.263-.15.521-.158.764 0 0 4.6 6.951 7.824 12.567.14-.089-.129-.913-.129-.913" fill="#1a237e" fill-rule="nonzero"/><use xlink:href="#h" width="82" height="68" transform="translate(88 116)" opacity=".2"/><path d="M133.619 147.32c-5.382 3.914-22.481 12.511-24.313 10.68-.765-.766-2.671-5.765-2.864-9.251-.202 3.435 2.022 9.408 2.864 10.251 1.832 1.831 18.931-6.766 24.313-10.68 5.383-3.914 17.807-16.612 17.807-19.71 0-.144-.036-.302-.097-.468-1.119 3.802-12.593 15.457-17.71 19.178" fill="#1a237e" fill-rule="nonzero"/><use xlink:href="#i" width="76" height="68" transform="translate(13 74)" opacity=".2"/><path d="M44.285 101.653s.29-8.02 1.036-14.599c5.282.127 15.578 1.722 18.68 8.962l6.11 18.992c.155.684.217 1.366.24 2.045a10.888 10.888 0 0 0-.24-3.045l-6.11-18.992c-3.102-7.24-13.398-8.835-18.68-8.962-.746 6.579-1.036 14.599-1.036 14.599-1.128 2.796-9.803 3.86-11.935 1.729-.534-.535-.774-1.937-.807-3.84-.042 2.412.183 4.215.807 4.84 2.132 2.131 10.807 1.067 11.935-1.729" fill="#1a237e" fill-rule="nonzero"/><use xlink:href="#j" width="76" height="68" transform="translate(103 74)" opacity=".2"/><path d="M159.649 102.378c-1.542 1.542-9.801.374-11.935-1.758-.573-.572-.634-8.252-1.179-14.61-5.317.154-15.459 1.792-18.535 8.973l-6.112 19.101a10.888 10.888 0 0 0-.238 3.039c.021-.677.083-1.356.238-2.039L128 95.983c3.076-7.181 13.218-8.819 18.535-8.973.545 6.358.606 14.038 1.179 14.61 2.134 2.132 10.393 3.3 11.935 1.758.56-.56.764-2.277.727-4.604-.033 1.813-.251 3.128-.727 3.604" fill="#1a237e" fill-rule="nonzero"/><use xlink:href="#k" width="86" height="52" transform="translate(53 114)" opacity=".2"/><path d="M120.446 141.537c.112-.048.144-.85 0-1-1.854-4.924-6.77-13.83-14.558-14.537H86.111c-7.775.706-12.657 9.603-14.509 14.541 0 0-.111.949 0 1 2.064-5.043 7.159-13.874 14.509-14.541h19.777c7.358.668 12.487 9.505 14.558 14.537" fill="#1a237e" fill-rule="nonzero"/><use xlink:href="#l" width="82" height="68" transform="translate(22 116)" opacity=".2"/><path d="M82.694 158.156c-2.694 0-18.93-6.767-24.312-10.68-5.171-3.758-16.84-14.349-17.745-19.214-.03.146-.062.291-.062.432 0 4.556 12.425 15.87 17.807 19.782 5.383 3.913 21.618 10.68 24.312 10.68 1.1 0 3.03-6.75 2.853-10.287-.155 3.671-1.85 9.287-2.853 9.287" fill="#1a237e" fill-rule="nonzero"/></g><g opacity=".2"><use xlink:href="#m" width="51" height="45" transform="translate(88 129)" opacity=".2"/><path d="M120.446 142.537c.037-.225.304-.662 0-1-5.854 2.489-13.319 5.04-13.635 5.619-.336.617-.428 1.539-.369 2.593.037-.628.146-1.182.369-1.593.322-.59 7.722-3.079 13.635-5.619" fill="#fff" fill-rule="nonzero"/><use xlink:href="#n" width="77" height="58" transform="translate(57 84)" opacity=".2"/><path d="M79.48 108.936c3.627 5.077 9.556 8.397 16.27 8.397 8.762 0 16.188-5.642 18.893-13.484.184-.575.353-1.155.507-1.729.053-.22.121-.434.168-.657l.027-.108c.266-1.299.406-2.644.406-4.022 0-.195-.017-.386-.023-.581a19.951 19.951 0 0 1-.383 3.603l-.026.108c-.047.223-.115.437-.17.657a37.967 37.967 0 0 1-.506 1.729c-2.706 7.842-10.131 13.484-18.892 13.484-6.715 0-12.644-3.32-16.27-8.397-1.507-2.617-3.277-7.51-3.465-10.548-.004.075-.013.158-.016.231-.12 2.912 1.839 8.467 3.48 11.317" fill="#fff" fill-rule="nonzero"/><use xlink:href="#o" width="63" height="83" transform="translate(116 41)" opacity=".2"/><path d="M143.561 54.864c3.952 0 11.251 16.72 13.307 23.047 1.504 4.628 3.407 15.525 3.507 21.863.111-6.123-1.921-17.98-3.507-22.863-2.056-6.327-9.355-23.047-13.307-23.047-2.918 0-8.641 3.848-8.759 6.763 0 0 .07.026.166.17.934-2.89 5.918-5.933 8.593-5.933" fill="#fff" fill-rule="nonzero"/><use xlink:href="#p" width="78" height="62" transform="translate(83 42)" opacity=".2"/><path d="M105.889 66c-3.207-2.806-4.252-7.147-4.315-11.351-.093 4.503.852 9.321 4.315 12.351l16 11.324c6.786 4.048 16.213-.454 20.581-3.365.041-.271.14-.755 0-1-4.524 2.907-13.997 7.292-20.581 3.365l-16-11.324Z" fill="#fff" fill-rule="nonzero"/><use xlink:href="#q" width="90" height="44" transform="translate(51 20)" opacity=".2"/><path d="M69.837 39.12C70.7 38.259 89.347 33.69 96 33.69c6.653 0 23.937 3.437 26.03 5.533.065.063-.03-.113 0 0 .09-.614.199-.803 0-1-2.093-2.096-19.377-5.533-26.03-5.533-6.653 0-25.408 4.74-26.27 5.603-.247.246.016.136.107.829.039-.198-.105.105 0 0" fill="#fff" fill-rule="nonzero"/><use xlink:href="#r" width="67" height="53" transform="translate(103 106)" opacity=".2"/><path d="M141.033 122.145s-5.004 6.459-9.493 11.402c-3.612-2.843-9.516-8.878-9.89-15.424-.219 6.926 6.094 13.436 9.89 16.424 4.489-4.943 9.493-11.402 9.493-11.402 2.762-.737 9.219 3.19 10.083 5.557.059-.198.213-.408.213-.56 0-2.193-7.34-6.786-10.296-5.997" fill="#fff" fill-rule="nonzero"/><use xlink:href="#s" width="51" height="45" transform="translate(53 129)" opacity=".2"/><path d="M71.603 141.541a.847.847 0 0 0 .163.787C77.728 145.062 85 148 85 148c.336.336.503 1.009.547 1.869.056-1.333-.09-2.412-.547-2.869 0 0-7.492-2.777-13.397-5.459" fill="#fff" fill-rule="nonzero"/><use xlink:href="#t" width="63" height="83" transform="translate(13 41)" opacity=".2"/><path d="M35.133 77.913c2.056-6.328 9.617-23.048 13.306-23.048 2.51 0 8.183 2.851 8.918 5.533.833-2.659-6.076-6.533-8.918-6.533-3.69 0-11.25 16.72-13.306 23.048-1.573 4.841-3.696 16.43-3.59 22.63.11-6.378 2.098-17.039 3.59-21.63" fill="#fff" fill-rule="nonzero"/><use xlink:href="#u" width="67" height="53" transform="translate(22 106)" opacity=".2"/><path d="M50.967 123.251s5.066 6.409 9.576 11.286c3.79-3.024 10.028-9.572 9.808-16.483-.367 6.536-6.202 12.604-9.808 15.483-4.51-4.877-9.576-11.286-9.576-11.286-2.926-.884-10.33 2.955-10.33 6.012 0 .178.103.349.14.548.63-3.01 7.398-6.403 10.19-5.56" fill="#fff" fill-rule="nonzero"/><use xlink:href="#v" width="78" height="63" transform="translate(31 42)" opacity=".2"/><path d="M49.51 75.008c4.37 2.919 13.814 7.457 20.602 3.408l16-11.416c3.439-3.01 4.383-7.784 4.293-12.263-.067 4.176-1.11 8.477-4.293 11.263l-16 11.416c-6.586 3.928-16.075-.491-20.601-3.408-.14.245-.183.742 0 1" fill="#fff" fill-rule="nonzero"/></g></g></g><g transform="matrix(190 190 190 -190 -.448 .513)"><defs><mask id="w"/></defs><g mask="url(#w)"><path d="M.285.086c0-.006.03-.018.04-.014.003.001.016.026.029.046C.371.108.402.085.4.056L.388-.017C.381-.045.344-.058.325-.062c-.007.024-.012.054-.012.054-.004.01-.036.004-.044-.004C.26-.021.284-.085.295-.107c.011-.022.05-.077.062-.077.011 0 .031.025.027.036l-.036.041c.015.013.046.036.073.025l.066-.033C.512-.131.513-.17.511-.189a1.099 1.099 0 0 0-.055.004C.446-.19.437-.221.445-.229.457-.241.52-.238.544-.234a.316.316 0 0 1 .092.035C.64-.195.62-.16.611-.16c0 0-.027-.013-.05-.021-.008.018-.019.054 0 .076l.052.052c.022.019.059.008.076 0C.681-.075.668-.101.668-.103c.004-.011.033-.025.038-.025.01 0 .032.068.036.092.004.024.003.091-.005.099C.731.069.698.062.693.052l.005-.055C.678-.005.639-.004.624.021L.589.087c-.01.027.012.058.026.072C.633.144.653.124.656.124c.011 0 .036.019.036.027 0 .011-.055.051-.077.062C.593.224.53.249.52.239.512.231.509.203.516.195c0 0 .03-.005.054-.012C.566.164.553.127.524.12L.452.108C.423.106.399.137.389.155l.047.028c.003.01-.009.04-.014.04A.275.275 0 0 1 .339.169.376.376 0 0 1 .285.086Zm.208-.158a.103.103 0 0 0-.039.02.104.104 0 0 0-.021.042.106.106 0 0 0 .002.035.075.075 0 0 0 .097.046l.01-.005A.061.061 0 0 0 .558.054l.01-.012.004-.008a.073.073 0 0 0-.014-.085.073.073 0 0 0-.065-.021Z" fill="url(#x)" fill-rule="nonzero"/></g></g><defs><linearGradient id="x" x1="0" y1="0" x2="1" y2="0" gradientUnits="userSpaceOnUse" gradientTransform="matrix(1 0 0 -1 0 .008)"><stop offset="0" stop-color="#fff"/><stop offset="1" stop-color="#fff"/></linearGradient></defs></svg>