<svg xmlns="http://www.w3.org/2000/svg" width="188" height="30" viewBox="0 0 188 30"><path fill="none" d="M0 1h188v28.688H0z"/><path fill="#42A5F5" d="M4.11 15.161c.57 3.84 1.86 5.85 5.91 5.85 3.3 0 4.74-1.771 4.74-3.63 0-1.89-.75-2.79-5.79-4.44-4.5-1.44-6.51-2.97-6.51-5.97 0-2.91 2.4-5.52 6.6-5.52 3.78 0 6.78 1.86 7.32 5.79l-2.52.54c-.45-2.31-1.59-3.96-4.8-3.96-2.79 0-4.08 1.47-4.08 3.15 0 1.53.63 2.28 5.22 3.78 5.7 1.86 7.05 3.39 7.05 6.51 0 3.27-2.55 6.09-7.32 6.09-5.07 0-7.8-2.7-8.43-7.68l2.61-.51zM20.64 1.001h2.46V8.59h.06c.87-1.17 2.7-2.04 4.65-2.04 3.27 0 5.7 2.01 5.7 5.97V22.9h-2.46v-9.72c0-2.67-1.11-4.38-3.69-4.38-2.61 0-4.26 1.68-4.26 4.11v9.99h-2.46V1.001zM37.619 1.001h2.82v2.79h-2.82v-2.79zm.18 6h2.46V22.9h-2.46V7.001zM58.229 19.301c-1.05 2.069-3.18 4.05-6.66 4.05-4.26 0-7.38-3.24-7.38-8.4s3.06-8.399 7.26-8.399c4.17 0 7.14 3.09 7.14 8.399v.72h-11.94c.03 2.819 1.56 5.46 4.86 5.46 3.209 0 4.169-2.07 4.74-3.12l1.98 1.29zm-2.07-5.58c-.06-2.31-1.26-4.95-4.709-4.95-3.42 0-4.71 3-4.74 4.95h9.449zM62.039 1.001h2.49V22.9h-2.49V1.001zM79.648 21.37h-.06c-.66.78-2.28 1.98-4.649 1.98-4.2 0-6.9-3.3-6.9-8.4 0-5.19 3.06-8.399 6.9-8.399 2.16 0 3.6 1.02 4.41 1.979h.06V1.001h2.46V22.9h-2.22v-1.53zm-.24-8.669c0-1.83-1.44-3.93-4.08-3.93-3.18 0-4.83 2.31-4.83 6.18s1.65 6.18 4.83 6.18c2.4 0 4.08-1.681 4.08-3.51v-4.92z"/><path fill="#FFC400" d="M86.099 1.901h8.91c3.81 0 6.18 2.58 6.18 5.64 0 1.92-.96 3.21-2.28 3.99v.03c1.71.72 3.06 2.37 3.06 4.799 0 1.92-.569 3.57-1.83 4.8-1.17 1.11-2.789 1.74-6.029 1.74H86.1V1.901zm8.399 8.46c1.62 0 2.64-.78 2.64-2.31 0-1.62-1.02-2.4-2.64-2.4h-4.35v4.71h4.35zm.54 8.789c1.591 0 2.88-.54 2.88-2.79 0-1.74-1.109-2.7-2.85-2.7h-4.92v5.49h4.89zM113.907 21.37h-.06s-1.11 1.98-4.32 1.98c-4.109 0-5.729-2.311-5.729-4.71 0-2.85 1.59-4.02 5.4-4.95 3.779-.93 4.109-1.26 4.109-2.16s-.81-1.68-2.7-1.68c-2.369 0-2.97 1.38-3.359 2.61l-3.24-1.35c.69-2.43 2.73-4.56 6.54-4.56 3.569 0 6.63 1.709 6.63 6.27V22.9h-3.271v-1.53zm-6.359-3c0 1.2.96 1.62 2.34 1.62 2.55 0 3.54-1.17 3.54-2.34v-2.76h-.061c-.18.33-.3.72-3.39 1.5-2.219.541-2.429 1.321-2.429 1.98zM121.737 10.301h-2.46v-3.3h2.55v-3.9h3.689v3.9h4.021v3.3h-3.96v6.57c0 1.59.33 2.279 2.13 2.279h1.29v3.75h-1.65c-4.439 0-5.609-1.89-5.609-5.67v-6.929zM133.647 10.301h-2.46v-3.3h2.55v-3.9h3.689v3.9h4.021v3.3h-3.96v6.57c0 1.59.33 2.279 2.13 2.279h1.29v3.75h-1.65c-4.439 0-5.609-1.89-5.609-5.67v-6.929zM157.346 19.811c-1.32 1.92-3.27 3.54-6.569 3.54-4.38 0-7.53-3.24-7.53-8.4s3.21-8.399 7.35-8.399 7.29 3.24 7.29 8.399v1.17h-10.68c.12 2.459 1.38 3.779 3.51 3.779 2.04 0 3.12-1.38 3.9-2.49l2.729 2.401zm-3.241-6.6c-.18-2.01-1.409-3.24-3.51-3.24-1.979 0-3.239 1.47-3.39 3.24h6.9zM160.886 7.001h3.69v1.68h.06a3.696 3.696 0 0 1 3.27-1.98c.48 0 .961.09 1.44.3l-.6 3.78c-.42-.15-.841-.24-1.23-.24-1.68 0-2.729 1.08-2.729 3.63V22.9h-3.9V7.001zM177.206 22.12l-6.359-15.119h3.959l4.11 10.77h.06l4.11-10.77h3.96l-9.15 22.649h-3.869l3.179-7.53z"/></svg>