<svg xmlns="http://www.w3.org/2000/svg" width="640" height="100" viewBox="0 0 640 100"><path fill="none" d="M0 .209h640V99.79H0z"/><path fill="#42A5F5" d="M15.354 49.296c1.976 13.313 6.448 20.281 20.489 20.281 11.44 0 16.433-6.136 16.433-12.584 0-6.552-2.6-9.672-20.073-15.393-15.6-4.993-22.569-10.297-22.569-20.697 0-10.088 8.32-19.137 22.881-19.137 13.104 0 23.505 6.448 25.377 20.073l-8.736 1.872c-1.56-8.008-5.512-13.729-16.641-13.729-9.672 0-14.145 5.096-14.145 10.92 0 5.304 2.184 7.904 18.097 13.104 19.761 6.448 24.441 11.752 24.441 22.569 0 11.336-8.84 21.113-25.377 21.113-17.577 0-27.041-9.361-29.225-26.625l9.048-1.767zM71.784.206h8.528v26.313h.208c3.016-4.056 9.36-7.072 16.121-7.072 11.336 0 19.761 6.968 19.761 20.697v35.985h-8.528V42.432c0-9.256-3.848-15.185-12.792-15.185-9.048 0-14.769 5.824-14.769 14.249v34.633h-8.528V.206zM129.971.206h9.776v9.672h-9.776V.206zm.624 20.801h8.528v55.122h-8.528V21.007zM199.194 63.648c-3.64 7.176-11.024 14.041-23.089 14.041-14.769 0-25.585-11.233-25.585-29.122s10.608-29.121 25.169-29.121c14.457 0 24.753 10.712 24.753 29.121v2.496h-41.394c.104 9.776 5.408 18.929 16.849 18.929 11.128 0 14.457-7.176 16.433-10.816l6.864 4.472zm-7.176-19.344c-.208-8.008-4.368-17.161-16.329-17.161-11.856 0-16.329 10.4-16.433 17.161h32.762zM211.661.206h8.632v75.923h-8.632V.206zM271.992 70.825h-.208c-2.288 2.704-7.904 6.865-16.121 6.865-14.561 0-23.921-11.441-23.921-29.122 0-17.993 10.608-29.121 23.921-29.121 7.488 0 12.48 3.536 15.289 6.864h.208V.206h8.528v75.923h-7.696v-5.304zm-.832-30.057c0-6.344-4.992-13.625-14.145-13.625-11.024 0-16.745 8.008-16.745 21.425s5.72 21.425 16.745 21.425c8.32 0 14.145-5.824 14.145-12.168V40.768z"/><path fill="#FFC400" d="M291.646 3.326h30.889c13.209 0 21.425 8.944 21.425 19.553 0 6.656-3.328 11.128-7.904 13.833v.104c5.929 2.496 10.608 8.216 10.608 16.641 0 6.656-1.977 12.376-6.344 16.641-4.057 3.848-9.673 6.032-20.905 6.032h-27.769V3.326zm29.121 29.329c5.616 0 9.153-2.704 9.153-8.008 0-5.616-3.537-8.32-9.153-8.32h-15.081v16.329h15.081zm1.872 30.473c5.513 0 9.984-1.872 9.984-9.672 0-6.032-3.848-9.36-9.88-9.36h-17.057v19.033h16.953zM388.47 70.825h-.208s-3.848 6.865-14.977 6.865c-14.248 0-19.865-8.009-19.865-16.329 0-9.88 5.513-13.937 18.721-17.161 13.105-3.224 14.249-4.368 14.249-7.488s-2.808-5.824-9.36-5.824c-8.217 0-10.297 4.784-11.648 9.048l-11.232-4.68c2.393-8.424 9.465-15.809 22.673-15.809 12.376 0 22.985 5.928 22.985 21.737v34.945H388.47v-5.304zm-22.049-10.401c0 4.16 3.328 5.616 8.112 5.616 8.84 0 12.272-4.056 12.272-8.112V48.36h-.208c-.624 1.144-1.04 2.496-11.752 5.2-7.697 1.872-8.424 4.576-8.424 6.864zM415.611 32.447h-8.527v-11.44h8.84V7.486h12.793v13.521h13.936v11.44h-13.729v22.777c0 5.512 1.145 7.904 7.385 7.904h4.473v13h-5.721c-15.393 0-19.449-6.552-19.449-19.657V32.447zM455.338 32.447h-8.527v-11.44h8.84V7.486h12.793v13.521h13.936v11.44h-13.73v22.777c0 5.512 1.145 7.904 7.385 7.904h4.473v13h-5.721c-15.393 0-19.449-6.552-19.449-19.657V32.447zM536.979 65.417c-4.576 6.656-11.336 12.273-22.776 12.273-15.185 0-26.104-11.233-26.104-29.122s11.128-29.121 25.48-29.121 25.273 11.232 25.273 29.121v4.056h-37.025c.416 8.528 4.783 13.104 12.168 13.104 7.072 0 10.816-4.784 13.521-8.632l9.463 8.321zm-11.233-22.881c-.623-6.968-4.888-11.232-12.168-11.232-6.864 0-11.232 5.096-11.752 11.232h23.92zM547.689 21.007h12.793v5.824h.207c2.08-4.056 6.449-6.864 11.337-6.864 1.664 0 3.328.312 4.992 1.04l-2.08 13.104c-1.456-.52-2.912-.832-4.265-.832-5.824 0-9.464 3.744-9.464 12.584v30.265h-13.521V21.007zM604.266 73.425l-22.049-52.418h13.729l14.248 37.337h.208l14.249-37.337h13.729l-31.722 78.522H593.24l11.026-26.104z"/></svg>