<svg viewBox="0 0 86 14" xmlns="http://www.w3.org/2000/svg" xml:space="preserve" fill-rule="evenodd" clip-rule="evenodd" stroke-linejoin="round" stroke-miterlimit="2"><path d="M.7 6.846C.994 9.17 2.268 10.43 4.634 10.43c2.226 0 3.416-1.316 3.416-2.842 0-1.456-.63-2.17-3.29-3.038-2.142-.7-2.436-1.05-2.436-1.764 0-.784.602-1.47 1.904-1.47 1.498 0 2.03.77 2.24 1.848l1.176-.252C7.392 1.078 5.992.21 4.228.21c-1.96 0-3.08 1.218-3.08 2.576 0 1.4.938 2.114 3.038 2.786 2.352.77 2.702 1.19 2.702 2.072 0 .868-.672 1.694-2.212 1.694-1.89 0-2.492-.938-2.758-2.73L.7 6.846Zm8.666 3.374h1.148V5.558c0-1.134.77-1.918 1.988-1.918 1.204 0 1.722.798 1.722 2.044v4.536h1.148V5.376c0-1.848-1.134-2.786-2.66-2.786-.91 0-1.764.406-2.17.952h-.028V0H9.366v10.22Zm7.6734 0h1.148V2.8h-1.148v7.42Zm-.084-8.918h1.316V0h-1.316v1.302Zm8.414 6.636c-.266.49-.714 1.456-2.212 1.456-1.54 0-2.254-1.232-2.268-2.548h5.572V6.51c0-2.478-1.386-3.92-3.332-3.92-1.96 0-3.388 1.512-3.388 3.92s1.456 3.92 3.444 3.92c1.624 0 2.618-.924 3.108-1.89l-.924-.602Zm-4.452-2.002c.014-.91.616-2.31 2.212-2.31 1.61 0 2.17 1.232 2.198 2.31h-4.41ZM27.83912 0h1.162v10.22h-1.162zm8.07784 7.756c0 .854-.784 1.638-1.904 1.638-1.484 0-2.254-1.078-2.254-2.884 0-1.806.77-2.884 2.254-2.884 1.232 0 1.904.98 1.904 1.834v2.296Zm.112 2.464h1.036V0h-1.148v3.514h-.028c-.378-.448-1.05-.924-2.058-.924-1.792 0-3.22 1.498-3.22 3.92 0 2.38 1.26 3.92 3.22 3.92 1.106 0 1.862-.56 2.17-.924h.028v.714Zm2.60976 0h3.738c1.512 0 2.268-.294 2.814-.812.588-.574.854-1.344.854-2.24 0-1.134-.63-1.904-1.428-2.24v-.014c.616-.364 1.064-.966 1.064-1.862 0-1.428-1.106-2.632-2.884-2.632h-4.158v9.8Zm1.89-1.75V5.908h2.296c.812 0 1.33.448 1.33 1.26 0 1.05-.602 1.302-1.344 1.302h-2.282Zm0-4.102V2.17h2.03c.756 0 1.232.364 1.232 1.12 0 .714-.476 1.078-1.232 1.078h-2.03Zm11.15792 5.852h1.526V5.516c0-2.128-1.428-2.926-3.094-2.926-1.778 0-2.73.994-3.052 2.128l1.512.63c.182-.574.462-1.218 1.568-1.218.882 0 1.26.364 1.26.784 0 .42-.154.574-1.918 1.008-1.778.434-2.52.98-2.52 2.31 0 1.12.756 2.198 2.674 2.198 1.498 0 2.016-.924 2.016-.924h.028v.714Zm-1.834-3.038c1.442-.364 1.498-.546 1.582-.7h.028V7.77c0 .546-.462 1.092-1.652 1.092-.644 0-1.092-.196-1.092-.756 0-.308.098-.672 1.134-.924Zm5.29488.392c0 1.764.546 2.646 2.618 2.646h.77V8.47h-.602c-.84 0-.994-.322-.994-1.064V4.34h1.848V2.8h-1.876V.98h-1.722V2.8h-1.19v1.54h1.148v3.234Zm5.2848 0c0 1.764.546 2.646 2.618 2.646h.77V8.47h-.602c-.84 0-.994-.322-.994-1.064V4.34h1.848V2.8h-1.876V.98h-1.722V2.8h-1.19v1.54h1.148v3.234Zm9.67408.084c-.364.518-.868 1.162-1.82 1.162-.994 0-1.582-.616-1.638-1.764h4.984V6.51c0-2.408-1.47-3.92-3.402-3.92-1.932 0-3.43 1.512-3.43 3.92s1.47 3.92 3.514 3.92c1.54 0 2.45-.756 3.066-1.652l-1.274-1.12Zm-3.458-1.96c.07-.826.658-1.512 1.582-1.512.98 0 1.554.574 1.638 1.512h-3.22Zm6.076 4.522h1.82V6.146c0-1.19.49-1.694 1.274-1.694.182 0 .378.042.574.112l.28-1.764c-.224-.098-.448-.14-.672-.14-.658 0-1.246.378-1.526.924h-.028V2.8h-1.722v7.42Zm5.93608 3.14999h1.806l4.27-10.57h-1.848l-1.918 5.026h-.028l-1.918-5.026h-1.848l2.968 7.056-1.484 3.514Z" fill="#fff" fill-rule="nonzero"/></svg>