<svg viewBox="0 0 172 172" xmlns="http://www.w3.org/2000/svg" xmlns:xlink="http://www.w3.org/1999/xlink" xml:space="preserve" fill-rule="evenodd" clip-rule="evenodd" stroke-linejoin="round" stroke-miterlimit="2"><path d="M64.228 101.793c-2.173-3.771-4.763-11.121-4.605-14.973.17-4.181 2.496-12.641 5.053-15.95 1.83-2.366 5.825-5.918 9.406-8.15 3.525-1.737 7.477-2.74 11.672-2.74 10.76 0 20.003 6.434 24.138 15.654.477 1.174.928 2.416 1.318 3.659.639 2.277 1.006 4.667 1.006 7.148 0 1.823-.185 3.603-.537 5.322l-.035.143c-.062.295-.152.578-.223.869-.204.759-.428 1.527-.671 2.287-3.579 10.376-13.404 17.841-24.996 17.841-8.884 0-16.727-4.393-21.526-11.11m102.39-41.049c-2.72-8.372-12.377-30.493-17.606-30.493-3.861 0-11.642 6.103-11.798 9.959 0 0 6.032 8.964 10.353 16.627-5.779 3.852-18.252 9.808-27.23 4.454L99.168 46.307c-7.908-6.92-5.922-20.901-4.003-27.598 8.603 1.745 18.903 4.685 18.903 4.685 3.329-1.871 7.819-12.477 6.458-13.839-2.772-2.774-25.639-7.321-34.441-7.321-8.804 0-33.299 6.179-34.441 7.321-1.611 1.611 2.97 12.286 6.458 13.843.943.421 10.657-2.622 18.89-4.514 1.918 6.763 3.848 20.564-3.991 27.423L51.832 61.411c-8.981 5.357-21.475-.645-27.257-4.509C28.9 49.226 34.956 40.22 34.956 40.22c1.716-3.46-7.937-9.967-11.799-9.967-4.88 0-14.885 22.12-17.605 30.494-2.72 8.373-6.689 32.011-3.681 35.019 2.821 2.821 14.297 1.413 15.791-2.286 0 0 .382-10.611 1.369-19.316 6.99.168 20.611 2.279 24.716 11.858l8.085 25.128c2.298 10.103-7.153 20.118-12.661 24.515-5.965-6.453-12.669-14.934-12.669-14.934-3.872-1.168-13.75 4.482-13.75 8.526 0 6.027 16.441 20.998 23.56 26.173 7.122 5.178 28.604 14.131 32.167 14.131 1.811 0 5.323-13.813 3.052-16.085 0 0-9.836-3.605-17.726-7.222 2.45-6.532 8.908-18.304 19.196-19.239h26.167c10.304.936 16.807 12.72 19.261 19.235-7.823 3.36-17.615 6.653-18.04 7.434-1.912 3.515 1.982 14.35 3.301 15.669 2.422 2.424 25.047-8.95 32.168-14.129 7.121-5.178 23.559-21.98 23.559-26.078 0-2.903-9.839-9.597-13.75-8.553 0 0-6.621 8.545-12.56 15.085-5.513-4.339-15.075-14.292-12.77-24.429l8.086-25.271c4.07-9.501 17.489-11.669 24.524-11.872.721 8.412.802 18.572 1.56 19.33 2.823 2.82 13.75 4.365 15.791 2.325 2.756-2.756-.961-26.644-3.68-35.017" fill="#ffc400" fill-rule="nonzero"/><clipPath id="a"><path d="M51.645 9.554c-1.612 1.611 2.969 12.287 6.456 13.845.944.42 10.658-2.624 18.89-4.516 1.92 6.764 3.85 20.565-3.991 27.425L51.831 61.412c-8.981 5.357-21.475-.647-27.255-4.509 4.325-7.678 10.381-16.684 10.381-16.684 1.714-3.46-7.937-9.967-11.799-9.967-4.881 0-14.885 22.122-17.607 30.494-2.719 8.373-6.689 32.011-3.68 35.021 2.822 2.821 14.298 1.412 15.79-2.286 0 0 .383-10.611 1.37-19.316 6.99.168 20.611 2.277 24.715 11.857l8.085 25.128c2.298 10.102-7.151 20.119-12.66 24.514-5.966-6.452-12.669-14.932-12.669-14.932-3.872-1.17-13.749 4.481-13.749 8.525 0 6.028 16.439 20.998 23.56 26.174 7.122 5.176 28.602 14.129 32.167 14.129 1.811 0 5.322-13.811 3.051-16.083 0 0-9.836-3.605-17.727-7.223 2.45-6.533 8.91-18.305 19.196-19.239h26.168c10.304.936 16.807 12.719 19.26 19.234-7.823 3.361-17.615 6.654-18.04 7.436-1.91 3.514 1.983 14.35 3.303 15.669 2.421 2.422 25.045-8.952 32.166-14.131 7.122-5.178 23.56-21.979 23.56-26.077 0-2.902-9.839-9.598-13.749-8.553 0 0-6.621 8.546-12.561 15.086-5.514-4.341-15.076-14.293-12.769-24.429l8.085-25.271c4.07-9.503 17.49-11.671 24.523-11.873.721 8.412.803 18.573 1.561 19.33 2.822 2.82 13.75 4.366 15.79 2.326 2.757-2.756-.959-26.644-3.68-35.018-2.719-8.371-12.376-30.493-17.604-30.493-3.861 0-11.644 6.103-11.798 9.96 0 0 6.03 8.964 10.353 16.627-5.781 3.85-18.252 9.808-27.23 4.452l-21.17-14.982c-7.909-6.921-5.923-20.902-4.002-27.598 8.601 1.743 18.901 4.683 18.901 4.683 3.329-1.871 7.821-12.476 6.458-13.839-2.77-2.773-25.638-7.321-34.441-7.321-8.802 0-33.299 6.18-34.439 7.321Zm12.583 92.238c-2.172-3.769-4.763-11.12-4.605-14.973.171-4.18 2.495-12.641 5.054-15.95 1.828-2.365 5.824-5.917 9.404-8.149 3.526-1.737 7.477-2.74 11.673-2.74 10.76 0 20.002 6.434 24.138 15.655.477 1.174.927 2.415 1.318 3.657.64 2.278 1.005 4.669 1.005 7.15 0 1.823-.185 3.603-.536 5.321l-.034.143c-.064.295-.154.577-.224.868-.205.76-.427 1.527-.671 2.289-3.578 10.374-13.404 17.84-24.996 17.84-8.885 0-16.727-4.393-21.526-11.111Z" clip-rule="nonzero"/></clipPath><g clip-path="url(#a)"><g opacity=".2"><use xlink:href="#b" width="58" height="52" transform="translate(68.8844 -6.61538) scale(1.32308)" opacity=".2"/><path d="M114.068 22.071s-10.3-2.94-18.903-4.685c-.89 3.104-1.781 7.774-1.707 12.58.089-4.329.9-8.439 1.707-11.257 8.603 1.745 18.903 4.685 18.903 4.685 3.124-1.756 7.272-11.208 6.643-13.486-.503 3.429-3.952 10.649-6.643 12.163" fill="#1a237e" fill-rule="nonzero"/><use xlink:href="#c" width="58" height="52" transform="translate(26.5459 -6.61538) scale(1.32308)" opacity=".2"/><path d="M58.101 23.398c.944.421 10.658-2.622 18.89-4.514.806 2.836 1.602 6.915 1.69 11.198.075-4.756-.802-9.392-1.69-12.521-8.232 1.892-17.946 4.935-18.89 4.514-2.782-1.241-6.25-8.276-6.725-11.893-.546 2.777 3.538 11.794 6.725 13.216" fill="#1a237e" fill-rule="nonzero"/><use xlink:href="#d" width="77" height="58" transform="translate(34.4844 42.3385) scale(1.32308)" opacity=".2"/><path d="M111.21 77.969c-.39-1.242-.842-2.483-1.318-3.657-4.136-9.222-13.378-15.656-24.138-15.656-4.196 0-8.146 1.003-11.672 2.74-3.582 2.234-7.576 5.785-9.405 8.15-2.559 3.309-4.883 11.771-5.054 15.95-.013.315-.001.66.02 1.018.263-4.271 2.534-12.411 5.034-15.644 1.829-2.366 5.823-5.917 9.405-8.151 3.526-1.737 7.476-2.74 11.672-2.74 10.76 0 20.002 6.434 24.138 15.656.476 1.174.928 2.415 1.318 3.657.573 2.04.91 4.176.976 6.381.004-.186.029-.367.029-.554 0-2.481-.366-4.873-1.005-7.15" fill="#1a237e" fill-rule="nonzero"/><use xlink:href="#e" width="45" height="51" transform="translate(.08437 22.4923) scale(1.32308)" opacity=".2"/><path d="M24.575 55.58s-.183 1.205 0 1.323c4.27-7.447 10.381-16.683 10.381-16.683.24-.484.238-1.032.081-1.609-.029.094-.036.195-.081.286 0 0-6.055 9.005-10.381 16.683" fill="#1a237e" fill-rule="nonzero"/><use xlink:href="#f" width="45" height="50" transform="translate(112.546 22.4923) scale(1.32308)" opacity=".2"/><path d="M147.395 55.63c-3.862-6.847-8.902-14.829-9.972-16.43-.112.348-.197.689-.209 1.011 0 0 6.087 9.197 10.353 16.627.184-.118-.172-1.208-.172-1.208" fill="#1a237e" fill-rule="nonzero"/><use xlink:href="#g" width="82" height="68" transform="translate(75.4998 112.462) scale(1.32308)" opacity=".2"/><path d="M135.857 153.901c-7.12 5.178-29.744 16.553-32.168 14.13-1.012-1.013-3.534-7.627-3.789-12.24-.267 4.545 2.675 12.448 3.789 13.563 2.424 2.423 25.048-8.952 32.168-14.13 7.122-5.179 23.56-21.979 23.56-26.078 0-.191-.047-.4-.128-.619-1.48 5.03-16.661 20.451-23.432 25.374" fill="#1a237e" fill-rule="nonzero"/><use xlink:href="#h" width="76" height="68" transform="translate(-23.731 56.8923) scale(1.32308)" opacity=".2"/><path d="M17.662 93.48s.383-10.611 1.37-19.316c6.989.168 20.611 2.278 24.714 11.858l8.085 25.127c.206.905.288 1.808.317 2.706.075-1.331-.01-2.679-.317-4.029l-8.085-25.128c-4.103-9.579-17.725-11.689-24.714-11.857-.987 8.705-1.37 19.316-1.37 19.316-1.493 3.699-12.97 5.107-15.791 2.287-.707-.708-1.024-2.563-1.068-5.08-.056 3.191.242 5.576 1.068 6.403 2.821 2.82 14.298 1.412 15.791-2.287" fill="#1a237e" fill-rule="nonzero"/><use xlink:href="#i" width="76" height="68" transform="translate(95.3459 56.8923) scale(1.32308)" opacity=".2"/><path d="M170.297 94.438c-2.04 2.041-12.967.495-15.79-2.326-.759-.756-.839-10.918-1.56-19.33-7.035.204-20.454 2.371-24.524 11.872l-8.086 25.272c-.306 1.35-.391 2.693-.315 4.021.028-.896.11-1.794.315-2.698l8.086-25.272c4.07-9.501 17.489-11.668 24.524-11.872.721 8.413.801 18.574 1.56 19.331 2.823 2.82 13.75 4.366 15.79 2.326.741-.741 1.011-3.013.962-6.092-.043 2.399-.332 4.139-.962 4.768" fill="#1a237e" fill-rule="nonzero"/><use xlink:href="#j" width="86" height="52" transform="translate(29.1921 109.815) scale(1.32308)" opacity=".2"/><path d="M118.429 146.249c.148-.063.19-1.125 0-1.323-2.453-6.515-8.958-18.298-19.262-19.234H73.001c-10.287.935-16.746 12.706-19.197 19.239 0 0-.147 1.256 0 1.323 2.731-6.672 9.472-18.356 19.197-19.238h26.166c9.736.883 16.522 12.575 19.262 19.233" fill="#1a237e" fill-rule="nonzero"/><use xlink:href="#k" width="82" height="68" transform="translate(-11.8233 112.462) scale(1.32308)" opacity=".2"/><path d="M68.479 168.237c-3.564 0-25.044-8.953-32.166-14.13-6.842-4.972-22.28-18.985-23.478-25.422-.04.194-.082.385-.082.572 0 6.028 16.439 20.997 23.56 26.173 7.122 5.177 28.602 14.131 32.166 14.131 1.457 0 4.01-8.931 3.775-13.611-.205 4.857-2.446 12.287-3.775 12.287" fill="#1a237e" fill-rule="nonzero"/></g><g opacity=".2"><use xlink:href="#l" width="51" height="45" transform="translate(75.4998 129.662) scale(1.32308)" opacity=".2"/><path d="M118.429 147.572c.049-.298.402-.876 0-1.323-7.746 3.293-17.622 6.668-18.04 7.434-.445.817-.567 2.037-.489 3.431.049-.831.194-1.564.489-2.107.426-.781 10.216-4.074 18.04-7.435" fill="#fff" fill-rule="nonzero"/><use xlink:href="#m" width="77" height="58" transform="translate(34.4844 70.1231) scale(1.32308)" opacity=".2"/><path d="M64.228 103.116c4.799 6.717 12.642 11.11 21.526 11.11 11.592 0 21.417-7.465 24.996-17.841.243-.76.467-1.528.671-2.287.071-.291.161-.574.223-.869l.035-.143c.352-1.719.537-3.498.537-5.322 0-.258-.021-.51-.029-.768-.033 1.628-.192 3.225-.508 4.767l-.035.143c-.062.295-.152.578-.223.869-.204.759-.428 1.527-.671 2.287-3.579 10.376-13.404 17.841-24.996 17.841-8.884 0-16.727-4.393-21.526-11.11-1.994-3.463-4.336-9.936-4.585-13.956-.005.099-.017.209-.02.306-.158 3.853 2.432 11.202 4.605 14.973" fill="#fff" fill-rule="nonzero"/><use xlink:href="#n" width="63" height="83" transform="translate(112.546 13.2308) scale(1.32308)" opacity=".2"/><path d="M149.012 31.574c5.229 0 14.886 22.122 17.606 30.493 1.99 6.123 4.508 20.541 4.64 28.927.147-8.102-2.542-23.791-4.64-30.25-2.72-8.371-12.377-30.493-17.606-30.493-3.861 0-11.433 5.091-11.589 8.948 0 0 .093.035.22.225 1.235-3.825 7.83-7.85 11.369-7.85" fill="#fff" fill-rule="nonzero"/><use xlink:href="#o" width="78" height="62" transform="translate(68.8844 14.5538) scale(1.32308)" opacity=".2"/><path d="M99.168 46.308c-4.243-3.713-5.626-9.456-5.709-15.019-.123 5.958 1.127 12.333 5.709 16.342l21.169 14.982c8.979 5.356 21.451-.6 27.23-4.452.055-.358.186-.999 0-1.323-5.985 3.846-18.519 9.648-27.23 4.452L99.168 46.308Z" fill="#fff" fill-rule="nonzero"/><use xlink:href="#p" width="90" height="44" transform="translate(26.5459 -14.5538) scale(1.32308)" opacity=".2"/><path d="M51.469 10.744c1.141-1.142 25.813-7.187 34.615-7.187 8.803 0 31.671 4.548 34.441 7.321.085.083-.041-.15 0 0 .119-.813.262-1.063 0-1.323-2.77-2.773-25.638-7.321-34.441-7.321-8.802 0-33.616 6.272-34.757 7.413-.327.326.021.18.142 1.097.051-.262-.139.139 0 0" fill="#fff" fill-rule="nonzero"/><use xlink:href="#q" width="67" height="53" transform="translate(95.3459 99.2308) scale(1.32308)" opacity=".2"/><path d="M145.667 120.593s-6.621 8.545-12.56 15.085c-4.779-3.761-12.591-11.746-13.085-20.407-.29 9.164 8.062 17.777 13.085 21.73 5.939-6.54 12.56-15.085 12.56-15.085 3.654-.976 12.197 4.22 13.34 7.352.078-.262.282-.54.282-.741 0-2.902-9.711-8.978-13.622-7.934" fill="#fff" fill-rule="nonzero"/><use xlink:href="#r" width="51" height="45" transform="translate(29.1921 129.662) scale(1.32308)" opacity=".2"/><path d="M53.805 146.254c-.178.629.215 1.042.215 1.042 7.891 3.617 17.51 7.504 17.51 7.504.444.445.665 1.335.724 2.473.074-1.764-.118-3.191-.724-3.796 0 0-9.913-3.674-17.725-7.223" fill="#fff" fill-rule="nonzero"/><use xlink:href="#s" width="63" height="83" transform="translate(-23.731 13.2308) scale(1.32308)" opacity=".2"/><path d="M5.552 62.07c2.721-8.373 12.724-30.495 17.605-30.495 3.321 0 10.827 3.772 11.799 7.321 1.103-3.518-8.039-8.644-11.799-8.644-4.881 0-14.884 22.122-17.605 30.495C3.471 67.152.662 82.485.803 90.686c.146-8.437 2.775-22.542 4.749-28.616" fill="#fff" fill-rule="nonzero"/><use xlink:href="#t" width="67" height="53" transform="translate(-11.8233 99.2308) scale(1.32308)" opacity=".2"/><path d="M26.502 122.055s6.703 8.48 12.67 14.932c5.014-4.001 13.268-12.664 12.977-21.808-.486 8.648-8.206 16.676-12.977 20.485-5.967-6.452-12.67-14.932-12.67-14.932-3.871-1.17-13.667 3.91-13.667 7.954 0 .236.136.462.185.725.835-3.982 9.788-8.471 13.482-7.356" fill="#fff" fill-rule="nonzero"/><use xlink:href="#u" width="78" height="63" transform="translate(.08437 14.5538) scale(1.32308)" opacity=".2"/><path d="M24.575 58.226c5.782 3.862 18.276 9.866 27.257 4.509l21.169-15.104c4.55-3.983 5.799-10.299 5.68-16.225-.088 5.525-1.467 11.215-5.68 14.901L51.832 61.412c-8.714 5.197-21.268-.65-27.257-4.509-.185.324-.242.981 0 1.323" fill="#fff" fill-rule="nonzero"/></g></g><defs><mask id="b"/></defs><g mask="url(#b)"><path d="M51.645 9.554c-1.612 1.611 2.969 12.287 6.456 13.845.944.42 10.658-2.624 18.89-4.516 1.92 6.764 3.85 20.565-3.991 27.425L51.831 61.412c-8.981 5.357-21.475-.647-27.255-4.509 4.325-7.678 10.381-16.684 10.381-16.684 1.714-3.46-7.937-9.967-11.799-9.967-4.881 0-14.885 22.122-17.607 30.494-2.719 8.373-6.689 32.011-3.68 35.021 2.822 2.821 14.298 1.412 15.79-2.286 0 0 .383-10.611 1.37-19.316 6.99.168 20.611 2.277 24.715 11.857l8.085 25.128c2.298 10.102-7.151 20.119-12.66 24.514-5.966-6.452-12.669-14.932-12.669-14.932-3.872-1.17-13.749 4.481-13.749 8.525 0 6.028 16.439 20.998 23.56 26.174 7.122 5.176 28.602 14.129 32.167 14.129 1.811 0 5.322-13.811 3.051-16.083 0 0-9.836-3.605-17.727-7.223 2.45-6.533 8.91-18.305 19.196-19.239h26.168c10.304.936 16.807 12.719 19.26 19.234-7.823 3.361-17.615 6.654-18.04 7.436-1.91 3.514 1.983 14.35 3.303 15.669 2.421 2.422 25.045-8.952 32.166-14.131 7.122-5.178 23.56-21.979 23.56-26.077 0-2.902-9.839-9.598-13.749-8.553 0 0-6.621 8.546-12.561 15.086-5.514-4.341-15.076-14.293-12.769-24.429l8.085-25.271c4.07-9.503 17.49-11.671 24.523-11.873.721 8.412.803 18.573 1.561 19.33 2.822 2.82 13.75 4.366 15.79 2.326 2.757-2.756-.959-26.644-3.68-35.018-2.719-8.371-12.376-30.493-17.604-30.493-3.861 0-11.644 6.103-11.798 9.96 0 0 6.03 8.964 10.353 16.627-5.781 3.85-18.252 9.808-27.23 4.452l-21.17-14.982c-7.909-6.921-5.923-20.902-4.002-27.598 8.601 1.743 18.901 4.683 18.901 4.683 3.329-1.871 7.821-12.476 6.458-13.839-2.77-2.773-25.638-7.321-34.441-7.321-8.802 0-33.299 6.18-34.439 7.321Zm12.583 92.238c-2.172-3.769-4.763-11.12-4.605-14.973.171-4.18 2.495-12.641 5.054-15.95 1.828-2.365 5.824-5.917 9.404-8.149 3.526-1.737 7.477-2.74 11.673-2.74 10.76 0 20.002 6.434 24.138 15.655.477 1.174.927 2.415 1.318 3.657.64 2.278 1.005 4.669 1.005 7.15 0 1.823-.185 3.603-.536 5.321 0 0-.685 2.538-.929 3.3-3.578 10.374-13.404 17.84-24.996 17.84-8.885 0-16.727-4.393-21.526-11.111Z" fill="url(#c)" fill-rule="nonzero"/></g><defs><linearGradient id="c" x1="0" y1="0" x2="1" y2="0" gradientUnits="userSpaceOnUse" gradientTransform="rotate(45 31.30266 -68.9796) scale(355.51)"><stop offset="0" stop-color="#fff"/><stop offset="1" stop-color="#fff"/></linearGradient></defs></svg>