<svg xmlns="http://www.w3.org/2000/svg" width="188" height="30" viewBox="0 0 188 30"><path fill="none" d="M0 1h188v28.688H0z"/><path fill="#42A5F5" d="M4.11 15.16c.57 3.84 1.86 5.85 5.91 5.85 3.3 0 4.74-1.77 4.74-3.629 0-1.891-.75-2.791-5.79-4.44-4.5-1.44-6.51-2.97-6.51-5.97 0-2.91 2.4-5.52 6.6-5.52 3.78 0 6.78 1.86 7.32 5.79l-2.52.54c-.45-2.31-1.59-3.96-4.8-3.96-2.79 0-4.08 1.47-4.08 3.15 0 1.53.63 2.28 5.22 3.78 5.7 1.86 7.05 3.39 7.05 6.509 0 3.27-2.55 6.09-7.32 6.09-5.07 0-7.8-2.699-8.43-7.679l2.61-.511zM20.805 1.001h2.46V8.59h.06c.87-1.17 2.7-2.04 4.65-2.04 3.27 0 5.7 2.01 5.7 5.97V22.9h-2.46v-9.72c0-2.67-1.11-4.38-3.69-4.38-2.61 0-4.26 1.68-4.26 4.11v9.99h-2.46V1.001zM38.03 1.001h2.82v2.79h-2.82v-2.79zM38.21 7h2.46v15.9h-2.46V7zM58.43 19.301c-1.05 2.068-3.18 4.049-6.66 4.049-4.26 0-7.38-3.24-7.38-8.399 0-5.16 3.06-8.399 7.26-8.399 4.17 0 7.14 3.09 7.14 8.399v.72H46.851c.03 2.82 1.56 5.46 4.86 5.46 3.209 0 4.169-2.07 4.74-3.121l1.979 1.291zm-2.07-5.581c-.06-2.31-1.26-4.95-4.709-4.95-3.42 0-4.71 3-4.74 4.95h9.449zM62.45 1.001h2.49V22.9h-2.49V1.001zM80.272 21.369h-.06c-.66.781-2.28 1.98-4.649 1.98-4.2 0-6.9-3.299-6.9-8.399 0-5.19 3.06-8.399 6.9-8.399 2.16 0 3.6 1.02 4.41 1.979h.06V1.001h2.46V22.9h-2.22v-1.531zm-.24-8.669c0-1.83-1.44-3.93-4.08-3.93-3.18 0-4.83 2.31-4.83 6.18 0 3.87 1.65 6.181 4.83 6.181 2.4 0 4.08-1.682 4.08-3.51V12.7z"/><path fill="#FFC400" d="M86.842 1.901h8.91c3.81 0 6.18 2.58 6.18 5.64 0 1.92-.96 3.21-2.28 3.99v.03c1.71.72 3.061 2.37 3.061 4.799 0 1.92-.57 3.57-1.83 4.801-1.17 1.109-2.79 1.74-6.03 1.74h-8.01v-21zm8.4 8.459c1.62 0 2.64-.78 2.64-2.31 0-1.62-1.02-2.4-2.64-2.4h-4.35v4.71h4.35zm.539 8.79c1.591 0 2.881-.541 2.881-2.791 0-1.739-1.11-2.699-2.85-2.699h-4.92v5.49h4.889zM115.071 21.369h-.06s-1.11 1.98-4.32 1.98c-4.109 0-5.729-2.311-5.729-4.709 0-2.851 1.59-4.021 5.4-4.95 3.779-.93 4.109-1.26 4.109-2.16s-.81-1.68-2.7-1.68c-2.369 0-2.97 1.38-3.359 2.61l-3.24-1.35c.69-2.43 2.73-4.56 6.54-4.56 3.569 0 6.63 1.709 6.63 6.27V22.9h-3.271v-1.531zm-6.359-3c0 1.201.96 1.621 2.34 1.621 2.55 0 3.54-1.17 3.54-2.34v-2.76h-.061c-.18.33-.3.72-3.39 1.5-2.219.54-2.429 1.321-2.429 1.979zM123.052 10.3h-2.46V7h2.55V3.1h3.689V7h4.021v3.3h-3.96v6.571c0 1.59.33 2.279 2.13 2.279h1.29v3.75h-1.65c-4.439 0-5.609-1.891-5.609-5.67V10.3zM134.361 10.3h-2.46V7h2.55V3.1h3.689V7h4.021v3.3h-3.96v6.571c0 1.59.33 2.279 2.13 2.279h1.29v3.75h-1.65c-4.439 0-5.609-1.891-5.609-5.67V10.3zM158.21 19.811c-1.32 1.92-3.27 3.539-6.569 3.539-4.38 0-7.53-3.24-7.53-8.399 0-5.16 3.21-8.399 7.35-8.399s7.29 3.24 7.29 8.399v1.171h-10.68c.12 2.459 1.38 3.779 3.51 3.779 2.04 0 3.12-1.381 3.9-2.49l2.729 2.4zm-3.24-6.601c-.18-2.01-1.409-3.24-3.51-3.24-1.979 0-3.239 1.47-3.39 3.24h6.9zM161.9 7h3.69v1.68h.06a3.696 3.696 0 0 1 3.271-1.98c.479 0 .959.09 1.439.3l-.6 3.78c-.42-.15-.84-.24-1.23-.24-1.68 0-2.729 1.08-2.729 3.63v8.73h-3.9V7zM177.32 22.119L170.961 7h3.959l4.11 10.769h.06L183.2 7h3.96l-9.149 22.65h-3.87l3.179-7.531z"/></svg>