<svg xmlns="http://www.w3.org/2000/svg" width="512" height="432" viewBox="0 0 512 432"><path fill="#42A5F5" d="M6.167 300.793c31.597-25.801 41.948 3.154 92.598-2.686 70.781-8.145 33.535-50.596 15.918-73.164 19.297 4.863 21.348-14.824 36.25-13.281 12.539 1.299 11.035 12.773 13.291 38.818 15.781-1.436 24.658-57.158 4.902-62.646-10.361-2.881-26.26 8.267-31.436 13.13-21.025 19.741-28.672-.503-25.078-11.133 9.727-3.696 13.398 4.98 17.891-1.597.938-1.382 2.764-6.831 2.617-6.821.537-5.4 0-10.903-2.969-15.571-2.754-4.302-6.68-7.9-9.805-11.919-4.395-5.698-3.574-16.279-7.637-22.5-4.814-7.358-11.328-9.6-19.414-12.5-4.141-1.47-8.579-2.7-12.998-2.441-3.984.2-6.904 2.642-10.981 2.002-2.671-.42-4.751-2.241-6.802-3.872-5.498-4.399-10.498-8.999-16.851-13.848-4.019 9.468-.728 20.356-.347 29.917.42 10.801-2.632 22.202-9.683 30.82-1.099 1.304-4.868 3.521-8.237 7.9-3.54 4.619-7.632 10.649-10.64 16.699-3.73 7.5-8.604 16.25-10.161 19.858-3.56 8.232-2.031 20.664 1.421 22.148 15.376 6.66 18.467-2.852 36.06-8.125-5.142 17.998-18.584 27.402-36.553 37.695 30.322 10.781 47.041-20.781 52.183-37.695 4.199 11.797 21.567 20.068 15.557 40.4-4.57 15.459-13.066 13.545-33.14 11.826-20-1.699-36.099 10.635-35.947 28.574l-.009.012zm23.369-86.846c-1.841-22.656 9.878-35.464 21.157-29.033 5.723 19.717-2.359 26.699-21.157 29.033zM323 107.441c-2-.02-4.232 5.498-4.271 5.498l-4.161 11.24s-2.228 4.371-.929 6.402c1.191 1.85 3.773 2.1 5.619 2.9 9.854 4.297 33.694 14.697 37.991 16.996 3.662 1.954 2.848.812 3.082 4.854.166 3.037-.803 7.709 3.338 9.037 4.492 1.441 9.042 5.059 13.456 6.461 5.723 1.801 8.496 3.398 13.73 5.098 5.869 1.904 6.64 2.861 11.063-.797 1.24-1.039 3.07-4.398 3.9-5.801 1.412-2.318 3.883-2.803 6.93-1.898 2.143.629 4.482.547 5.043 2.797.357 1.49.602 8.311.602 10.039-.016 1.881-.4 3.76-.875 5.582-.928 3.711-2.26 7.338-3.695 10.879-1.494 3.672-3.711 7.402-3.131 11.504.377 2.773 1.559 5.371 1.777 8.164.094 1.094-.029 2.109-.879 2.861-1.42 1.279-2.891 2.031-3.422 4.004a18.232 18.232 0 0 0-.357 7.637c.43 2.607 2.252 4.775 2.148 7.48-.029 2.275.172 4.531-.629 6.748-.25.732-.611 1.406-.869 2.061-2.031 5.127-4.732 10.391-5.732 15.85-.82 4.541-.299 9.727-.299 14.385 0 .322-.102.635-.199.938 0 .088-.143.713-.201.928l-.098.283c-.072.225-.141.449-.244.654-.18.498-.297.762-.4 1.016l-.395.928c-.201.381-.303.625-.4.82l-.381.82c-.23.479-.361.723-.504.986-2.563 3.926-7.152 7.998-4.496 12.598 1.094 1.895 1.357 2.197 4.639 2.9 2.689.596 5.6.732 8.262 0 6.166-1.709 11.576-5.674 16.039-10.146 2.109-2.109 5.01-3.945 6.777-6.348 1.422-1.914.43-4.16.904-6.338.508-2.393.996-4.014 1.729-6.328.859-2.764 1.42-5.459 1.156-8.369-1.67-17.891-5.629-39.521 5.4-50.898 6.162 1.992 9.453 18.594 10.703 31.934.191 2.021 1.617 6.465 3.35 9.004.02.029 1.119 1.797 1.119 1.826.189 2.1-.859 4.365-1.26 6.396-.318 1.699-.02 11.738-.02 11.699.039.254.498 9.473 2.797 14.307.801 1.709 2.574 2.441 4.102 3.369 2.021 1.23 2.539 2.871 4.121 4.395.879.859 2.109 1.807 3.18 2.373 5.6 2.979 15.199-.889 17.299-5.732 2.373-5.449.221-11.416-.678-16.943-.918-5.635-2.359-11.025-4.258-16.436-.963-2.695-2.012-5.391-3.063-8.096-.732-1.885-2.631-3.691-2.631-3.76-.049-3.281.922-2.207 0-8.281-.699-4.414-11.881-39.4-12.197-44.531-.371-5.947-1.9-12.549-.904-18.551.439-2.578 1.191-5.15 2.344-7.5.24-.479 3.561-5.648 3.857-5.547 4.541.191 5.143 6.377 6.572 10.348 1.08 2.992 1.998 5.893 2.959 8.92 1.09 3.404 2.389 5.059 2.652 8.76.219 3.082 1.406 3.434 1.879 9.053.176 2.148 3.105 9.801 9.381 10 5 .156 10.43-3.402 12.328-3.9 1.559-.381 2.197-4.541 2.197-8.281 0-6.412-2.949-6.861-5.449-9.859-2.426-2.881-6.039-4.912-7.471-8.559-.938-2.402-.879-5.104-1.537-7.604-1.23-4.658-3.633-8.857-4.131-13.73-.518-4.76 3.652-5.658 4.301-9.058 1.031-5.268-7.002-16.602-10.801-18.1-5.092-2.002-7.709-2.031-12.051 1-4.131 2.871-5.648 4.971-8.848 1.768-2.861-2.846-6.449-15.697-20.332-15.697-4.887 0-10.668 3.197-13.33 7.221-2.299 3.477-2.998 9.248-6.699 10.977-3.432 1.602-6.771-1.689-9.701-3.139-6.607-3.291-13.262-.02-15.762 6.68-.82 2.201-1.211 4.502-1.543 6.801-.078.602-.186 5.899.02 6.001-.781-.464-2.91-1.44-3.584-2.06-1.064-1.002-1.777-2.1-2.744-3.199-.469-.551-.859-1.182-1.27-1.801-.469-.762-.928-1.529-1.377-2.301a57.728 57.728 0 0 0-1.553-2.559c-1.025-1.602-2.227-3.021-3.428-4.482-.996-1.24-2.021-2.211-3.564-2.68-.264-.068-1.963-.123-1.963-.449 0-1.354.713-3.219.117-4.502-1.104-2.33-7.705-4.869-9.795-5.65-3.32-1.23-3.184-1.211-6.953-.449-.84.172-2.715 1.383-3.574 1.002-2.539-1.152-17.341-9.469-24.841-12.672-1.641-.697-2.986-2.139-4.986-2.139v-.012z"/><path fill="#FFC400" d="M169 344.964c7-14.6 21.005-38.379 24.002-44.092.08-.818 3.194-6.03 3.194-6.03 2.813-5.97 5.702-11.907 8.613-17.835 2.875-5.9 5.207-13.249 9.369-18.322 2.277-2.801 2.658 2.326 4.959-.627 2.673-3.401 8.897-12.874 9.911-17.098 1.325-5.566-1.502-5.376-5.836-5.877-3.753-.451-6.452-2.074-8.087-5.664-2.502-5.463-.5-6.872.17-12.422.678-5.326.428-10.648.073-16.003-.122-1.872-.409-5.596 1.581-6.665 2.35-1.245 5.548 2.002 7.745 2.693 4.688 1.433 5.451-4.127 9.302-4.041 2.539.066 3.29 5.975 4.163 7.727 1.8 3.626 5.127 12.037 8.789 14.446 2.271 1.501 9.063.293 11.725.19.622-.024 6.226-3.723 5.298-4.939l-1.373-1.811c-1.301-1.588-1.624-4.951-1.85-6.873-.25-2.412-.299-4.902-.079-7.3.415-4.603 2.35-9.375 5.255-13.001 2.746-3.376 7.971-7.373 12.378-4.877 3.662 2.123 6.592 6.213 8.667 9.826a39.112 39.112 0 0 1 2.661 5.725c.781 2.148 1.196 4.427 1.27 6.727 0 .623-1.038 6.873-1.563 10.188-.306 1.873 4.468 3.248 6.445 3.223 1.94 0 8.276 2.776 11.719.787 7.446-4.297 8.765-9.625 10.571-13.287 1.782-3.625 4.004-7.209 6.25-10.57 2.417-3.626 4.395-.838 7.202.371 3.027 1.35 4.821.378 7.593-.75 5.566-2.277 4.272 5.877 4.761 8.977 1.538 9.852 3.638 14.449 1.94 24.227-1.745 2.922-9.424 5.474-13.122 7.622l2.295 6.823c6.116 4.566 9.985 9.424 11.597 12.5 9.021-.622 8.045-3.35 10.938 1.429 1.209 1.997.977 1.411 2.051 4.7.879 2.697 1.709 4.626 2.661 7.648.562 1.714 1.392 3.875 1.88 5.571.537 1.692 1.123 3.503 1.587 5.257.745 2.934 1.489 5.871 2.417 8.744 1.123 3.626 2.124 7.002 2.625 10.755.5 3.926.902 7.837 1.563 11.751 1.537 9.001 3.454 18.4 4.943 27.348 1.367 8.277 2.746 21.741 3.906 30.066-.623 5.969-12.5-19.189-14.539-24.695-2.123-5.749-7.751-16.174-10.424-23.62-.66-1.831-.794-4.834-1.99-6.274-5.2 3.809-15.503 4.614-18.335-2.215-1.953-4.748-1.722-9.875.354-14.525.964-2.161 2.575-3.902 3.625-6.002 1.063-2.123.244-3.576-.732-5.619-3.846-8.027-6.177-16.78-12.244-23.506-3.332-3.711-2.917-7.435-10.998-8.411-2.197-.249-4.761 2.399-5.981 4.304-.622.921-1.44 2.686-1.771 3.496-1.379 3.504-2.795 6.751-5.798 8.899-.843.599-.366.599-.684 1.68-.366 3.374-2.222 7.659-2.308 10.498 3.785.225 10.657-3.564 10.938 0 .062 0 2.1 7.3 2.1 7.3.586 7.036-8.959 7.476-8.252 12.439.379 3.125-.817-2.156 0 0 2.441 2.746 10.511 6.286 12 9.948 4.297 9.478 5.005 21.745 6.066 33.024 1.722 4.871 5.97 8.704 7.581 13.672.659 6.8 1.514 13.6 2.38 20.374l1.282 9.937c.403 3.271 1.294 5.249 2.588 8.252.843 1.953 1.66 3.906 2.588 5.835 1.892 3.968 4.541 7.63 6.042 11.78 1.307 3.601 2.527 9.045.867 12.756-.842 1.893-2.869 3.418-5.018 3.491-3.063.122-3.845-2.319-5.407-4.37a10.367 10.367 0 0 0-3.784-3.052c-3.149-1.501-6.994-1.452-9.497 1.172-2.185 2.246-3.052 6.079-6.702 6.421-4.089.415-6.53-3.491-6.652-7.092-.098-2.576.586-5.152.842-7.691.379-3.747.074-7.678-.085-11.462-.501-12.438-1.758-24.829-2.197-37.256-.488-1.465-2.661-5.065-2.832-5.042-5.054-5.785-7.568-10.949-8.74-14.782-.415-1.392-2.319-9.655-3.345-12.695-.708-2.075-2.246-4.932-3.32-6.836-.586-1.025-2.661-2.832-3.711-3.32-6.909-3.271-12.128 4.492-16.932 8.044-2.526 1.844-5.285 4.407-4.187 7.874 1.038 3.296 4.962 4.528 7.825 5.749 8.044 3.418 0 20.691-1.051 28.382-.677 4.87-3.002 8.179-4.602 12.817-1.685 4.834-5.298 8.703-.672 12.988 2.161 2.002 7.147 3.918 6.434 7.715-.909 4.785-9.375 8.496-13.172 10.412-6.402 3.26-12.176 3.504-19 5.299-4.211 1.11-16.54-.843-13.873-7.703 1.099-2.869 4.926-4.321 1.208-5.871-2.912-1.246-7.898.842-7.874.817-1.001-.098-1.501-1.196-1.788-2.173-.287-4.578 4.699-8.252 9.277-10.962 1.91-1.233 9.497-2.588 9.576-2.93.25-1.221.659-4.419 2.35-9.375 3.247-16.504 9.162-24.683 7.996-26.782-1.038-1.867-13.837-2.246-13.458-6.836.25-3.125 1.624-8.533 2.649-12.378.922-3.431 1.721-5.114 2.997-8.398a159.63 159.63 0 0 0 2.93-7.935c.494-1.489 1.532-3.564 2.246-4.956 3.875-7.666 4.828-10.327 12.823-13.452.189-.342 2.087-2.954.556-3.85-1.129-.647-2.539-.85-2.753-.977-3.54-2.125-3.601-4.5-3.9-8.398-.177-2.327.324-4.5 1.624-6.502 1.916-3.027 5.249.024 8.123-.725-1.159-3.499-.244-11.813-1.349-16.211-6.171-5.062-5.249-6.787-9.625-11.25 0 0-2.124-1.25-2.161-1.123-.5 1.123-5.322 9.924-6.787 13.874-1.336 3.626-7.19 10.974-9.79 14.909-2.124 3.199-4.559 5.592-6.75 9.505-.897 1.599-1.221 1.909-2.411 3.423-2.472 3.162 1.44 4.834 2.148 8.247.775 3.691-1.27 9.844-3.784 12.871-1.965 2.38-8.374 5.456-11.45 4.248-3.125-1.147-5.951-2.49-8.001-5.042-1.221-1.525-.671-1.672-1.697-.402-3.729 4.627-5.463 9.619-8.875 14.502-1.978 2.832-3.967 5.664-6.067 8.374-5.786 7.52-.458.415-6.25 8.008-.598.866-6.622 8.813-8.02 10.498-.592.647-5.294 4.896-6.167 5.335.72-2.82 5.618-13.416 5.618-13.782v.072z"/><path fill="#42A5F5" d="M352.088 7.265c31.722 0 57.436 20.746 57.436 46.336 0 10.213-4.105 19.649-11.045 27.307l10.673 26.534-45.23-9.092c-4.726.128-10.021 1.272-15.323 1.413-.601.016-1.2.024-1.794.024-30.753 0-52.151-21.082-52.151-46.185-.002-25.591 25.712-46.337 57.434-46.337m0 12.564c-24.742 0-44.871 15.15-44.871 33.772 0 19.167 17.018 33.621 39.587 33.621.485 0 .973-.006 1.463-.019 2.121-.056 4.44-.345 6.896-.649 2.715-.337 5.521-.685 8.419-.764l1.421-.039 1.396.28 22.413 4.506-1.988-4.941-2.936-7.296 5.281-5.829c3.555-3.922 7.791-10.379 7.791-18.87-.001-18.622-20.13-33.772-44.872-33.772zM193.274 57.515c31.62 0 57.25 20.679 57.25 46.187 0 25.022-21.329 46.036-51.982 46.036-.592 0-1.19-.008-1.789-.023-5.285-.14-10.563-1.28-15.273-1.408l-45.085 9.063 10.639-26.448c-6.917-7.633-11.009-17.038-11.009-27.218-.001-25.51 25.629-46.189 57.249-46.189m0 12.523c-24.663 0-44.727 15.101-44.727 33.664 0 8.463 4.223 14.9 7.766 18.809l5.264 5.81-2.927 7.273-1.981 4.925 22.34-4.49 1.391-.28 1.417.039c2.888.078 5.685.425 8.392.762 2.448.303 4.759.59 6.873.646.489.013.975.019 1.459.019 22.496 0 39.459-14.406 39.459-33.512 0-18.564-20.063-33.665-44.726-33.665z"/></svg>