<svg xmlns="http://www.w3.org/2000/svg" width="232" height="232" viewBox="0 0 232 232"><path fill-rule="evenodd" clip-rule="evenodd" fill="#42A5F5" d="M196 147.827V84.173c18.828-3.822 33-20.467 33-40.423 0-22.782-18.469-41.25-41.25-41.25S146.5 20.968 146.5 43.75c0 20.131 14.425 36.885 33.5 40.513v63.475a40.995 40.995 0 0 0-14.178 5.58c-7.593-6.11-7.542-6.038-10.822-9.317-22.043-22.043-44.741-45.741-66-67-3.496-3.496-6.375-6.313-10.545-10.966A41.052 41.052 0 0 0 85 43.75C85 20.968 66.531 2.5 43.75 2.5S2.5 20.968 2.5 43.75c0 20.131 14.425 36.885 33.5 40.513v63.475c-19.075 3.628-33.5 20.382-33.5 40.513 0 22.781 18.469 41.25 41.25 41.25S85 211.031 85 188.25c0-19.956-14.172-36.601-33-40.423V84.173c5.034-1.021 11.001-3.749 15.188-6.423C70.993 80.898 73.064 83.611 77 88c21 23.417 44.741 45.741 66 67 3.388 3.388 6.969 6.313 10.319 10.539a41.047 41.047 0 0 0-6.819 22.711c0 22.781 18.469 41.25 41.25 41.25S229 211.031 229 188.25c0-19.956-14.172-36.601-33-40.423z"/></svg>