<svg xmlns="http://www.w3.org/2000/svg" width="180" height="212" viewBox="0 0 180 212"><path fill-rule="evenodd" clip-rule="evenodd" fill="#FFC400" d="M173.271 2c-4.662 29.671-9.361 60.12-31.293 72.521C139.041 103.584 124 120.23 95 123.167V154h31.75c0 7.667.088 16.286.088 23.953L151 178v32H31v-32h24v-24h30.751c.355-8.497.088-20.915.298-30.954C58.797 118.297 41.552 104.199 38.751 75 17.76 61.657 9.048 34.015 6.751 4c-.051-.665 0-1.333 0-2 19.603 0 156.02-.12 166.52 0zM39 65V10c-8 .105-15.273-.136-23.333-.125C20.61 30.931 23 54.451 39 65zm7.292-52c1.078 24.588-2.313 53.646 2 75 8.685 35.808 78.916 33.575 84-1 4.422-21.912.844-51.823 2-77h-87c-1.166.168-1.086 1.581-1 3zM142 65c15-10.525 20.309-31.649 23.291-55H142v55zm-79 97v16h56v-16H63zm-24.677 24l-.031 16H143v-16H38.323z"/></svg>