<svg xmlns="http://www.w3.org/2000/svg" width="260" height="180" viewBox="0 0 260 180"><path fill="none" stroke="#FFC400" stroke-width="8" stroke-linejoin="round" stroke-miterlimit="10" d="M254 172.763c0 1.048-1.05 2.237-2.102 2.237H8.333C7.283 175 6 173.811 6 172.763V5.956C6 4.908 7.283 5 8.333 5h243.565c1.052 0 2.102-.092 2.102.956v166.807z"/><path fill="none" stroke="#FFC400" stroke-width="8" stroke-linejoin="round" stroke-miterlimit="10" d="M254 130.663c0 .782-.877 1.337-1.664 1.337H70.198c-.786 0-2.198-.555-2.198-1.337V5.923C68 5.139 69.412 5 70.198 5h182.138c.787 0 1.664.139 1.664.923v124.74z"/><path fill="none" stroke="#FFC400" stroke-width="8" stroke-linejoin="round" stroke-miterlimit="10" d="M254 91.521c0 .538-.54 1.479-1.079 1.479H127.833c-.539 0-.833-.941-.833-1.479V5.854c0-.539.294-.854.833-.854h125.088c.539 0 1.079.315 1.079.854v85.667z"/><path fill="none" stroke="#FFC400" stroke-width="8" stroke-linejoin="round" stroke-miterlimit="10" d="M254 52.198c0 .442-.262.802-.584.802h-67.831c-.323 0-.584-.359-.584-.802V5.802c-.001-.443.261-.802.583-.802h67.831c.323 0 .585.359.585.802v46.396z"/></svg>