<svg viewBox="0 0 1280 1280" xmlns="http://www.w3.org/2000/svg" fill-rule="evenodd" clip-rule="evenodd" stroke-linejoin="round" stroke-miterlimit="2"><path d="M692.253 238.51c-3.67-17.345-6.532-36.226-17.792-50.73-15.866-20.435-20.392-24.52-41.968-38.778-3.997-2.64-8.336-4.77-12.75-6.634-35.58-15.018-63.51 5.346-88.86 29.578-11.342 10.843-21.16 21.704-27.54 36.242-5.812 13.243-9.503 31.446-12.647 44.429a177.605 177.605 0 00-2.914 5.56c-25.16-11.204-66.23-35.888-70.505-38.472-15.467-14.262-35.973-26.421-57.86-24.581-51.102 4.295-82.661 62.946-65.8 109.475-14.888 8.385-29.17 17.874-42.977 27.937a578.666 578.666 0 00-43.827 35.318c-10.734 9.551-20.407 20.238-30.315 30.644-16.291 17.109-35.84 41.205-31.845 66.724 2.43 15.523 11.777 28.297 22.31 39.536-4.057 22.01-9.949 41.75-12.172 64.108-4.109 41.339 4.606 82.677 12.361 122.955 6.574 34.139 18.94 64.994 37.528 94.317 12.372 19.515 27.58 39.503 50.686 46.486 15.78 4.77 34.57-2.014 50.06-2.38 3.158-.075 8.492 3.54 8.642 7.115.09 2.142-5.323 6.594-6.605 7.553-3.975 2.974-8.281 5.503-12.149 8.615-9.792 7.88-14.91 13.273-22.477 23.224-6.568 8.638-12.5 17.748-19.097 26.362-8.623 11.259-24.69 28.668-31.948 41.003-16.575 28.175-25.31 60.571-27.092 93.1-1.14 20.847-2.17 56.63 18.09 71.256 20.665 14.926 46.483 18.757 68.666 31.014 5.046 2.79 9.075 7.186 14.11 9.998 9.254 5.16 17.99 7.419 28.624 6.655 31.108-2.226 55.442-27.925 76.927-47.622 20.585-18.878 43.012-36.312 55.616-61.938 4.08-8.295 17.42-40.894 21.094-52.983 4.437-14.612 2.34-14.98 7.447-29.169 1.274-3.54 5.522-18.51 12.39-19.42 4.325-.572 4.104 11.038 4.134 11.521.573 9.233.585 18.502 1.445 27.711 2.368 25.327 17.782 39.184 41.609 45.374 41.719 10.838 84.658-1.395 126.355-4.433 17.7-1.29 35.486-.805 53.226-1.338 29.662-.89 71.701-.61 84.564-34.111 1.46-3.799 2.304-7.855 2.71-11.903.598-5.952.743-11.979.288-17.942 14.563 17.768 36.735 28.91 56.668 38.9 15.531 7.784 40.723 19.792 59.106 24.783 17.977 4.88 41.11 9.392 58.712-.233 12.346-6.75 16.376-19.973 26.515-28.926 2.879-2.542 6.702-3.766 9.935-5.833 14.915-9.515 32.72-20.508 39.86-37.812 7.718-18.688 2.381-44.314-3.531-62.622-15.922-49.277-56.539-80.252-93.886-112.917-15.091-13.2-30.271-26.302-45.117-39.777-2.05-1.861-5.025-5.76-3.542-9.01 10.56-23.14 34.075-41.854 53.259-56.631 1.747-1.345 2.852 2.677 2.918 2.98.46 2.072.548 4.22 1.033 6.286 1.838 7.855 4.057 17.462 9.24 24.03 14.538 18.42 39.977 27.862 62.797 21.152 22.277-6.548 39.694-28.218 53.191-45.093 5.282-6.596 10.23-13.515 14.339-20.895 19.797-35.57 34.545-86.818 8.06-123.262-5.38-9.15-9.743-20.7-13.508-30.566-15.512-40.678-31.423-81.21-46.36-122.103 4.064-6.154 7.585-12.739 10.231-19.625 2.713-7.06 4.385-14.512 5.769-21.95 6.533-35.135-27.537-57.367-55.45-69.105-20.818-17.357-47.938-26.926-74.201-32.089 5.037-18.182 6.813-33.278 5.692-52.134-2.976-50.106-58.217-75.534-102.357-58.383-29.95 11.637-52.211 34.858-77.801 53.303-26.722 19.262-53.63 38.306-81.314 56.157z" fill="none" stroke="#42a5f5" stroke-width="19.996573799999997"/><path d="M288.107 796.322c-11.994-4.244-62.977-46.501-69.755-76.399-7.699-33.955-27.898-119.111-17.716-159.44 6.24-24.712 14.579-55.177 11.072-70.863-2.883-12.898-22.341-12.52-22.144-25.467.587-38.507 126.702-132.53 158.334-133.975 31.63-1.443-34.556-31.096-8.858-75.291 18.302-31.477 44.742-6.123 49.825-1.107 5.083 5.015 80.383 48.428 105.187 53.147 24.41 4.643 29.342-24.728 35.431-33.217 6.09-8.49 8.89-38.314 14.394-47.611 8.305-14.026 30.646-40.028 46.504-45.397 15.858-5.369 54.442 35.669 55.361 47.611.92 11.943 7.987 43.093 9.966 46.504 1.978 3.411 30.135 14.138 40.967 12.18 10.832-1.96 149.659-102.06 163.87-112.938 19.137-14.65 42.296-2.112 46.504 6.643 6.579 13.69 2.24 38.729-4.43 55.362-6.61 16.489-26.957 34.116-23.251 38.753 2.546 3.184 79.591 1.104 115.002 31.253 14.223 12.108 40.807 12.102 40.01 29.645-.764 16.91-13.497 27.432-19.93 37.645-6.432 10.213 61.186 175.39 70.863 187.122 9.677 11.732 5.26 43.917-1.107 60.898-6.367 16.98-43.625 63.548-54.255 60.898-30.838-7.688-3.399-54.439-6.643-62.005-5.016-11.712-13.255 11.52-24.36-2.215-10.201-12.618 16.681-37.883 21.038-46.503 4.363-8.621 5.038-32.843-7.75-38.754-12.792-5.91-12.605-7.563-18.823 0-6.219 7.564 9.186 25.326 3.321 35.432-5.865 10.106 1.105 26.598-12.18 23.252-13.284-3.346-52.255-60.833-43.181-84.15 9.074-23.317-3.232-54.9-4.43-64.22-1.196-9.319-5.442-1.103-16.608 0-22.492 2.224-29.258-31.302-29.895-42.074-.7-11.862-53.889-47.318-57.576-40.967-3.687 6.35-40.701 40.179-62.005 43.182-20.627 2.907-9.51 46.168-22.144 59.79-12.634 13.622 146.266 161.287 155.012 197.087 8.746 35.8-31.366 41.519-37.646 45.396-6.28 3.878 13.825 58.325 24.36 63.112 21.845 9.929 117.37 102.093 124.009 120.689 7.44 20.85 7.474 41.464 6.643 52.04-.83 10.574-104.721-62.503-108.508-55.362-3.787 7.14 66.218 85.073 52.04 96.329-14.178 11.256-111.565-37.11-119.581-52.04-10.828-20.166-44.068-38.992-47.611-53.147-2.384-9.522.694-30.024-3.322-39.86-5.287-12.952-56.957-57.89-73.077-47.611-6.515 4.153 59.045 175.818 45.397 186.014-13.65 10.197-80.867-18.808-115.152 5.537-31.088 22.074-100.412 7-105.187 1.107-4.776-5.893 3.441-178.933-7.75-181.586-21.337-5.058-42.675 45.488-43.183 58.683-.508 13.195-19.705 41.038-24.359 49.826-4.654 8.788-17.057 25.847-27.68 37.645-8.844 9.822-.25 21.914-5.537 28.788-5.286 6.875-16.767 55.183-28.788 65.327-12.021 10.144-76.234 77.916-91.9 69.756-15.666-8.16-10.104-26.23-5.536-39.86 4.568-13.626 29.214-56.536 25.466-67.542-3.748-11.006-75.913 94.668-88.578 81.935-19.102-19.21-5.306-60.607-3.322-71.97 3.568-20.43 8.226-45.77 23.252-58.683 16.486-14.166 42.762-64.626 68.648-78.613 16.039-8.667 14.564-33.765 17.716-48.718 2.493-11.83 4.223-43.782 13.287-58.684 2.18-3.585 21.383-31.096 20.425-38.829-2.239-18.08-28.831-8.577-31.302-21.229-6.46-33.1 36.698-73.833 48.523-92.74 21.923-35.054 36.126-85.213 59.79-98.543 24.152-13.604 32.452-44.699 25.466-65.326-6.985-20.628-21.688-22.367-42.074-33.217-20.387-10.85-25.106-10.519-35.432-15.501-10.326-4.983-61.998 50.931-68.648 75.291-3.276 12.003-8.714 39.93-12.18 49.826-3.465 9.896-22.214-6.81-25.466 4.428-3.252 11.239 25.343 52.728 19.93 75.292-6.504 27.112 12.463 88.306-5.536 99.65-18 11.345-35.126-33.423-36.539-47.61-1.412-14.187 12.956-39.339 0-40.968-12.955-1.628-13.665 43.52-18.822 56.47-5.158 12.948 20.095 67.577 27.68 76.398 7.586 8.821 6.459 48.533-5.536 44.29z" fill="#ffc400"/></svg>