<svg xmlns="http://www.w3.org/2000/svg" width="256" height="256" viewBox="0 0 256 256"><g fill-rule="evenodd" clip-rule="evenodd" fill="#42A5F5"><path d="M24 5c37.833-1.636 195.167-.5 208 0 12.775.498 24 11.215 24 24v149c0 16.568-25.478 24.305-39.25 24.333-22.396.046-53.307-.316-57.978.149-3.009 5.699 2.54 16.985-6.585 17.83-9.495.879-40.688.438-47.563-.063-5.67-.412-6.479-10.703-6.625-18.25-38.022-2.645-91 9.667-98-24V29C1.917 16.359 11.227 5.552 24 5zm-4 53v68c0 9.475-.948 29.168 2 33 5.515 7.168 206.816 6.738 212 0 3.644-4.735 2-55.384 2-66 0-13.072 1.333-61.5-3-66-3.065-3.184-15.123-2-24-2H79c-12.943 0-45.12-.17-53 1-6.885 1.022-6 20.099-6 32zm209.583 132.167c11.087 0 11.06-15.002-1.168-14.146-10.415.73-7.498 14.146 1.168 14.146z"/><path d="M136 53c-2.631 12.369-6.232 23.769-10 35-9.231-7.476-28.403-7.307-40-2 2.98-12.354 6.692-23.793 10-36 11.584-4.885 32.25-6.299 40 3zM142 57c9.732 7.791 27.034 8.114 40 3-1.469 5.928-10.542 36.917-10.542 36.917S156.285 100.634 149 100c-6.747-.587-12.54-5.168-16.899-7.667C134.976 79.875 138.751 69.085 142 57zM124 95c-3.094 12.587-6.803 23.864-10 36-9.105-6.702-28.897-8.202-40-2 2.819-12.45 6.087-22.445 9-35 9.917-6.615 32.435-7.045 41 1zM130.292 98.542c6.035 2.784 10.753 6.714 16.936 7.607 8.642 1.248 14.472-1.317 22.772-2.274-1.855 5.482-10.208 35.208-10.208 35.208S143.617 142.813 136 142c-6.37-.681-11.964-4.886-15.923-7.335 2.869-12.585 7.167-24.078 10.215-36.123zM207 251H49c-3.728-24.566 21.205-20 44-20h76c23.516 0 42.663-3.146 38 20z"/></g></svg>