<svg viewBox="0 0 352 352" xmlns="http://www.w3.org/2000/svg" xml:space="preserve" fill-rule="evenodd" clip-rule="evenodd" stroke-linejoin="round" stroke-miterlimit="2"><path fill="none" d="M0 0h352v352H0z"/><path d="m231.326 326.161-4.05-15.191 4.05 15.191Zm-106.495-15.532-.019.052a5.67 5.67 0 0 0-.088.289l-4.05 15.191 4.05-15.191a3.86 3.86 0 0 1 .107-.341Zm-11.642 12.552C56.07 298.751 16 242.018 16 176 16 87.694 87.694 16 176 16s160 71.694 160 160c0 66.018-40.07 122.751-97.189 147.181l-3.805-14.272a11.92 11.92 0 0 0-.441-1.335C284.886 285.122 320 234.629 320 176c0-79.476-64.524-144-144-144S32 96.524 32 176c0 58.629 35.114 109.122 85.435 131.574-.172.434-.32.879-.441 1.335l-3.805 14.272Zm113.98-12.552c.018.049.034.098.05.147l-.031-.095-.019-.052Z" fill="url(#a)"/><path d="m120.674 326.161 3.112-11.673-3.112 11.673Zm-7.485-2.98C56.07 298.751 16 242.018 16 176 16 87.694 87.694 16 176 16s160 71.694 160 160c0 66.018-40.07 122.751-97.189 147.181l-3.805-14.272a11.92 11.92 0 0 0-.441-1.335C284.886 285.122 320 234.629 320 176c0-79.476-64.524-144-144-144S32 96.524 32 176c0 58.629 35.114 109.122 85.435 131.574-.172.434-.32.879-.441 1.335l-3.805 14.272Zm126.184-13.42C289.384 286.01 324 235.015 324 176c0-81.683-66.317-148-148-148S28 94.317 28 176c0 59.015 34.616 110.01 84.627 133.761l-2.095 7.858C57.102 292.855 20 238.726 20 176 20 89.901 89.901 20 176 20s156 69.901 156 156c0 62.726-37.102 116.855-90.532 141.619l-2.095-7.858Z" fill="#fde1b8" fill-opacity=".5"/><path d="M138.357 300.457C84.939 284.301 46 234.662 46 176c0-71.749 58.251-130 130-130s130 58.251 130 130c0 58.662-38.939 108.301-92.358 124.457-2.701-.396-6.043-1.341-9.637-3.4a131.48 131.48 0 0 1-2.823-1.664C256.452 283.775 298 234.701 298 176c0-67.334-54.666-122-122-122S54 108.666 54 176c0 58.701 41.548 107.775 96.825 119.395-.91.548-1.854 1.103-2.83 1.662-3.594 2.059-6.937 3.004-9.638 3.4Z" fill="url(#b)"/><path d="M138.357 300.457C84.939 284.301 46 234.662 46 176c0-71.749 58.251-130 130-130s130 58.251 130 130c0 58.662-38.939 108.301-92.358 124.457-2.701-.396-6.043-1.341-9.637-3.4a131.48 131.48 0 0 1-2.823-1.664C256.452 283.775 298 234.701 298 176c0-67.334-54.666-122-122-122S54 108.666 54 176c0 58.701 41.548 107.775 96.825 119.395-.91.548-1.854 1.103-2.83 1.662-3.594 2.059-6.937 3.004-9.638 3.4Zm68.266-4.275C260.273 282.531 300 233.868 300 176c0-68.437-55.563-124-124-124S52 107.563 52 176c0 57.868 39.726 106.531 93.377 120.182-2.526 1.233-4.873 1.895-6.874 2.228h-.002C86.128 282.365 48 233.6 48 176c0-70.645 57.355-128 128-128 70.645 0 128 57.355 128 128 0 57.6-38.128 106.365-90.501 122.41-2.002-.333-4.35-.995-6.876-2.228Z" fill="#fde1b8" fill-opacity=".5"/><path d="M174.824 86.854a2.002 2.002 0 0 1 2.352 0l83.244 60.48c.7.51.994 1.412.726 2.236l-13.925 42.857a2 2 0 0 1-3.316.796l-24.06-24.061a2.005 2.005 0 0 1-.554-1.061C215.564 147.579 197.587 132 176 132c-21.587 0-39.564 15.579-43.291 36.101a2.005 2.005 0 0 1-.554 1.061l-24.06 24.061a2.001 2.001 0 0 1-3.316-.796L90.854 149.57a2.001 2.001 0 0 1 .726-2.236l83.244-60.48Z" fill="url(#c)"/><path d="M176 132c-21.587 0-39.564 15.579-43.291 36.101a2.005 2.005 0 0 1-.554 1.061l-24.06 24.061a2.001 2.001 0 0 1-3.316-.796L90.854 149.57a2.001 2.001 0 0 1 .726-2.236l83.244-60.48a2.002 2.002 0 0 1 2.352 0l83.244 60.48c.7.51.994 1.412.726 2.236l-13.925 42.857a2 2 0 0 1-3.316.796l-24.06-24.061a2.005 2.005 0 0 1-.554-1.061C215.564 147.579 197.587 132 176 132v-4c23.333 0 42.799 16.686 47.107 38.767l21.319 21.32 12.467-38.371L176 90.944l-80.893 58.772 12.467 38.371 21.319-21.32C133.201 144.686 152.667 128 176 128v4Z" fill="#fde1b8" fill-opacity=".5"/><path d="m124.724 310.97-4.133 15.502a4.001 4.001 0 0 0 2.575 4.817C139.743 336.935 157.517 340 176 340c18.483 0 36.257-3.065 52.834-8.711a4.001 4.001 0 0 0 2.575-4.817l-4.133-15.502a4 4 0 0 0-4.985-2.81s-10.135 2.785-22.262-4.161c-12.918-7.399-21.354-14.973-21.354-14.973a4 4 0 0 0-5.41.055s-7.557 7.049-21.294 14.918c-12.127 6.946-22.262 4.161-22.262 4.161a4.001 4.001 0 0 0-4.985 2.81Z" fill="url(#d)"/><path d="m124.724 310.97-4.133 15.502a4.001 4.001 0 0 0 2.575 4.817C139.743 336.935 157.517 340 176 340c18.483 0 36.257-3.065 52.834-8.711a4.001 4.001 0 0 0 2.575-4.817l-4.133-15.502a4 4 0 0 0-4.985-2.81s-10.135 2.785-22.262-4.161c-12.918-7.399-21.354-14.973-21.354-14.973a4 4 0 0 0-5.41.055s-7.557 7.049-21.294 14.918c-12.127 6.946-22.262 4.161-22.262 4.161a4.001 4.001 0 0 0-4.985 2.81Zm98.687 1.03c-.602.176-.184.326.084.315l4.049 15.187C211.372 333.011 194.032 336 176 336c-18.032 0-35.372-2.989-51.544-8.498l4.049-15.187c.268.011.686-.139.084-.315l.06.017s11.54 3.34 25.31-4.547c14.223-8.147 22.035-15.464 22.035-15.464L176 292l.003.003s8.701 7.828 22.038 15.467c13.77 7.887 25.31 4.547 25.31 4.547l.06-.017Z" fill="#fde1b8" fill-opacity=".5"/><defs><radialGradient id="a" cx="0" cy="0" r="1" gradientUnits="userSpaceOnUse" gradientTransform="matrix(69.4874 335.751 -1033.89 204.082 135.369 16)"><stop offset="0" stop-color="#dfaa90"/><stop offset=".13" stop-color="#daa387"/><stop offset=".17" stop-color="#cf9172"/><stop offset=".21" stop-color="#c27e5b"/><stop offset=".35" stop-color="#bc7754"/><stop offset=".42" stop-color="#954b28"/><stop offset=".55" stop-color="#9a512d"/><stop offset=".68" stop-color="#a6603a"/><stop offset=".84" stop-color="#953"/><stop offset="1" stop-color="#72361d"/></radialGradient><radialGradient id="b" cx="0" cy="0" r="1" gradientUnits="userSpaceOnUse" gradientTransform="matrix(69.4874 335.751 -1033.89 204.082 135.369 16)"><stop offset="0" stop-color="#dfaa90"/><stop offset=".13" stop-color="#daa387"/><stop offset=".17" stop-color="#cf9172"/><stop offset=".21" stop-color="#c27e5b"/><stop offset=".35" stop-color="#bc7754"/><stop offset=".42" stop-color="#954b28"/><stop offset=".55" stop-color="#9a512d"/><stop offset=".68" stop-color="#a6603a"/><stop offset=".84" stop-color="#953"/><stop offset="1" stop-color="#72361d"/></radialGradient><radialGradient id="c" cx="0" cy="0" r="1" gradientUnits="userSpaceOnUse" gradientTransform="matrix(69.4874 335.751 -1033.89 204.082 135.369 16)"><stop offset="0" stop-color="#dfaa90"/><stop offset=".13" stop-color="#daa387"/><stop offset=".17" stop-color="#cf9172"/><stop offset=".21" stop-color="#c27e5b"/><stop offset=".35" stop-color="#bc7754"/><stop offset=".42" stop-color="#954b28"/><stop offset=".55" stop-color="#9a512d"/><stop offset=".68" stop-color="#a6603a"/><stop offset=".84" stop-color="#953"/><stop offset="1" stop-color="#72361d"/></radialGradient><radialGradient id="d" cx="0" cy="0" r="1" gradientUnits="userSpaceOnUse" gradientTransform="matrix(69.4874 335.751 -1033.89 204.082 135.369 16)"><stop offset="0" stop-color="#dfaa90"/><stop offset=".13" stop-color="#daa387"/><stop offset=".17" stop-color="#cf9172"/><stop offset=".21" stop-color="#c27e5b"/><stop offset=".35" stop-color="#bc7754"/><stop offset=".42" stop-color="#954b28"/><stop offset=".55" stop-color="#9a512d"/><stop offset=".68" stop-color="#a6603a"/><stop offset=".84" stop-color="#953"/><stop offset="1" stop-color="#72361d"/></radialGradient></defs></svg>