<svg viewBox="0 0 352 352" xmlns="http://www.w3.org/2000/svg" xml:space="preserve" fill-rule="evenodd" clip-rule="evenodd" stroke-linejoin="round" stroke-miterlimit="2"><path fill="none" d="M0 0h352v352H0z"/><path d="M234.298 327.049c14.945 2.211 28.599 2.442 41.509 1.418-26.126 8.791-37.805 9.152-63.768 11.719v.002a37.1 37.1 0 0 1-18.22-2.687l-1.055-.442a164.812 164.812 0 0 0 39.487-8.988 10.089 10.089 0 0 0 2.047-1.022Zm-116.563-.002c-14.947 2.212-28.606 2.445-41.522 1.42 26.126 8.791 37.805 9.152 63.768 11.719v.002a37.105 37.105 0 0 0 18.221-2.687l1.068-.447a165.234 165.234 0 0 1-39.502-8.991 10.006 10.006 0 0 1-2.033-1.016Zm15.754-2.981a157.435 157.435 0 0 0 20.998 4.363 157.836 157.836 0 0 1-20.998-4.363Zm-20.043-8.266c.59-6.174.446-11.535-.135-16.132a142.742 142.742 0 0 1-6.475-.153c-40.986-1.643-61.365-9.292-74.423-14.759a168.07 168.07 0 0 0 31.049 19.116l1.656.803 1.733.766a170.394 170.394 0 0 0 36.714 11.777 138.28 138.28 0 0 0 9.881-1.418Zm125.284-16.132c2.151-.002 4.303-.053 6.454-.153 40.986-1.643 61.365-9.292 74.423-14.759a168.07 168.07 0 0 1-31.049 19.116l-1.655.803-1.734.766a170.386 170.386 0 0 1-36.713 11.777 139.162 139.162 0 0 1-9.86-1.414c-.591-6.175-.447-11.535.134-16.136Zm-116.945 11.06.007-.203-.007.203-.002.075-.014.389c.006-.155.012-.309.016-.464Zm.038-3.756-.004-.234.004.234v.029l.001.052V307.136l.001.047.001.06v.069l.001.053v.068l.001.115v.099l.001.084V308.284l-.001.185-.001.186-.002.186-.002.187-.001.102-.001.086-.002.102-.001.086-.001.071-.003.117-.001.064-.001.039v.024l-.006.252.006-.252.001-.063.002-.122.002-.059.002-.136v-.045l.003-.147v-.036l.002-.155v-.028l.002-.161v-.023l.001-.165v-.02l.001-.165v-.021l.001-.163v-.399l-.001-.144v-.178l-.001-.056-.001-.121v-.069l-.002-.107v-.083l-.001-.081Zm-.064-2.331-.01-.225.01.225.001.029.003.074.002.053.003.063.003.077.002.051.002.064.003.076.002.052.002.064.002.074.002.055.002.064.002.07.002.059.002.064.002.067.002.063.002.064.001.063.002.067.001.027.005.233-.005-.233-.003-.094-.002-.095-.003-.095-.003-.101-.003-.089-.003-.106-.003-.083-.004-.112-.002-.078-.005-.114-.002-.077-.005-.114-.003-.079-.004-.103Zm-.101-1.848.007.111.009.143.009.143.009.144.004.066.005.078.004.074.004.07.004.082.004.063.004.09.003.055.002.025.011.226-.011-.226-.003-.053-.004-.069-.004-.083-.004-.063-.005-.089-.003-.057-.005-.095-.003-.052-.006-.101-.003-.045-.007-.109-.002-.037-.009-.146-.01-.145Zm139.716-18.037h9.486a107.516 107.516 0 0 0 27.729-3.861c18.898-12.798 34.892-30.633 46.655-52.027l-.003.003c-18.75 20.043-45.373 35.473-68.823 43.148a142.943 142.943 0 0 1-15.044 12.737Zm-170.727 0H81.16a107.503 107.503 0 0 1-27.728-3.861c-18.899-12.798-34.892-30.633-46.655-52.027l.002.003c18.75 20.043 45.373 35.473 68.823 43.148a142.852 142.852 0 0 0 15.045 12.737Zm206.073-37.667c12.572-6.093 22.112-10.387 37.578-25.626 9.013-17.291 12.499-31.798 10.291-55.461-6.888 25.379-15.943 37.279-36.182 58.007a132.514 132.514 0 0 1-11.687 23.08Zm-241.42 0c-12.572-6.093-22.112-10.387-37.577-25.626-9.013-17.291-12.5-31.798-10.292-55.461 6.888 25.379 15.943 37.279 36.183 58.007a132.44 132.44 0 0 0 11.686 23.08ZM328.62 90.947l-.001-.005v.003l.001.002c3.139 24.38-2.12 56.442-11.459 77.125.179 2.779 0 6.359 0 9.172 0 4.258-.207 8.47-.613 12.62 9.062-10.552 17.301-26.582 22.834-38.754l.001-.003c1.782-24.479-1.172-37.57-10.763-60.16Zm-305.22 0 .001-.005v.003l-.001.002c-3.138 24.38 2.12 56.442 11.459 77.125-.179 2.779 0 6.359 0 9.172 0 4.258.208 8.47.613 12.62-9.061-10.552-17.301-26.582-22.834-38.754l-.001-.003c-1.782-24.479 1.172-37.57 10.763-60.16Zm288.144 48.537a128.435 128.435 0 0 0 6.928-39.595A155.7 155.7 0 0 0 279.74 39.04c11.91 19.98 22.272 57.153 23.71 80.129a131.712 131.712 0 0 1 8.094 20.315Zm-271.068 0a128.465 128.465 0 0 1-6.928-39.595A155.69 155.69 0 0 1 72.281 39.04c-11.91 19.98-22.273 57.153-23.711 80.129a131.813 131.813 0 0 0-8.094 20.315Zm95.858-123.76c-19.249 13.409-45.256 44.914-54.42 61.604A141.632 141.632 0 0 0 65.62 94.002a131.212 131.212 0 0 1 10.64-38.629 165.541 165.541 0 0 1 60.074-39.649l.003-.002h.003l-.006.002Zm79.353 0c19.249 13.409 45.256 44.914 54.419 61.604a141.641 141.641 0 0 1 16.295 16.674 131.214 131.214 0 0 0-10.641-38.629 165.546 165.546 0 0 0-60.073-39.649l-.003-.002h-.003l.006.002Zm-39.673 3.203a278.578 278.578 0 0 1 44.372 13.68 129.462 129.462 0 0 1 22.783 28.212 147.883 147.883 0 0 0-23.127-9.907c-8.635-7.726-26.101-23.748-44.032-31.983-17.931 8.235-35.396 24.257-44.032 31.983a147.883 147.883 0 0 0-23.127 9.907 129.462 129.462 0 0 1 22.783-28.212 278.558 278.558 0 0 1 44.373-13.68l-.007-.003.01.002.01-.002-.006.003Zm-.198 25.767c-7.796.053-15.63.738-23.314 2.045C159.84 40.904 167.746 35.734 176 31.29l.193.105c8.185 4.42 16.045 9.555 23.326 15.344A145.501 145.501 0 0 0 176 44.693l-.184.001Z" fill="url(#a)" fill-rule="nonzero"/><path d="M141.974 340.342a36.037 36.037 0 0 1-1.993-.154v-.002c-25.963-2.567-37.642-2.928-63.768-11.719 12.916 1.025 26.575.792 41.522-1.42.626.408 1.307.751 2.033 1.016a165.234 165.234 0 0 0 39.502 8.991l-1.068.447a37.095 37.095 0 0 1-16.227 2.841l.003-.049.001-.008-.005.057Zm68.071 0a37.083 37.083 0 0 1-16.226-2.841l-1.055-.442a164.812 164.812 0 0 0 39.487-8.988 10.089 10.089 0 0 0 2.047-1.022c14.945 2.211 28.599 2.442 41.509 1.418-26.126 8.791-37.805 9.152-63.768 11.719v.002l-.098.01-.099-2.003c20.384-2.015 31.902-2.653 48.65-7.145a184.8 184.8 0 0 1-25.773-1.919c-.564.317-1.159.592-1.783.819l-.005.002a166.552 166.552 0 0 1-30.803 7.913c3.191.559 6.456.674 9.703.334l.104 1.999-.477.047-.582.047-.498.032c-.202-.183-.339-.262-.339-.138l.006.156Zm-92.73-11.213a12.075 12.075 0 0 0 1.773.815 166.878 166.878 0 0 0 30.832 7.916c-3.17.558-6.414.678-9.641.348l-.101-.013c-20.384-2.015-31.903-2.653-48.653-7.145 8.213-.031 16.77-.619 25.79-1.921Zm16.174-5.063a157.435 157.435 0 0 0 20.998 4.363 157.836 157.836 0 0 1-20.998-4.363Zm-20.043-8.266c.59-6.174.446-11.535-.135-16.132a142.742 142.742 0 0 1-6.475-.153c-40.986-1.643-61.365-9.292-74.423-14.759a168.07 168.07 0 0 0 31.049 19.116l1.656.803 1.733.766a170.394 170.394 0 0 0 36.714 11.777 138.28 138.28 0 0 0 9.881-1.418Zm125.284-16.132c2.151-.002 4.303-.053 6.454-.153 40.986-1.643 61.365-9.292 74.423-14.759a168.07 168.07 0 0 1-31.049 19.116l-1.655.803-1.734.766a170.386 170.386 0 0 1-36.713 11.777 139.162 139.162 0 0 1-9.86-1.414c-.591-6.175-.447-11.535.134-16.136Zm-127.144 14.427c-2.63.444-5.274.811-7.93 1.102a168.476 168.476 0 0 1-35.983-11.579l-1.715-.758-1.638-.794a166.424 166.424 0 0 1-18.066-9.997c13.155 4.227 31.831 8.294 60.496 9.444 1.59.074 3.18.121 4.771.143.356 3.673.424 7.811.065 12.439Zm128.935-12.44c1.583-.021 3.167-.069 4.749-.142 28.667-1.15 47.344-5.218 60.496-9.444a166.236 166.236 0 0 1-18.066 9.997l-1.638.794-1.715.758a168.4 168.4 0 0 1-35.981 11.578 135.722 135.722 0 0 1-7.91-1.098c-.359-4.628-.292-8.767.065-12.443Zm-118.749 9.449-.003.088.003-.088Zm.001-.03-.001.03.001-.03Zm.006-.152-.005.14.004-.14h.001Zm.001-.031-.001.031h-.001l.002-.032v.001Zm.005-.153-.005.145.005-.145Zm0 0 .001-.03v.001l-.001.029Zm.006-.184-.005.15v-.001l.005-.149Zm.001-.026-.001.026.001-.026Zm.017-.702.001.001-.004.144.003-.145Zm.001-.034v.035l-.001-.001v-.035l.001.001Zm0 0-.001-.002.002-.14.002.001-.001.068-.002.073Zm.003-.185v.044l-.002-.001.001-.044.001.001Zm.002-.13-.002.13-.001-.002.002-.13.001.002Zm.001-.055-.001.054-.001-.001.001-.055.001.002Zm.002-.119-.002.118-.001-.001.001-.118.002.001Zm.001-.067-.001.067-.002-.001.001-.067.002.001Zm.001-.104-.001.104-.002-.001.002-.105.001.002Zm.001-.081-.001.081-.001-.002.001-.08.001.001Zm0 0-.001-.001.005-.323.001-.002-.005.326Zm.004-.838h.001l-.003-1.241-.004-.234.006 1.475Zm-.045-2.911-.031-.886.01.225.021.661.024.679.004.181-.028-.86Zm-.122-2.509.068 1.144.011.226-.079-1.37Zm222.859-73.155c-18.707 19.67-44.949 34.804-68.099 42.381a142.943 142.943 0 0 1-15.044 12.737h9.486a107.516 107.516 0 0 0 27.729-3.861c18.594-12.592 34.376-30.06 46.082-50.995l-.154-.262Zm-337.622-.644c18.746 19.985 45.306 35.366 68.707 43.025a142.852 142.852 0 0 0 15.045 12.737H81.16a107.503 107.503 0 0 1-27.728-3.861c-18.841-12.758-34.793-30.522-46.546-51.83l.009-.071ZM335.5 240.929c-10.413 15.274-23.206 28.217-37.758 38.124a105.457 105.457 0 0 1-26.89 3.703l-3.582-.001a144.479 144.479 0 0 0 10.211-8.981c19.26-6.371 40.579-17.885 58.019-32.845Zm-318.98 0c17.44 14.96 38.76 26.474 58.02 32.846a144.02 144.02 0 0 0 10.211 8.98l-3.583.001a105.43 105.43 0 0 1-26.888-3.703c-14.553-9.907-27.346-22.849-37.76-38.124Zm280.2 6.16c12.572-6.093 22.112-10.387 37.578-25.626 9.013-17.291 12.499-31.798 10.291-55.461-6.888 25.379-15.943 37.279-36.182 58.007a132.514 132.514 0 0 1-11.687 23.08Zm-241.42 0c-12.572-6.093-22.112-10.387-37.577-25.626-9.013-17.291-12.5-31.798-10.292-55.461 6.888 25.379 15.943 37.279 36.183 58.007a132.44 132.44 0 0 0 11.686 23.08Zm-5.184-4.746c-9.617-4.762-18.213-9.757-30.764-22.083-7.246-13.971-10.789-26.125-10.55-43.052 6.635 18.773 15.806 30.178 33.096 47.907a133.783 133.783 0 0 0 8.218 17.227v.001Zm251.789-.001a133.86 133.86 0 0 0 8.217-17.228c17.291-17.728 26.461-29.132 33.096-47.903.239 16.924-3.303 29.078-10.548 43.047-12.553 12.328-21.148 17.323-30.766 22.085l.001-.001Zm42.929-12.735-.079.142-.108-.248.11-.116.077.222Zm-15.897-137.91c9.339 22.132 12.208 35.203 10.446 59.41l-.001.003-.497 1.088-.257-.449c-.386-.657-.816-1.32-1.018-1.393l1.238 1.923c-5.522 12.014-13.526 27.368-22.3 37.585.406-4.15.613-8.362.613-12.62 0-2.813.179-6.393 0-9.172 9.171-20.31 14.407-51.594 11.62-75.804.044-.173.096-.368.156-.571ZM22.658 92.71c.195.088.377.145.512.181-2.628 24.121 2.596 55.044 11.689 75.181-.179 2.779 0 6.359 0 9.172 0 4.258.208 8.47.613 12.62-8.617-10.035-16.492-25.024-22-36.937.342-.157.638-.409.847-.735.239-.37.345-.803.313-1.23l-1.382 1.486c-.208-.452-.412-.898-.612-1.338l-.001-.003c-1.735-23.835 1.02-36.874 10.021-58.397Zm308.847 10.928c5.632 15.593 7.282 27.695 5.908 46.968-4.631 10.159-11.126 22.956-18.401 32.908.099-2.078.149-4.168.149-6.27 0-2.686.158-6.062.024-8.799 7.772-17.454 12.701-42.685 12.32-64.807Zm-310.99 0c-.381 22.122 4.548 47.354 12.321 64.81-.134 2.735.023 6.111.023 8.796 0 2.101.05 4.192.148 6.269-7.274-9.951-13.769-22.748-18.4-32.907-1.373-19.272.277-31.374 5.908-46.968Zm316.883 47.193a1.607 1.607 0 0 0-.004.474 1.962 1.962 0 0 1-.006-.343l.01-.131Zm-25.854-11.347a128.435 128.435 0 0 0 6.928-39.595A155.7 155.7 0 0 0 279.74 39.04c11.91 19.98 22.272 57.153 23.71 80.129a131.712 131.712 0 0 1 8.094 20.315Zm-271.068 0a128.465 128.465 0 0 1-6.928-39.595A155.69 155.69 0 0 1 72.281 39.04c-11.91 19.98-22.273 57.153-23.711 80.129a131.813 131.813 0 0 0-8.094 20.315Zm271.025-6.5a134.007 134.007 0 0 0-6.082-14.346c-1.266-19.026-8.481-47.428-17.619-68.131a153.668 153.668 0 0 1 28.666 49.702 126.412 126.412 0 0 1-4.965 32.776v-.001Zm-270.982.001a126.484 126.484 0 0 1-4.965-32.775 153.677 153.677 0 0 1 28.667-49.705C55.082 71.211 47.867 99.612 46.6 118.642a134.085 134.085 0 0 0-6.081 14.342v.001Zm94.384-116.707c.069.105.145.207.223.305-19.116 13.854-44.239 44.402-53.212 60.745A141.632 141.632 0 0 0 65.62 94.002a131.212 131.212 0 0 1 10.64-38.629 165.524 165.524 0 0 1 58.643-39.095Zm80.784-.554c19.249 13.409 45.256 44.914 54.419 61.604a141.641 141.641 0 0 1 16.295 16.674 131.214 131.214 0 0 0-10.641-38.629 165.546 165.546 0 0 0-60.073-39.649l-.003-.002h-.003l.006.002ZM22.689 92.635l.096-.229.4.349-.012.107a4.48 4.48 0 0 1-.484-.227Zm.336-.212.17.235-.002.016-.008.079-.399-.348.082-.196.157.214Zm.071-.074.11.215-.009.076-.312-.472.051-.121.16.302Zm205.16-69.007a163.535 163.535 0 0 1 45.822 33.169 129.152 129.152 0 0 1 9.387 31.062 144.169 144.169 0 0 0-11.78-11.522c-7.65-13.776-26.321-37.19-43.429-52.709Zm-104.492 0c-17.108 15.52-35.779 38.934-43.431 52.712a144.076 144.076 0 0 0-11.777 11.518 129.135 129.135 0 0 1 9.386-31.06 163.504 163.504 0 0 1 45.822-33.17Zm51.589-4.27.654-.145-.007-.003.01.002.01-.002-.006.003a278.578 278.578 0 0 1 44.372 13.68 129.462 129.462 0 0 1 22.783 28.212 147.883 147.883 0 0 0-23.127-9.907c-8.635-7.726-26.101-23.748-44.032-31.983l-.621.289-.003-.01-.033-.136Zm-.413.229.053.104c-17.571 8.362-34.542 23.927-43.015 31.507a147.883 147.883 0 0 0-23.127 9.907 129.462 129.462 0 0 1 22.783-28.212 278.525 278.525 0 0 1 43.247-13.43l.059.124Zm15.105 5.158a276.278 276.278 0 0 1 29.248 9.865 127.356 127.356 0 0 1 18.295 21.454 149.823 149.823 0 0 0-16.521-6.633c-6.629-5.936-18.125-16.37-31.022-24.686Zm-28.07 0c-12.897 8.315-24.392 18.75-31.022 24.686a150.015 150.015 0 0 0-16.521 6.632 127.434 127.434 0 0 1 18.295-21.453 276.431 276.431 0 0 1 29.248-9.865Zm13.712 7.001.313-.17.193.105c8.185 4.42 16.045 9.555 23.326 15.344a145.437 145.437 0 0 0-23.513-2.046l.005-2c5.365.029 10.758.355 16.108.972A158.822 158.822 0 0 0 176 33.567a157.964 157.964 0 0 0-16.101 10.097c5.28-.609 10.6-.934 15.903-.97a2 2 0 0 0-1.986 2.007v.021c-7.134.147-14.287.822-21.314 2.017 6.816-5.42 14.122-10.266 21.743-14.49.188.344.472.623.812.805l.943.236-.049-.21a13.952 13.952 0 0 1-.264-1.62Zm.304 13.233-.175.001h-.004l-.004-2 .175-.001.008 2Zm-.934-11.639c.092.049.188.092.288.126l.331.084.141.018-.76-.228Zm-39.926-16.865c.4-.157.801-.311 1.203-.465l.003-.002h.003l-.006.002c-.343.239-.688.484-1.036.735a5.287 5.287 0 0 1-.167-.27Z" fill="#f8e7c4" fill-opacity=".5"/><path d="m111.613 270.882.038-.039a1.99 1.99 0 0 0-.083 2.714c1.711 2.091 4.464 6.085 6.688 12.267-2.224-6.182-4.977-10.176-6.688-12.267a1.99 1.99 0 0 1 .045-2.675Zm-5.814 8.275C69.837 257.359 46 219.32 46 176.077 46 108.478 104.251 53 176 53h.02c71.749 0 130 55.478 130 123.077 0 43.223-23.815 81.246-59.74 103.045.108-.141.214-.274.316-.4a10.002 10.002 0 0 0-1.312-14.237 117.882 117.882 0 0 0 12.642-9.969c21.906-19.853 35.83-47.56 36.063-78.439.993-31.445-12.037-60.115-33.444-81.303C239.054 73.504 210.412 57 176.02 57H176c-34.392 0-63.034 16.504-84.524 37.774-21.408 21.188-34.438 49.858-33.444 81.303.232 30.879 14.156 58.586 36.063 78.439a117.795 117.795 0 0 0 12.66 9.981 9.994 9.994 0 0 0-1.33 14.186c.12.147.245.305.374.474Zm8.438-9.945-2.2 1.328 2.2-1.328Z" fill="url(#b)"/><path d="M111.147 272.777c.069.25.188.487.351.695l.07.085a33.426 33.426 0 0 1 2.417 3.384c.413.656.84 1.379 1.271 2.168l.133.245.095.178a48.657 48.657 0 0 1 0 0l-.095-.178-.133-.245a40.645 40.645 0 0 0-1.271-2.168 33.426 33.426 0 0 0-2.417-3.384l-.07-.085a1.984 1.984 0 0 1-.351-.695ZM176.44 57.002l-.42-.002H176c-34.392 0-63.034 16.504-84.524 37.774-21.408 21.188-34.438 49.858-33.444 81.303.232 30.879 14.156 58.586 36.063 78.439a117.795 117.795 0 0 0 12.66 9.981 9.994 9.994 0 0 0-1.33 14.186c.12.147.245.305.374.474C69.837 257.359 46 219.32 46 176.077 46 108.478 104.251 53 176 53h.02c71.749 0 130 55.478 130 123.077 0 43.223-23.815 81.246-59.74 103.045.108-.141.214-.274.316-.4a10.002 10.002 0 0 0-1.312-14.237 117.882 117.882 0 0 0 12.642-9.969c21.906-19.853 35.83-47.56 36.063-78.439.993-31.445-12.037-60.115-33.444-81.303-21.074-20.857-49.024-37.132-82.525-37.755V57a2 2 0 0 0-2-2h-.018c.572 0 .576 1.001.438 2.002ZM176 55c-34.957 0-64.088 16.734-85.931 38.353-21.794 21.57-35.045 50.765-34.037 82.777.244 31.43 14.411 59.651 36.72 79.868a119.771 119.771 0 0 0 10.923 8.789 11.994 11.994 0 0 0-2.497 9.026C68.987 251.931 48 216.298 48 176.077 48 109.545 105.384 55 176 55Zm.02 0c70.616 0 128 54.545 128 121.077 0 40.211-20.976 75.836-53.145 97.714a12 12 0 0 0-2.509-9.019 119.96 119.96 0 0 0 10.903-8.774c22.312-20.22 36.48-48.446 36.719-79.896 1.005-31.993-12.246-61.182-34.037-82.749C240.108 71.734 210.977 55 176.02 55Zm-64.411 215.887-.086.098-.012.016-.078.103-.011.017-.07.109-.01.017-.061.115-.009.017-.053.12-.006.016-.045.126-.004.013-.037.134-.002.008-.027.143a1.915 1.915 0 0 0 .027-.143l.002-.008a2.04 2.04 0 0 1 .037-.134l.002-.009.002-.004c.013-.043.028-.085.045-.126l.003-.01.003-.006c.016-.041.034-.081.053-.12l.005-.01.004-.007c.019-.039.039-.077.061-.115l.005-.009.005-.008c.022-.037.045-.074.07-.109l.005-.008.006-.009c.025-.035.051-.07.078-.103l.005-.007.007-.009c.027-.033.056-.066.086-.098l.004-.005.038-.039-.042.044Z" fill="#f8e7c4" fill-opacity=".5"/><path d="M197.444 245.243c.364 0 .721.099 1.032.287l41.532 25.001a2 2 0 0 1 .472 3.033c-3.793 4.62-12.677 18.565-9.65 44.878a1.998 1.998 0 0 1-1.301 2.106c-35.012 12.668-73.061 12.283-107.017 0a1.998 1.998 0 0 1-1.3-2.107c3.027-26.313-5.859-40.259-9.644-44.884a1.99 1.99 0 0 1 .469-3.017c8.113-4.901 37.395-22.544 41.487-25.01a1.995 1.995 0 0 1 1.032-.287h42.888Z" fill="url(#c)"/><path d="M197.444 245.243c.364 0 .721.099 1.032.287l41.532 25.001a2 2 0 0 1 .472 3.033c-3.793 4.62-12.677 18.565-9.65 44.878a1.998 1.998 0 0 1-1.301 2.106c-35.012 12.668-73.061 12.283-107.017 0a1.998 1.998 0 0 1-1.3-2.107c3.027-26.313-5.859-40.259-9.644-44.884a1.99 1.99 0 0 1 .469-3.017c8.113-4.901 37.395-22.544 41.487-25.01a1.995 1.995 0 0 1 1.032-.287h42.888Zm-61.09 15.304 18.758-11.304h41.777l39.137 23.56c-4.402 6.118-11.761 20.191-9.339 44.511-33.183 11.627-69.088 11.287-101.333 0 2.422-24.315-4.932-38.386-9.328-44.509l20.328-12.258Z" fill="#f8e7c4" fill-opacity=".5"/><g><path d="M120 180s-8.717-54.596-11.292-73.089a2.069 2.069 0 0 1 .983-2.069 1.957 1.957 0 0 1 2.237.169l38.355 31.107a1.963 1.963 0 0 0 1.669.394 2.006 2.006 0 0 0 1.355-1.076l20.909-42.312A1.996 1.996 0 0 1 176 92c.754 0 1.443.435 1.784 1.124l20.909 42.312c.271.549.768.944 1.355 1.076a1.963 1.963 0 0 0 1.669-.394l38.355-31.107a1.957 1.957 0 0 1 2.237-.169 2.069 2.069 0 0 1 .983 2.069C240.717 125.404 232 180 232 180H120Z" fill="url(#d)"/><path d="M120 180s-8.717-54.596-11.292-73.089a2.069 2.069 0 0 1 .983-2.069 1.957 1.957 0 0 1 2.237.169l38.355 31.107a1.963 1.963 0 0 0 1.669.394 2.006 2.006 0 0 0 1.355-1.076l20.909-42.312A1.996 1.996 0 0 1 176 92c.754 0 1.443.435 1.784 1.124l20.909 42.312c.271.549.768.944 1.355 1.076a1.963 1.963 0 0 0 1.669-.394l38.355-31.107a1.957 1.957 0 0 1 2.237-.169 2.069 2.069 0 0 1 .983 2.069C240.717 125.404 232 180 232 180H120Zm56-81.457 19.107 38.665a6.004 6.004 0 0 0 4.061 3.206 5.953 5.953 0 0 0 5.069-1.19l34.378-27.881c-2.657 18.195-8.272 53.616-10.028 64.657H123.413c-1.756-11.041-7.371-46.462-10.028-64.657l34.378 27.881a5.953 5.953 0 0 0 5.069 1.19 6.004 6.004 0 0 0 4.061-3.206L176 98.543Z" fill="#f8e7c4" fill-opacity=".5"/><path d="M120 196h112v22a2 2 0 0 1-2 2H122a2 2 0 0 1-2-2v-22Z" fill="url(#e)"/><path d="M120 196h112v22a2 2 0 0 1-2 2H122a2 2 0 0 1-2-2v-22Zm108 20H124v-16h104v16Z" fill="#f8e7c4" fill-opacity=".5"/></g><defs><radialGradient id="a" cx="0" cy="0" r="1" gradientUnits="userSpaceOnUse" gradientTransform="matrix(74.2062 352 -605.617 127.672 122.85 0)"><stop offset="0" stop-color="#f8e276"/><stop offset=".16" stop-color="#f6d66f"/><stop offset=".29" stop-color="#eeab54"/><stop offset=".43" stop-color="#efa450"/><stop offset=".46" stop-color="#f19045"/><stop offset=".49" stop-color="#f37638"/><stop offset=".62" stop-color="#e66830"/><stop offset=".76" stop-color="#c4431c"/><stop offset=".89" stop-color="#9a250d"/><stop offset="1" stop-color="#8a1a08"/></radialGradient><radialGradient id="b" cx="0" cy="0" r="1" gradientUnits="userSpaceOnUse" gradientTransform="matrix(74.2062 352 -605.617 127.672 122.85 0)"><stop offset="0" stop-color="#f8e276"/><stop offset=".16" stop-color="#f6d66f"/><stop offset=".29" stop-color="#eeab54"/><stop offset=".43" stop-color="#efa450"/><stop offset=".46" stop-color="#f19045"/><stop offset=".49" stop-color="#f37638"/><stop offset=".62" stop-color="#e66830"/><stop offset=".76" stop-color="#c4431c"/><stop offset=".89" stop-color="#9a250d"/><stop offset="1" stop-color="#8a1a08"/></radialGradient><radialGradient id="c" cx="0" cy="0" r="1" gradientUnits="userSpaceOnUse" gradientTransform="matrix(74.2062 352 -605.617 127.672 122.85 0)"><stop offset="0" stop-color="#f8e276"/><stop offset=".16" stop-color="#f6d66f"/><stop offset=".29" stop-color="#eeab54"/><stop offset=".43" stop-color="#efa450"/><stop offset=".46" stop-color="#f19045"/><stop offset=".49" stop-color="#f37638"/><stop offset=".62" stop-color="#e66830"/><stop offset=".76" stop-color="#c4431c"/><stop offset=".89" stop-color="#9a250d"/><stop offset="1" stop-color="#8a1a08"/></radialGradient><radialGradient id="d" cx="0" cy="0" r="1" gradientUnits="userSpaceOnUse" gradientTransform="matrix(39.3986 140.17 -221.144 61.3278 152.89 92)"><stop offset="0" stop-color="#f3e5a1"/><stop offset=".13" stop-color="#f0dc96"/><stop offset=".17" stop-color="#eac87d"/><stop offset=".21" stop-color="#e4b564"/><stop offset=".28" stop-color="#e7b059"/><stop offset=".36" stop-color="#f0a33b"/><stop offset=".47" stop-color="#ed9937"/><stop offset=".52" stop-color="#da5d1f"/><stop offset=".68" stop-color="#e98f39"/><stop offset=".83" stop-color="#efa243"/><stop offset="1" stop-color="#c44e1b"/></radialGradient><radialGradient id="e" cx="0" cy="0" r="1" gradientUnits="userSpaceOnUse" gradientTransform="matrix(39.3986 140.17 -221.144 61.3278 152.89 92)"><stop offset="0" stop-color="#f3e5a1"/><stop offset=".13" stop-color="#f0dc96"/><stop offset=".17" stop-color="#eac87d"/><stop offset=".21" stop-color="#e4b564"/><stop offset=".28" stop-color="#e7b059"/><stop offset=".36" stop-color="#f0a33b"/><stop offset=".47" stop-color="#ed9937"/><stop offset=".52" stop-color="#da5d1f"/><stop offset=".68" stop-color="#e98f39"/><stop offset=".83" stop-color="#efa243"/><stop offset="1" stop-color="#c44e1b"/></radialGradient></defs></svg>