<svg viewBox="0 0 352 352" xmlns="http://www.w3.org/2000/svg" xml:space="preserve" fill-rule="evenodd" clip-rule="evenodd" stroke-linejoin="round" stroke-miterlimit="2"><path fill="none" d="M0 0h352v352H0z"/><path d="m113.213 28.809 3.803 14.273c.121.455.269.901.441 1.335C67.124 66.864 32 117.363 32 176c0 58.629 35.114 109.122 85.435 131.574-.172.434-.32.879-.441 1.335l-3.805 14.272C56.07 298.751 16 242.018 16 176c0-66.027 40.081-122.766 97.213-147.191Zm125.622.02C295.941 53.264 336 109.991 336 176c0 66.018-40.07 122.751-97.189 147.181l-3.805-14.272a11.92 11.92 0 0 0-.441-1.335C284.886 285.122 320 234.629 320 176c0-58.621-35.105-109.108-85.413-131.564.172-.434.32-.88.441-1.335l3.807-14.272Z" fill="url(#a)"/><path d="m113.213 28.809 3.803 14.273c.121.455.269.901.441 1.335C67.124 66.864 32 117.363 32 176c0 58.629 35.114 109.122 85.435 131.574-.172.434-.32.879-.441 1.335l-3.805 14.272C56.07 298.751 16 242.018 16 176c0-66.027 40.081-122.766 97.213-147.191Zm125.622.02C295.941 53.264 336 109.991 336 176c0 66.018-40.07 122.751-97.189 147.181l-3.805-14.272a11.92 11.92 0 0 0-.441-1.335C284.886 285.122 320 234.629 320 176c0-58.621-35.105-109.108-85.413-131.564.172-.434.32-.88.441-1.335l3.807-14.272Zm.56 13.42 2.096-7.857C294.908 59.16 332 113.282 332 176c0 62.726-37.102 116.855-90.532 141.619l-2.095-7.858C289.384 286.01 324 235.015 324 176c0-59.007-34.607-109.996-84.605-133.751Zm-126.746-.021C62.625 65.976 28 116.977 28 176c0 59.015 34.616 110.01 84.627 133.761l-2.095 7.858C57.102 292.855 20 238.726 20 176c0-62.735 37.112-116.87 90.555-141.63l2.094 7.858Z" fill="#edccfd" fill-opacity=".5"/><path d="M138.377 51.537c2.702.397 6.045 1.342 9.638 3.401.969.555 1.911 1.112 2.823 1.664C95.558 68.213 54 117.292 54 176c0 58.701 41.548 107.775 96.825 119.395-.91.548-1.854 1.103-2.83 1.662-3.594 2.059-6.937 3.004-9.638 3.4C84.939 284.301 46 234.662 46 176c0-58.669 38.949-108.313 92.377-124.463Zm75.287.012C267.07 67.711 306 117.345 306 176c0 58.662-38.939 108.301-92.357 124.457-2.702-.396-6.044-1.341-9.638-3.4a131.48 131.48 0 0 1-2.823-1.664C256.452 283.775 298 234.701 298 176c0-58.695-41.539-107.764-96.805-119.391a146.91 146.91 0 0 1 2.83-1.661c3.594-2.058 6.937-3.003 9.639-3.399Z" fill="url(#b)"/><path d="M138.377 51.537c2.702.397 6.045 1.342 9.638 3.401.969.555 1.911 1.112 2.823 1.664C95.558 68.213 54 117.292 54 176c0 58.701 41.548 107.775 96.825 119.395-.91.548-1.854 1.103-2.83 1.662-3.594 2.059-6.937 3.004-9.638 3.4C84.939 284.301 46 234.662 46 176c0-58.669 38.949-108.313 92.377-124.463Zm75.287.012C267.07 67.711 306 117.345 306 176c0 58.662-38.939 108.301-92.357 124.457-2.702-.396-6.044-1.341-9.638-3.4a131.48 131.48 0 0 1-2.823-1.664C256.452 283.775 298 234.701 298 176c0-58.695-41.539-107.764-96.805-119.391a146.91 146.91 0 0 1 2.83-1.661c3.594-2.058 6.937-3.003 9.639-3.399Zm-7.041 244.633C260.273 282.531 300 233.868 300 176c0-57.862-39.717-106.519-93.357-120.177 2.526-1.233 4.874-1.894 6.875-2.227h.002C265.881 69.647 304 118.407 304 176c0 57.6-38.128 106.365-90.5 122.41-2.003-.333-4.351-.995-6.877-2.228ZM145.396 55.813C91.736 69.458 52 118.125 52 176c0 57.868 39.726 106.531 93.377 120.182-2.526 1.233-4.873 1.895-6.875 2.228C86.128 282.365 48 233.6 48 176c0-57.607 38.138-106.377 90.52-122.416h.002c2.002.333 4.349.995 6.874 2.229Z" fill="#edccfd" fill-opacity=".5"/><path d="M174.386 218.307a2.001 2.001 0 0 0 3.227-.001c7.192-9.82 36.259-49.526 42.735-58.577a2 2 0 0 0-1.618-3.176h-30.35a2 2 0 0 1-1.511-3.31c13.646-15.741 35.699-41.174 36.782-42.429.929-1.077 2.263-.98 2.816-.318 4.778 5.725 24.252 31.875 28.658 37.815.521.702.526 1.662.012 2.369L177.6 257.3c-.375.518-.96.7-1.6.7-.64 0-1.241-.19-1.618-.707L96.863 150.68a2.002 2.002 0 0 1 .012-2.369c4.406-5.94 23.88-32.09 28.658-37.815.553-.662 1.887-.759 2.816.318 1.083 1.255 23.136 26.688 36.782 42.429a1.999 1.999 0 0 1-1.511 3.31h-30.35a2 2 0 0 0-1.618 3.176c7.386 10.322 35.656 48.919 42.734 58.578Zm3.119-76.99a2 2 0 0 1-3.01 0c-4.465-5.102-17.689-22.253-23.593-29a2.002 2.002 0 0 1 1.506-3.317h47.184a2.001 2.001 0 0 1 1.506 3.317c-5.904 6.747-19.128 23.898-23.593 29Z" fill="url(#c)"/><path d="M174.386 218.307a2.001 2.001 0 0 0 3.227-.001c7.192-9.82 36.259-49.526 42.735-58.577a2 2 0 0 0-1.618-3.176h-30.35a2 2 0 0 1-1.511-3.31c13.646-15.741 35.699-41.174 36.782-42.429.929-1.077 2.263-.98 2.816-.318 4.778 5.725 24.252 31.875 28.658 37.815.521.702.526 1.662.012 2.369L177.6 257.3c-.375.518-.96.7-1.6.7-.64 0-1.241-.19-1.618-.707L96.863 150.68a2.002 2.002 0 0 1 .012-2.369c4.406-5.94 23.88-32.09 28.658-37.815.553-.662 1.887-.759 2.816.318 1.083 1.255 23.136 26.688 36.782 42.429a1.999 1.999 0 0 1-1.511 3.31h-30.35a2 2 0 0 0-1.618 3.176c7.386 10.322 35.656 48.919 42.734 58.578Zm38.611-89.095 12.133-13.998c6.178 7.814 20.84 27.481 25.907 34.302l-75.043 103.191-75.031-103.191c5.069-6.825 19.731-26.489 25.907-34.302l12.133 13.998 20.236 23.341H133.27a6 6 0 0 0-4.871 9.504c7.39 10.328 35.678 48.949 42.76 58.614h.001a5.999 5.999 0 0 0 9.681-.002c7.196-9.827 36.28-49.556 42.76-58.612a6 6 0 0 0-4.871-9.504h-25.969l20.236-23.341Zm-35.492 12.105a2 2 0 0 1-3.01 0c-4.465-5.102-17.689-22.253-23.593-29a2.002 2.002 0 0 1 1.506-3.317h47.184a2.001 2.001 0 0 1 1.506 3.317c-5.904 6.747-19.128 23.898-23.593 29ZM156.721 113h38.557c-5.817 7.013-14.675 18.379-19.278 23.907-4.597-5.521-13.439-16.864-19.279-23.907Z" fill="#edccfd" fill-opacity=".5"/><path d="m124.724 310.97-4.133 15.502a4.001 4.001 0 0 0 2.575 4.817C139.743 336.935 157.517 340 176 340c18.483 0 36.257-3.065 52.834-8.711a4.001 4.001 0 0 0 2.575-4.817l-4.133-15.502a4 4 0 0 0-4.985-2.81s-10.135 2.785-22.262-4.161c-12.918-7.399-21.354-14.973-21.354-14.973a4 4 0 0 0-5.41.055s-7.557 7.049-21.294 14.918c-12.127 6.946-22.262 4.161-22.262 4.161a4.001 4.001 0 0 0-4.985 2.81Z" fill="url(#d)"/><path d="m124.724 310.97-4.133 15.502a4.001 4.001 0 0 0 2.575 4.817C139.743 336.935 157.517 340 176 340c18.483 0 36.257-3.065 52.834-8.711a4.001 4.001 0 0 0 2.575-4.817l-4.133-15.502a4 4 0 0 0-4.985-2.81s-10.135 2.785-22.262-4.161c-12.918-7.399-21.354-14.973-21.354-14.973a4 4 0 0 0-5.41.055s-7.557 7.049-21.294 14.918c-12.127 6.946-22.262 4.161-22.262 4.161a4.001 4.001 0 0 0-4.985 2.81ZM176 292l.003.003s8.701 7.828 22.038 15.467c12.568 7.199 23.278 5.045 25.052 4.612l.018.035.012.017c-.059.066.016.121.127.152.084.08.169.115.195.03l.022.001.028-.002 4.049 15.187C211.372 333.011 194.032 336 176 336c-18.032 0-35.372-2.989-51.544-8.498l4.049-15.187c.268.011.686-.139.084-.315l.06.017s11.54 3.34 25.31-4.547c14.223-8.147 22.035-15.464 22.035-15.464L176 292Z" fill="#edccfd" fill-opacity=".5"/><path d="m227.298 41.039 4.136-15.502a4 4 0 0 0-2.575-4.817c-16.576-5.649-34.349-8.717-52.832-8.72-18.483-.003-36.257 3.059-52.835 8.703a4 4 0 0 0-2.576 4.816l4.13 15.503a3.997 3.997 0 0 0 4.985 2.81s10.135-2.783 22.261 4.165c12.917 7.402 21.351 14.976 21.351 14.976a4 4 0 0 0 5.411-.054s7.557-7.048 21.296-14.914c12.129-6.944 22.263-4.157 22.263-4.157a4.001 4.001 0 0 0 4.985-2.809Z" fill="url(#e)"/><path d="m227.298 41.039 4.136-15.502a4 4 0 0 0-2.575-4.817c-16.576-5.649-34.349-8.717-52.832-8.72-18.483-.003-36.257 3.059-52.835 8.703a4 4 0 0 0-2.576 4.816l4.13 15.503a3.997 3.997 0 0 0 4.985 2.81s10.135-2.783 22.261 4.165c12.917 7.402 21.351 14.976 21.351 14.976a4 4 0 0 0 5.411-.054s7.557-7.048 21.296-14.914c12.129-6.944 22.263-4.157 22.263-4.157a4.001 4.001 0 0 0 4.985-2.809Zm.271-16.533-4.051 15.187c-.269-.011-.687.139-.084.315l-.06-.017s-11.54-3.342-25.312 4.543c-14.224 8.144-22.036 15.46-22.036 15.46a.043.043 0 0 0-.007.006l-.003-.003s-8.7-7.829-22.035-15.471c-12.567-7.2-23.278-5.048-25.052-4.616l-.018-.034-.012-.018c.06-.066-.015-.121-.127-.151-.083-.08-.169-.116-.195-.031l-.021-.001-.029.002-4.046-15.188c16.173-5.505 33.513-8.492 51.545-8.489 18.033.003 35.372 2.995 51.543 8.506Z" fill="#edccfd" fill-opacity=".5"/><defs><radialGradient id="a" cx="0" cy="0" r="1" gradientUnits="userSpaceOnUse" gradientTransform="matrix(76.6744 347.102 -1038.83 234.681 100.872 5.096)"><stop offset="0" stop-color="#e5bff8"/><stop offset=".17" stop-color="#dca9f7"/><stop offset=".4" stop-color="#c779f6"/><stop offset=".47" stop-color="#b569eb"/><stop offset=".51" stop-color="#4603a4"/><stop offset=".57" stop-color="#5e0abb"/><stop offset=".64" stop-color="#931aef"/><stop offset=".82" stop-color="#9725ee"/><stop offset="1" stop-color="#a146ea"/></radialGradient><radialGradient id="b" cx="0" cy="0" r="1" gradientUnits="userSpaceOnUse" gradientTransform="matrix(76.6744 347.102 -1038.83 234.681 100.872 5.096)"><stop offset="0" stop-color="#e5bff8"/><stop offset=".17" stop-color="#dca9f7"/><stop offset=".4" stop-color="#c779f6"/><stop offset=".47" stop-color="#b569eb"/><stop offset=".51" stop-color="#4603a4"/><stop offset=".57" stop-color="#5e0abb"/><stop offset=".64" stop-color="#931aef"/><stop offset=".82" stop-color="#9725ee"/><stop offset="1" stop-color="#a146ea"/></radialGradient><radialGradient id="c" cx="0" cy="0" r="1" gradientUnits="userSpaceOnUse" gradientTransform="matrix(76.6744 347.102 -1038.83 234.681 100.872 5.096)"><stop offset="0" stop-color="#e5bff8"/><stop offset=".17" stop-color="#dca9f7"/><stop offset=".4" stop-color="#c779f6"/><stop offset=".47" stop-color="#b569eb"/><stop offset=".51" stop-color="#4603a4"/><stop offset=".57" stop-color="#5e0abb"/><stop offset=".64" stop-color="#931aef"/><stop offset=".82" stop-color="#9725ee"/><stop offset="1" stop-color="#a146ea"/></radialGradient><radialGradient id="d" cx="0" cy="0" r="1" gradientUnits="userSpaceOnUse" gradientTransform="matrix(76.6744 347.102 -1038.83 234.681 100.872 5.096)"><stop offset="0" stop-color="#e5bff8"/><stop offset=".17" stop-color="#dca9f7"/><stop offset=".4" stop-color="#c779f6"/><stop offset=".47" stop-color="#b569eb"/><stop offset=".51" stop-color="#4603a4"/><stop offset=".57" stop-color="#5e0abb"/><stop offset=".64" stop-color="#931aef"/><stop offset=".82" stop-color="#9725ee"/><stop offset="1" stop-color="#a146ea"/></radialGradient><radialGradient id="e" cx="0" cy="0" r="1" gradientUnits="userSpaceOnUse" gradientTransform="matrix(76.6744 347.102 -1038.83 234.681 100.872 5.096)"><stop offset="0" stop-color="#e5bff8"/><stop offset=".17" stop-color="#dca9f7"/><stop offset=".4" stop-color="#c779f6"/><stop offset=".47" stop-color="#b569eb"/><stop offset=".51" stop-color="#4603a4"/><stop offset=".57" stop-color="#5e0abb"/><stop offset=".64" stop-color="#931aef"/><stop offset=".82" stop-color="#9725ee"/><stop offset="1" stop-color="#a146ea"/></radialGradient></defs></svg>