<svg viewBox="0 0 352 352" xmlns="http://www.w3.org/2000/svg" xml:space="preserve" fill-rule="evenodd" clip-rule="evenodd" stroke-linejoin="round" stroke-miterlimit="2"><path fill="none" d="M0 0h352v352H0z"/><path d="M113.189 323.181C56.07 298.751 16 242.018 16 176 16 87.694 87.694 16 176 16s160 71.694 160 160c0 66.018-40.07 122.751-97.189 147.181l-3.805-14.272a11.92 11.92 0 0 0-.441-1.335C284.886 285.122 320 234.629 320 176c0-79.476-64.524-144-144-144S32 96.524 32 176c0 58.629 35.114 109.122 85.435 131.574-.172.434-.32.879-.441 1.335l-3.805 14.272Z" fill="url(#a)"/><path d="M113.189 323.181C56.07 298.751 16 242.018 16 176 16 87.694 87.694 16 176 16s160 71.694 160 160c0 66.018-40.07 122.751-97.189 147.181l-3.805-14.272a11.92 11.92 0 0 0-.441-1.335C284.886 285.122 320 234.629 320 176c0-79.476-64.524-144-144-144S32 96.524 32 176c0 58.629 35.114 109.122 85.435 131.574-.172.434-.32.879-.441 1.335l-3.805 14.272Zm126.184-13.42C289.384 286.01 324 235.015 324 176c0-81.683-66.317-148-148-148S28 94.317 28 176c0 59.015 34.616 110.01 84.627 133.761l-2.095 7.858C57.102 292.855 20 238.726 20 176 20 89.901 89.901 20 176 20s156 69.901 156 156c0 62.726-37.102 116.855-90.532 141.619l-2.095-7.858Z" fill="#edccfd" fill-opacity=".5"/><path d="M138.357 300.457C84.939 284.301 46 234.662 46 176c0-71.749 58.251-130 130-130s130 58.251 130 130c0 58.662-38.939 108.301-92.358 124.457-2.701-.396-6.043-1.341-9.637-3.4a131.48 131.48 0 0 1-2.823-1.664C256.452 283.775 298 234.701 298 176c0-67.334-54.666-122-122-122S54 108.666 54 176c0 58.701 41.548 107.775 96.825 119.395-.91.548-1.854 1.103-2.83 1.662-3.594 2.059-6.937 3.004-9.638 3.4Z" fill="url(#b)"/><path d="M138.357 300.457C84.939 284.301 46 234.662 46 176c0-71.749 58.251-130 130-130s130 58.251 130 130c0 58.662-38.939 108.301-92.358 124.457-2.701-.396-6.043-1.341-9.637-3.4a131.48 131.48 0 0 1-2.823-1.664C256.452 283.775 298 234.701 298 176c0-67.334-54.666-122-122-122S54 108.666 54 176c0 58.701 41.548 107.775 96.825 119.395-.91.548-1.854 1.103-2.83 1.662-3.594 2.059-6.937 3.004-9.638 3.4Zm68.266-4.275C260.273 282.531 300 233.868 300 176c0-68.437-55.563-124-124-124S52 107.563 52 176c0 57.868 39.726 106.531 93.377 120.182-2.526 1.233-4.873 1.895-6.874 2.228h-.002C86.128 282.365 48 233.6 48 176c0-70.645 57.355-128 128-128 70.645 0 128 57.355 128 128 0 57.6-38.128 106.365-90.501 122.41-2.002-.333-4.35-.995-6.876-2.228Z" fill="#edccfd" fill-opacity=".5"/><path d="M174.386 218.307a2.001 2.001 0 0 0 3.227-.001c7.192-9.82 36.259-49.526 42.735-58.577a2 2 0 0 0-1.618-3.176h-30.35a2 2 0 0 1-1.511-3.31c13.646-15.741 35.699-41.174 36.782-42.429.929-1.077 2.263-.98 2.816-.318 4.778 5.725 24.252 31.875 28.658 37.815.521.702.526 1.662.012 2.369L177.6 257.3c-.375.518-.96.7-1.6.7-.64 0-1.241-.19-1.618-.707L96.863 150.68a2.002 2.002 0 0 1 .012-2.369c4.406-5.94 23.88-32.09 28.658-37.815.553-.662 1.887-.759 2.816.318 1.083 1.255 23.136 26.688 36.782 42.429a1.999 1.999 0 0 1-1.511 3.31h-30.35a2 2 0 0 0-1.618 3.176c7.386 10.322 35.656 48.919 42.734 58.578Zm3.119-76.99a2 2 0 0 1-3.01 0c-4.465-5.102-17.689-22.253-23.593-29a2.002 2.002 0 0 1 1.506-3.317h47.184a2.001 2.001 0 0 1 1.506 3.317c-5.904 6.747-19.128 23.898-23.593 29Z" fill="url(#c)"/><path d="M174.386 218.307a2.001 2.001 0 0 0 3.227-.001c7.192-9.82 36.259-49.526 42.735-58.577a2 2 0 0 0-1.618-3.176h-30.35a2 2 0 0 1-1.511-3.31c13.646-15.741 35.699-41.174 36.782-42.429.929-1.077 2.263-.98 2.816-.318 4.778 5.725 24.252 31.875 28.658 37.815.521.702.526 1.662.012 2.369L177.6 257.3c-.375.518-.96.7-1.6.7-.64 0-1.241-.19-1.618-.707L96.863 150.68a2.002 2.002 0 0 1 .012-2.369c4.406-5.94 23.88-32.09 28.658-37.815.553-.662 1.887-.759 2.816.318 1.083 1.255 23.136 26.688 36.782 42.429a1.999 1.999 0 0 1-1.511 3.31h-30.35a2 2 0 0 0-1.618 3.176c7.386 10.322 35.656 48.919 42.734 58.578Zm38.611-89.095 12.133-13.998c6.178 7.814 20.84 27.481 25.907 34.302l-75.043 103.191-75.031-103.191c5.069-6.825 19.731-26.489 25.907-34.302l12.133 13.998 20.236 23.341H133.27a6 6 0 0 0-4.871 9.504c7.39 10.328 35.678 48.949 42.76 58.614h.001a5.999 5.999 0 0 0 9.681-.002c7.196-9.827 36.28-49.556 42.76-58.612a6 6 0 0 0-4.871-9.504h-25.969l20.236-23.341Zm-35.492 12.105a2 2 0 0 1-3.01 0c-4.465-5.102-17.689-22.253-23.593-29a2.002 2.002 0 0 1 1.506-3.317h47.184a2.001 2.001 0 0 1 1.506 3.317c-5.904 6.747-19.128 23.898-23.593 29ZM156.721 113h38.557c-5.817 7.013-14.675 18.379-19.278 23.907-4.597-5.521-13.439-16.864-19.279-23.907Z" fill="#edccfd" fill-opacity=".5"/><path d="m124.724 310.97-4.133 15.502a4.001 4.001 0 0 0 2.575 4.817C139.743 336.935 157.517 340 176 340c18.483 0 36.257-3.065 52.834-8.711a4.001 4.001 0 0 0 2.575-4.817l-4.133-15.502a4 4 0 0 0-4.985-2.81s-10.135 2.785-22.262-4.161c-12.918-7.399-21.354-14.973-21.354-14.973a4 4 0 0 0-5.41.055s-7.557 7.049-21.294 14.918c-12.127 6.946-22.262 4.161-22.262 4.161a4.001 4.001 0 0 0-4.985 2.81Z" fill="url(#d)"/><path d="m124.724 310.97-4.133 15.502a4.001 4.001 0 0 0 2.575 4.817C139.743 336.935 157.517 340 176 340c18.483 0 36.257-3.065 52.834-8.711a4.001 4.001 0 0 0 2.575-4.817l-4.133-15.502a4 4 0 0 0-4.985-2.81s-10.135 2.785-22.262-4.161c-12.918-7.399-21.354-14.973-21.354-14.973a4 4 0 0 0-5.41.055s-7.557 7.049-21.294 14.918c-12.127 6.946-22.262 4.161-22.262 4.161a4.001 4.001 0 0 0-4.985 2.81ZM176 292l.003.003s8.701 7.828 22.038 15.467c13.77 7.887 25.31 4.547 25.31 4.547l.06-.017c-.602.176-.184.326.084.315l4.049 15.187C211.372 333.011 194.032 336 176 336c-18.032 0-35.372-2.989-51.544-8.498l4.049-15.187.028.002.022-.001c.025.085.111.049.195-.03.112-.031.186-.085.127-.152l.012-.017.018-.035c1.774.433 12.484 2.587 25.052-4.612 14.223-8.147 22.035-15.464 22.035-15.464L176 292Z" fill="#edccfd" fill-opacity=".5"/><defs><radialGradient id="a" cx="0" cy="0" r="1" gradientUnits="userSpaceOnUse" gradientTransform="matrix(77.6744 347.102 -1038.82 237.678 100.872 5.096)"><stop offset="0" stop-color="#e5bff8"/><stop offset=".17" stop-color="#dca9f7"/><stop offset=".4" stop-color="#c779f6"/><stop offset=".47" stop-color="#b569eb"/><stop offset=".51" stop-color="#4603a4"/><stop offset=".57" stop-color="#5e0abb"/><stop offset=".64" stop-color="#931aef"/><stop offset=".82" stop-color="#9725ee"/><stop offset="1" stop-color="#a146ea"/></radialGradient><radialGradient id="b" cx="0" cy="0" r="1" gradientUnits="userSpaceOnUse" gradientTransform="matrix(77.6744 347.102 -1038.82 237.678 100.872 5.096)"><stop offset="0" stop-color="#e5bff8"/><stop offset=".17" stop-color="#dca9f7"/><stop offset=".4" stop-color="#c779f6"/><stop offset=".47" stop-color="#b569eb"/><stop offset=".51" stop-color="#4603a4"/><stop offset=".57" stop-color="#5e0abb"/><stop offset=".64" stop-color="#931aef"/><stop offset=".82" stop-color="#9725ee"/><stop offset="1" stop-color="#a146ea"/></radialGradient><radialGradient id="c" cx="0" cy="0" r="1" gradientUnits="userSpaceOnUse" gradientTransform="matrix(77.6744 347.102 -1038.82 237.678 100.872 5.096)"><stop offset="0" stop-color="#e5bff8"/><stop offset=".17" stop-color="#dca9f7"/><stop offset=".4" stop-color="#c779f6"/><stop offset=".47" stop-color="#b569eb"/><stop offset=".51" stop-color="#4603a4"/><stop offset=".57" stop-color="#5e0abb"/><stop offset=".64" stop-color="#931aef"/><stop offset=".82" stop-color="#9725ee"/><stop offset="1" stop-color="#a146ea"/></radialGradient><radialGradient id="d" cx="0" cy="0" r="1" gradientUnits="userSpaceOnUse" gradientTransform="matrix(77.6744 347.102 -1038.82 237.678 100.872 5.096)"><stop offset="0" stop-color="#e5bff8"/><stop offset=".17" stop-color="#dca9f7"/><stop offset=".4" stop-color="#c779f6"/><stop offset=".47" stop-color="#b569eb"/><stop offset=".51" stop-color="#4603a4"/><stop offset=".57" stop-color="#5e0abb"/><stop offset=".64" stop-color="#931aef"/><stop offset=".82" stop-color="#9725ee"/><stop offset="1" stop-color="#a146ea"/></radialGradient></defs></svg>