<svg viewBox="0 0 352 352" xmlns="http://www.w3.org/2000/svg" xml:space="preserve" fill-rule="evenodd" clip-rule="evenodd" stroke-linejoin="round" stroke-miterlimit="2"><path fill="none" d="M0 0h352v352H0z"/><path d="M91.294 292.431C115.076 309.769 144.353 320 176 320c31.623 0 60.88-10.216 84.642-27.522.296.376.615.736.957 1.077l10.427 10.401C245.276 324.071 212.02 336 176 336c-36.064 0-69.358-11.958-96.128-32.122l10.773-10.746c.226-.226.443-.459.649-.701Zm242.405-89.266-15.174-4.087 15.174 4.087Zm-299.926-4.524-.054.014.054-.014ZM238.835 28.829C295.941 53.264 336 109.991 336 176c0 6.491-.387 12.891-1.142 19.192l-14.253-3.838a11.908 11.908 0 0 0-1.385-.287c.516-4.955.78-9.981.78-15.067 0-58.621-35.105-109.108-85.413-131.564.172-.434.32-.88.441-1.335l3.807-14.272Zm-125.622-.02 3.803 14.273c.121.455.269.901.441 1.335C67.124 66.864 32 117.363 32 176c0 4.959.251 9.86.741 14.689-.369.062-.737.143-1.102.241L17.1 194.845c-.726-6.18-1.1-12.469-1.1-18.845 0-66.027 40.081-122.766 97.213-147.191Zm118.138-2.961-3.423 12.831 3.423-12.831Z" fill="url(#a)"/><path d="M91.294 292.431C115.076 309.769 144.353 320 176 320c31.623 0 60.88-10.216 84.642-27.522.296.376.615.736.957 1.077l10.427 10.401C245.276 324.071 212.02 336 176 336c-36.064 0-69.358-11.958-96.128-32.122l10.773-10.746c.226-.226.443-.459.649-.701Zm.466 5.239C115.678 314.27 144.712 324 176 324c31.245 0 60.242-9.704 84.134-26.257l5.753 5.739C240.475 321.443 209.461 332 176 332c-33.505 0-64.558-10.586-89.992-28.593l5.752-5.737ZM238.835 28.829C295.941 53.264 336 109.991 336 176c0 6.491-.387 12.891-1.142 19.192l-14.253-3.838a11.908 11.908 0 0 0-1.385-.287c.516-4.955.78-9.981.78-15.067 0-58.621-35.105-109.108-85.413-131.564.172-.434.32-.88.441-1.335l3.807-14.272Zm-125.622-.02 3.803 14.273c.121.455.269.901.441 1.335C67.124 66.864 32 117.363 32 176c0 4.959.251 9.86.741 14.689-.369.062-.737.143-1.102.241L17.1 194.845c-.726-6.18-1.1-12.469-1.1-18.845 0-66.027 40.081-122.766 97.213-147.191Zm126.182 13.44 2.096-7.857C294.908 59.16 332 113.282 332 176c0 4.754-.213 9.459-.631 14.11l-7.85-2.114c.319-3.959.481-7.959.481-11.996 0-59.007-34.607-109.996-84.605-133.751Zm-126.746-.021C62.625 65.976 28 116.977 28 176c0 3.92.153 7.804.454 11.645l-7.854 2.116c-.397-4.534-.6-9.124-.6-13.761 0-62.735 37.112-116.87 90.555-141.63l2.094 7.858Z" fill="#f9eebc" fill-opacity=".5"/><path d="M266.81 257.437c.021 1.082.03 2.197.026 3.345-.014 4.081-.842 7.41-1.831 9.936C241.743 292.59 210.425 306 176 306c-34.081 0-65.116-13.143-88.314-34.636-1.172-2.623-2.262-6.319-2.278-11.006-.003-.902.004-1.789.018-2.659C107.76 282.441 140.078 298 176 298c36.05 0 68.47-15.67 90.81-40.563Zm-202.815-33.03-.107-.052.107.052ZM213.663 51.549C267.07 67.711 306 117.345 306 176c0 10.196-1.176 20.118-3.399 29.633-1.694 2.141-4.183 4.561-7.76 6.642-.963.561-1.913 1.097-2.848 1.611C295.891 201.96 298 189.224 298 176c0-58.695-41.539-107.764-96.805-119.391a146.91 146.91 0 0 1 2.83-1.661c3.594-2.058 6.936-3.003 9.638-3.399Zm-75.285-.013c2.701.398 6.044 1.343 9.637 3.402.969.555 1.911 1.112 2.823 1.664C95.558 68.213 54 117.292 54 176c0 12.975 2.03 25.48 5.789 37.211-.78-.435-1.576-.888-2.386-1.359-3.937-2.291-6.555-4.992-8.247-7.278A130.237 130.237 0 0 1 46 176c0-58.669 38.949-108.313 92.378-124.464Zm50.973 3.188.133-.092-.133.092ZM53.167 218.641l.213.126-.213-.126Zm146.595-170.47-.033.018.033-.018Z" fill="url(#b)"/><path d="M266.81 257.437c.021 1.082.03 2.197.026 3.345-.014 4.081-.842 7.41-1.831 9.936C241.743 292.59 210.425 306 176 306c-34.081 0-65.116-13.143-88.314-34.636-1.172-2.623-2.262-6.319-2.278-11.006-.003-.902.004-1.789.018-2.659C107.76 282.441 140.078 298 176 298c36.05 0 68.47-15.67 90.81-40.563Zm-2.036 5.103c-.186 2.783-.772 5.135-1.473 7.033C240.43 290.925 209.73 304 176 304c-33.406 0-63.841-12.826-86.648-33.82-.807-1.898-1.542-4.352-1.822-7.33C110.035 285.773 141.369 300 176 300c34.787 0 66.248-14.356 88.774-37.46ZM213.663 51.549C267.07 67.711 306 117.345 306 176c0 10.196-1.176 20.118-3.399 29.633-1.694 2.141-4.183 4.561-7.76 6.642-.963.561-1.913 1.097-2.848 1.611C295.891 201.96 298 189.224 298 176c0-58.695-41.539-107.764-96.805-119.391a146.91 146.91 0 0 1 2.83-1.661c3.594-2.058 6.936-3.003 9.638-3.399Zm-75.285-.013c2.701.398 6.044 1.343 9.637 3.402.969.555 1.911 1.112 2.823 1.664C95.558 68.213 54 117.292 54 176c0 12.975 2.03 25.48 5.789 37.211-.78-.435-1.576-.888-2.386-1.359-3.937-2.291-6.555-4.992-8.247-7.278A130.237 130.237 0 0 1 46 176c0-58.669 38.949-108.313 92.378-124.464ZM295.393 209.57A123.871 123.871 0 0 0 300 176c0-57.862-39.717-106.519-93.357-120.177 2.525-1.233 4.873-1.894 6.874-2.227h.002C265.881 69.647 304 118.407 304 176c0 9.881-1.122 19.501-3.243 28.735-1.29 1.566-3.036 3.266-5.364 4.835ZM145.396 55.813C91.736 69.458 52 118.125 52 176c0 11.368 1.533 22.381 4.404 32.839-2.396-1.686-4.142-3.5-5.389-5.122A128.202 128.202 0 0 1 48 176c0-57.607 38.138-106.377 90.521-122.417h.002c2.001.334 4.349.996 6.873 2.23Z" fill="#f9eebc" fill-opacity=".5"/><path d="M176 220c19.387 0 35.826-12.507 41.682-29.931.029-.087.083-.207.137-.226.054-.02.078-.001.187.109l21.791 21.791a2 2 0 0 1 .488 2.032L229.35 247.43a2 2 0 0 1-1.902 1.382H124.552a2 2 0 0 1-1.902-1.382l-10.935-33.655a2 2 0 0 1 .488-2.032l21.791-21.791c.109-.11.133-.129.187-.109.054.019.108.139.137.226C140.174 207.493 156.613 220 176 220Z" fill="url(#c)"/><path d="M176 248.812h-51.448a2 2 0 0 1-1.902-1.382l-10.935-33.655a2 2 0 0 1 .488-2.032l21.791-21.791c.109-.11.133-.129.187-.109.054.019.108.139.137.226C140.174 207.493 156.613 220 176 220s35.826-12.507 41.682-29.931c.029-.087.083-.207.137-.226.054-.02.078-.001.187.109l21.791 21.791a2 2 0 0 1 .488 2.032L229.35 247.43a2 2 0 0 1-1.902 1.382H176v-4h49.995l10.107-31.108-16.866-16.866C211.492 212.928 195.051 224 176 224s-35.492-11.072-43.236-27.162l-16.866 16.866 10.107 31.108H176v4Z" fill="#f9eebc" fill-opacity=".5"/><path d="M174.824 86.854a2.002 2.002 0 0 1 2.352 0l83.244 60.48c.7.51.994 1.412.726 2.236l-13.925 42.857a2 2 0 0 1-3.316.796l-24.06-24.061a2.005 2.005 0 0 1-.554-1.061C215.564 147.579 197.587 132 176 132c-21.587 0-39.564 15.579-43.291 36.101a2.005 2.005 0 0 1-.554 1.061l-24.06 24.061a2.001 2.001 0 0 1-3.316-.796L90.854 149.57a2.001 2.001 0 0 1 .726-2.236l83.244-60.48Z" fill="url(#d)"/><path d="M174.824 86.854a2.002 2.002 0 0 1 2.352 0l83.244 60.48c.7.51.994 1.412.726 2.236l-13.925 42.857a2 2 0 0 1-3.316.796l-24.06-24.061a2.005 2.005 0 0 1-.554-1.061C215.564 147.579 197.587 132 176 132c-21.587 0-39.564 15.579-43.291 36.101a2.005 2.005 0 0 1-.554 1.061l-24.06 24.061a2.001 2.001 0 0 1-3.316-.796L90.854 149.57a2.001 2.001 0 0 1 .726-2.236l83.244-60.48Zm48.283 79.913c-4.275-21.908-23.469-38.504-46.556-38.764L176 128c-23.333 0-42.799 16.686-47.107 38.767l-21.319 21.32-12.467-38.371L176 90.944l80.893 58.772-12.467 38.371-21.319-21.32Z" fill="#f9eebc" fill-opacity=".5"/><circle cx="176" cy="176" r="28" fill="url(#e)"/><path d="M176 148c15.454 0 28 12.546 28 28s-12.546 28-28 28-28-12.546-28-28 12.546-28 28-28Zm0 4c13.246 0 24 10.754 24 24s-10.754 24-24 24-24-10.754-24-24 10.754-24 24-24Z" fill="#f9eebc" fill-opacity=".5"/><path d="m33.719 198.655-15.492 4.172a4 4 0 0 0-2.883 4.639c3.398 17.179 9.63 34.104 18.872 50.111 9.242 16.007 20.783 29.866 33.961 41.399a4 4 0 0 0 5.459-.178l11.359-11.33a3.998 3.998 0 0 0-.059-5.722s-7.48-7.384-7.528-21.36c-.051-14.887 2.29-25.979 2.29-25.979a3.999 3.999 0 0 0-2.752-4.658s-9.884-3.02-23.566-10.982c-12.08-7.03-14.735-17.2-14.735-17.2a4.001 4.001 0 0 0-4.926-2.912Z" fill="url(#f)"/><path d="m33.719 198.655-15.492 4.172a4 4 0 0 0-2.883 4.639c3.398 17.179 9.63 34.104 18.872 50.111 9.242 16.007 20.783 29.866 33.961 41.399a4 4 0 0 0 5.459-.178l11.359-11.33a3.998 3.998 0 0 0-.059-5.722s-7.48-7.384-7.528-21.36c-.051-14.887 2.29-25.979 2.29-25.979a3.999 3.999 0 0 0-2.752-4.658s-9.884-3.02-23.566-10.982c-12.08-7.03-14.735-17.2-14.735-17.2a4.001 4.001 0 0 0-4.926-2.912Zm42.058 34.919.008.003v.004s-2.429 11.449-2.377 26.819c.05 14.483 7.271 22.682 8.532 24.002l-.02.032-.01.02c-.087-.019-.096.073-.067.185-.028.113-.016.205.071.184l.01.02.015.023-11.127 11.1c-12.857-11.251-24.116-24.773-33.132-40.389-9.016-15.617-15.097-32.128-18.412-48.888l15.176-4.087c.125.238.464.525.315-.085l.016.061s2.877 11.664 16.593 19.646c14.167 8.244 24.409 11.35 24.409 11.35Z" fill="#f9eebc" fill-opacity=".5"/><path d="m267.249 287.891 11.359 11.331a4 4 0 0 0 5.459.178c13.178-11.533 24.719-25.393 33.961-41.4 9.242-16.007 15.474-32.932 18.873-50.111a4 4 0 0 0-2.884-4.639l-15.492-4.172a3.997 3.997 0 0 0-4.925 2.913s-2.656 10.169-14.735 17.199c-12.867 7.488-23.644 11.006-23.644 11.006a4 4 0 0 0-2.657 4.713s2.326 10.069 2.272 25.9c-.048 13.976-7.528 21.36-7.528 21.36a4.001 4.001 0 0 0-.059 5.722Z" fill="url(#g)"/><path d="m267.249 287.891 11.359 11.331a4 4 0 0 0 5.459.178c13.178-11.533 24.719-25.393 33.961-41.4 9.242-16.007 15.474-32.932 18.873-50.111a4 4 0 0 0-2.884-4.639l-15.492-4.172a3.997 3.997 0 0 0-4.925 2.913s-2.656 10.169-14.735 17.199c-12.867 7.488-23.644 11.006-23.644 11.006a4 4 0 0 0-2.657 4.713s2.326 10.069 2.272 25.9c-.048 13.976-7.528 21.36-7.528 21.36a4.001 4.001 0 0 0-.059 5.722Zm50.538-84.84.013-.025 15.177 4.087c-3.316 16.76-9.397 33.271-18.413 48.887s-20.275 29.138-33.131 40.39l-11.359-11.331.045-.043s8.662-8.324 8.717-24.193c.056-16.391-2.375-26.814-2.375-26.814l-.002-.009c.472 2.023 1.975-.643 0 0l.004-.001s11.13-3.622 24.414-11.352c12.518-7.285 16.008-17.637 16.52-19.39l.039.002.021-.002c.028.085.112.047.195-.034.111-.033.184-.089.123-.154l.012-.018Zm15.19 4.062Z" fill="#f9eebc" fill-opacity=".5"/><path d="m227.298 41.039 4.136-15.502a4 4 0 0 0-2.575-4.817c-16.576-5.649-34.349-8.717-52.832-8.72-18.483-.003-36.257 3.059-52.835 8.703a4 4 0 0 0-2.576 4.816l4.13 15.503a3.997 3.997 0 0 0 4.985 2.81s10.135-2.783 22.261 4.165c12.917 7.402 21.351 14.976 21.351 14.976a4 4 0 0 0 5.411-.054s7.557-7.048 21.296-14.914c12.129-6.944 22.263-4.157 22.263-4.157a4.001 4.001 0 0 0 4.985-2.809Z" fill="url(#h)"/><path d="m227.298 41.039 4.136-15.502a4 4 0 0 0-2.575-4.817c-16.576-5.649-34.349-8.717-52.832-8.72-18.483-.003-36.257 3.059-52.835 8.703a4 4 0 0 0-2.576 4.816l4.13 15.503a3.997 3.997 0 0 0 4.985 2.81s10.135-2.783 22.261 4.165c12.917 7.402 21.351 14.976 21.351 14.976a4 4 0 0 0 5.411-.054s7.557-7.048 21.296-14.914c12.129-6.944 22.263-4.157 22.263-4.157a4.001 4.001 0 0 0 4.985-2.809Zm-3.78-1.346-.029-.002-.021.001c-.026-.085-.111-.049-.195.03-.112.03-.187.085-.127.151l-.012.018-.018.035c-1.774-.433-12.484-2.589-25.054 4.608-14.224 8.144-22.036 15.46-22.036 15.46a.043.043 0 0 0-.007.006l-.003-.003s-8.7-7.829-22.035-15.471c-12.567-7.2-23.278-5.048-25.052-4.616l-.018-.034-.012-.018c.06-.066-.015-.121-.127-.151-.083-.08-.169-.116-.195-.031l-.021-.001-.029.002-4.046-15.188c16.173-5.505 33.513-8.492 51.545-8.489 18.033.003 35.372 2.995 51.543 8.506-1.991-.678-.542 2.033 0 0l-4.051 15.187Z" fill="#f9eebc" fill-opacity=".5"/><defs><radialGradient id="a" cx="0" cy="0" r="1" gradientUnits="userSpaceOnUse" gradientTransform="matrix(100.472 348.82 -1054.29 303.671 101.41 5.18)"><stop offset="0" stop-color="#e2d7a1"/><stop offset=".13" stop-color="#decf92"/><stop offset=".17" stop-color="#d3bd6e"/><stop offset=".21" stop-color="#c7a947"/><stop offset=".34" stop-color="#caae50"/><stop offset=".41" stop-color="#dece87"/><stop offset=".49" stop-color="#d9c77c"/><stop offset=".52" stop-color="#ceb965"/><stop offset=".55" stop-color="#c4ab4f"/><stop offset=".77" stop-color="#bfa447"/><stop offset="1" stop-color="#af8e31"/></radialGradient><radialGradient id="b" cx="0" cy="0" r="1" gradientUnits="userSpaceOnUse" gradientTransform="matrix(100.472 348.82 -1054.29 303.671 101.41 5.18)"><stop offset="0" stop-color="#e2d7a1"/><stop offset=".13" stop-color="#decf92"/><stop offset=".17" stop-color="#d3bd6e"/><stop offset=".21" stop-color="#c7a947"/><stop offset=".34" stop-color="#caae50"/><stop offset=".41" stop-color="#dece87"/><stop offset=".49" stop-color="#d9c77c"/><stop offset=".52" stop-color="#ceb965"/><stop offset=".55" stop-color="#c4ab4f"/><stop offset=".77" stop-color="#bfa447"/><stop offset="1" stop-color="#af8e31"/></radialGradient><radialGradient id="c" cx="0" cy="0" r="1" gradientUnits="userSpaceOnUse" gradientTransform="matrix(100.472 348.82 -1054.29 303.671 101.41 5.18)"><stop offset="0" stop-color="#e2d7a1"/><stop offset=".13" stop-color="#decf92"/><stop offset=".17" stop-color="#d3bd6e"/><stop offset=".21" stop-color="#c7a947"/><stop offset=".34" stop-color="#caae50"/><stop offset=".41" stop-color="#dece87"/><stop offset=".49" stop-color="#d9c77c"/><stop offset=".52" stop-color="#ceb965"/><stop offset=".55" stop-color="#c4ab4f"/><stop offset=".77" stop-color="#bfa447"/><stop offset="1" stop-color="#af8e31"/></radialGradient><radialGradient id="d" cx="0" cy="0" r="1" gradientUnits="userSpaceOnUse" gradientTransform="matrix(100.472 348.82 -1054.29 303.671 101.41 5.18)"><stop offset="0" stop-color="#e2d7a1"/><stop offset=".13" stop-color="#decf92"/><stop offset=".17" stop-color="#d3bd6e"/><stop offset=".21" stop-color="#c7a947"/><stop offset=".34" stop-color="#caae50"/><stop offset=".41" stop-color="#dece87"/><stop offset=".49" stop-color="#d9c77c"/><stop offset=".52" stop-color="#ceb965"/><stop offset=".55" stop-color="#c4ab4f"/><stop offset=".77" stop-color="#bfa447"/><stop offset="1" stop-color="#af8e31"/></radialGradient><radialGradient id="e" cx="0" cy="0" r="1" gradientUnits="userSpaceOnUse" gradientTransform="matrix(100.472 348.82 -1054.29 303.671 101.41 5.18)"><stop offset="0" stop-color="#e2d7a1"/><stop offset=".13" stop-color="#decf92"/><stop offset=".17" stop-color="#d3bd6e"/><stop offset=".21" stop-color="#c7a947"/><stop offset=".34" stop-color="#caae50"/><stop offset=".41" stop-color="#dece87"/><stop offset=".49" stop-color="#d9c77c"/><stop offset=".52" stop-color="#ceb965"/><stop offset=".55" stop-color="#c4ab4f"/><stop offset=".77" stop-color="#bfa447"/><stop offset="1" stop-color="#af8e31"/></radialGradient><radialGradient id="f" cx="0" cy="0" r="1" gradientUnits="userSpaceOnUse" gradientTransform="matrix(100.472 348.82 -1054.29 303.671 101.41 5.18)"><stop offset="0" stop-color="#e2d7a1"/><stop offset=".13" stop-color="#decf92"/><stop offset=".17" stop-color="#d3bd6e"/><stop offset=".21" stop-color="#c7a947"/><stop offset=".34" stop-color="#caae50"/><stop offset=".41" stop-color="#dece87"/><stop offset=".49" stop-color="#d9c77c"/><stop offset=".52" stop-color="#ceb965"/><stop offset=".55" stop-color="#c4ab4f"/><stop offset=".77" stop-color="#bfa447"/><stop offset="1" stop-color="#af8e31"/></radialGradient><radialGradient id="g" cx="0" cy="0" r="1" gradientUnits="userSpaceOnUse" gradientTransform="matrix(100.472 348.82 -1054.29 303.671 101.41 5.18)"><stop offset="0" stop-color="#e2d7a1"/><stop offset=".13" stop-color="#decf92"/><stop offset=".17" stop-color="#d3bd6e"/><stop offset=".21" stop-color="#c7a947"/><stop offset=".34" stop-color="#caae50"/><stop offset=".41" stop-color="#dece87"/><stop offset=".49" stop-color="#d9c77c"/><stop offset=".52" stop-color="#ceb965"/><stop offset=".55" stop-color="#c4ab4f"/><stop offset=".77" stop-color="#bfa447"/><stop offset="1" stop-color="#af8e31"/></radialGradient><radialGradient id="h" cx="0" cy="0" r="1" gradientUnits="userSpaceOnUse" gradientTransform="matrix(100.472 348.82 -1054.29 303.671 101.41 5.18)"><stop offset="0" stop-color="#e2d7a1"/><stop offset=".13" stop-color="#decf92"/><stop offset=".17" stop-color="#d3bd6e"/><stop offset=".21" stop-color="#c7a947"/><stop offset=".34" stop-color="#caae50"/><stop offset=".41" stop-color="#dece87"/><stop offset=".49" stop-color="#d9c77c"/><stop offset=".52" stop-color="#ceb965"/><stop offset=".55" stop-color="#c4ab4f"/><stop offset=".77" stop-color="#bfa447"/><stop offset="1" stop-color="#af8e31"/></radialGradient></defs></svg>