<svg viewBox="0 0 352 352" xmlns="http://www.w3.org/2000/svg" xml:space="preserve" fill-rule="evenodd" clip-rule="evenodd" stroke-linejoin="round" stroke-miterlimit="2"><path fill="none" d="M0 0h352v352H0z"/><path d="M113.189 323.181C56.07 298.751 16 242.018 16 176 16 87.694 87.694 16 176 16s160 71.694 160 160c0 66.018-40.07 122.751-97.189 147.181l-3.805-14.272a11.92 11.92 0 0 0-.441-1.335C284.886 285.122 320 234.629 320 176c0-79.476-64.524-144-144-144S32 96.524 32 176c0 58.629 35.114 109.122 85.435 131.574-.172.434-.32.879-.441 1.335l-3.805 14.272Z" fill="url(#a)"/><path d="M113.189 323.181C56.07 298.751 16 242.018 16 176 16 87.694 87.694 16 176 16s160 71.694 160 160c0 66.018-40.07 122.751-97.189 147.181l-3.805-14.272a11.92 11.92 0 0 0-.441-1.335C284.886 285.122 320 234.629 320 176c0-79.476-64.524-144-144-144S32 96.524 32 176c0 58.629 35.114 109.122 85.435 131.574-.172.434-.32.879-.441 1.335l-3.805 14.272Zm126.184-13.42C289.384 286.01 324 235.015 324 176c0-81.683-66.317-148-148-148S28 94.317 28 176c0 59.015 34.616 110.01 84.627 133.761l-2.095 7.858C57.102 292.855 20 238.726 20 176 20 89.901 89.901 20 176 20s156 69.901 156 156c0 62.726-37.102 116.855-90.532 141.619l-2.095-7.858Z" fill="#cdeefe" fill-opacity=".5"/><path d="M138.357 300.457C84.939 284.301 46 234.662 46 176c0-71.749 58.251-130 130-130s130 58.251 130 130c0 58.662-38.939 108.301-92.358 124.457-2.701-.396-6.043-1.341-9.637-3.4a131.48 131.48 0 0 1-2.823-1.664C256.452 283.775 298 234.701 298 176c0-67.334-54.666-122-122-122S54 108.666 54 176c0 58.701 41.548 107.775 96.825 119.395-.91.548-1.854 1.103-2.83 1.662-3.594 2.059-6.937 3.004-9.638 3.4Zm51.031-3.185.197.137-.197-.137Z" fill="url(#b)"/><path d="M138.357 300.457C84.939 284.301 46 234.662 46 176c0-71.749 58.251-130 130-130s130 58.251 130 130c0 58.662-38.939 108.301-92.358 124.457-2.701-.396-6.043-1.341-9.637-3.4a131.48 131.48 0 0 1-2.823-1.664C256.452 283.775 298 234.701 298 176c0-67.334-54.666-122-122-122S54 108.666 54 176c0 58.701 41.548 107.775 96.825 119.395-.91.548-1.854 1.103-2.83 1.662-3.594 2.059-6.937 3.004-9.638 3.4Zm68.266-4.275C260.273 282.531 300 233.868 300 176c0-68.437-55.563-124-124-124S52 107.563 52 176c0 57.868 39.726 106.531 93.377 120.182-2.526 1.233-4.873 1.895-6.874 2.228h-.002C86.128 282.365 48 233.6 48 176c0-70.645 57.355-128 128-128 70.645 0 128 57.355 128 128 0 57.6-38.128 106.365-90.501 122.41-2.002-.333-4.35-.995-6.876-2.228Z" fill="#cdeefe" fill-opacity=".5"/><path d="M193.194 132.383a2.212 2.212 0 0 0 2.104 1.529h10.31c.958 0 1.808.618 2.104 1.529l3.175 9.772a2.214 2.214 0 0 0 2.105 1.529h48.795a2.213 2.213 0 0 1 1.301 4.003l-39.477 28.681a2.212 2.212 0 0 0-.803 2.474l3.203 9.859a2.213 2.213 0 0 1-.804 2.474l-8.34 6.059a2.213 2.213 0 0 0-.804 2.474l15.061 46.353a2.212 2.212 0 0 1-3.405 2.474l-39.431-28.648a2.214 2.214 0 0 0-2.601 0l-8.386 6.094a2.215 2.215 0 0 1-2.602 0l-8.386-6.094a2.214 2.214 0 0 0-2.601 0l-39.431 28.648a2.212 2.212 0 0 1-3.405-2.474l15.061-46.353a2.213 2.213 0 0 0-.804-2.474l-8.34-6.059a2.213 2.213 0 0 1-.804-2.474l3.203-9.859a2.212 2.212 0 0 0-.803-2.474l-39.477-28.681a2.213 2.213 0 0 1 1.301-4.003h48.795c.959 0 1.809-.618 2.105-1.529l3.175-9.772a2.213 2.213 0 0 1 2.104-1.529h10.31c.958 0 1.808-.617 2.104-1.529l15.09-46.44a2.211 2.211 0 0 1 4.208 0l15.09 46.44ZM176 150.275c14.655 0 26.553 11.898 26.553 26.553 0 14.656-11.898 26.554-26.553 26.554-14.655 0-26.553-11.898-26.553-26.554 0-14.655 11.898-26.553 26.553-26.553Z" fill="url(#c)"/><path d="M193.194 132.383a2.212 2.212 0 0 0 2.104 1.529h10.31c.958 0 1.808.618 2.104 1.529l3.175 9.772a2.214 2.214 0 0 0 2.105 1.529h48.795a2.213 2.213 0 0 1 1.301 4.003l-39.477 28.681a2.212 2.212 0 0 0-.803 2.474l3.203 9.859a2.213 2.213 0 0 1-.804 2.474l-8.34 6.059a2.213 2.213 0 0 0-.804 2.474l15.061 46.353a2.212 2.212 0 0 1-3.405 2.474l-39.431-28.648a2.214 2.214 0 0 0-2.601 0l-8.386 6.094a2.215 2.215 0 0 1-2.602 0l-8.386-6.094a2.214 2.214 0 0 0-2.601 0l-39.431 28.648a2.212 2.212 0 0 1-3.405-2.474l15.061-46.353a2.213 2.213 0 0 0-.804-2.474l-8.34-6.059a2.213 2.213 0 0 1-.804-2.474l3.203-9.859a2.212 2.212 0 0 0-.803-2.474l-39.477-28.681a2.213 2.213 0 0 1 1.301-4.003h48.795c.959 0 1.809-.618 2.105-1.529l3.175-9.772a2.213 2.213 0 0 1 2.104-1.529h10.31c.958 0 1.808-.617 2.104-1.529l15.09-46.44a2.211 2.211 0 0 1 4.208 0l15.09 46.44ZM176 92.41l13.39 41.209a6.212 6.212 0 0 0 5.908 4.293h9.011l2.774 8.537a6.214 6.214 0 0 0 5.909 4.293h43.295L221.26 176.19a6.214 6.214 0 0 0-2.257 6.946l2.802 8.624-7.29 5.296a6.212 6.212 0 0 0-2.256 6.946l13.361 41.122-34.981-25.415a6.212 6.212 0 0 0-7.303 0l-7.336 5.33-7.336-5.33a6.212 6.212 0 0 0-7.303 0l-34.981 25.415 13.361-41.122a6.212 6.212 0 0 0-2.256-6.946l-7.29-5.296 2.802-8.624a6.214 6.214 0 0 0-2.257-6.946l-35.027-25.448h43.295a6.214 6.214 0 0 0 5.909-4.293l2.774-8.537h9.011a6.212 6.212 0 0 0 5.908-4.293L176 92.41Zm0 53.865c-16.863 0-30.553 13.69-30.553 30.553s13.69 30.554 30.553 30.554 30.553-13.691 30.553-30.554-13.69-30.553-30.553-30.553Zm0 4c14.655 0 26.553 11.898 26.553 26.553 0 14.656-11.898 26.554-26.553 26.554-14.655 0-26.553-11.898-26.553-26.554 0-14.655 11.898-26.553 26.553-26.553Z" fill="#cdeefe" fill-opacity=".5"/><path d="m124.724 310.97-4.133 15.502a4.001 4.001 0 0 0 2.575 4.817C139.743 336.935 157.517 340 176 340c18.483 0 36.257-3.065 52.834-8.711a4.001 4.001 0 0 0 2.575-4.817l-4.133-15.502a4 4 0 0 0-4.985-2.81s-10.135 2.785-22.262-4.161c-12.918-7.399-21.354-14.973-21.354-14.973a4 4 0 0 0-5.41.055s-7.557 7.049-21.294 14.918c-12.127 6.946-22.262 4.161-22.262 4.161a4.001 4.001 0 0 0-4.985 2.81Z" fill="url(#d)"/><path d="m124.724 310.97-4.133 15.502a4.001 4.001 0 0 0 2.575 4.817C139.743 336.935 157.517 340 176 340c18.483 0 36.257-3.065 52.834-8.711a4.001 4.001 0 0 0 2.575-4.817l-4.133-15.502a4 4 0 0 0-4.985-2.81s-10.135 2.785-22.262-4.161c-12.918-7.399-21.354-14.973-21.354-14.973a4 4 0 0 0-5.41.055s-7.557 7.049-21.294 14.918c-12.127 6.946-22.262 4.161-22.262 4.161a4.001 4.001 0 0 0-4.985 2.81Zm98.369 1.112.318-.082 4.133 15.502C211.372 333.011 194.032 336 176 336c-18.032 0-35.372-2.989-51.544-8.498l4.049-15.187.028.002.022-.001c.025.085.111.049.195-.03.112-.031.186-.085.127-.152l.012-.017.018-.035c1.774.433 12.484 2.587 25.052-4.612 14.223-8.147 22.035-15.464 22.035-15.464L176 292c-1.516 1.42 1.544 1.389 0 0l.003.003s8.701 7.828 22.038 15.467c12.568 7.199 23.278 5.045 25.052 4.612Z" fill="#cdeefe" fill-opacity=".5"/><defs><radialGradient id="a" cx="0" cy="0" r="1" gradientUnits="userSpaceOnUse" gradientTransform="matrix(90.6744 345.82 -1047.62 273.45 100.872 5.18)"><stop offset="0" stop-color="#d1eefa"/><stop offset=".2" stop-color="#c1e9f9"/><stop offset=".27" stop-color="#9edef8"/><stop offset=".33" stop-color="#79d3f6"/><stop offset=".45" stop-color="#68c4ec"/><stop offset=".51" stop-color="#046ab4"/><stop offset=".56" stop-color="#0b7ec6"/><stop offset=".63" stop-color="#1aacef"/><stop offset=".81" stop-color="#15a3e3"/><stop offset="1" stop-color="#068abe"/></radialGradient><radialGradient id="b" cx="0" cy="0" r="1" gradientUnits="userSpaceOnUse" gradientTransform="matrix(90.6744 345.82 -1047.62 273.45 100.872 5.18)"><stop offset="0" stop-color="#d1eefa"/><stop offset=".2" stop-color="#c1e9f9"/><stop offset=".27" stop-color="#9edef8"/><stop offset=".33" stop-color="#79d3f6"/><stop offset=".45" stop-color="#68c4ec"/><stop offset=".51" stop-color="#046ab4"/><stop offset=".56" stop-color="#0b7ec6"/><stop offset=".63" stop-color="#1aacef"/><stop offset=".81" stop-color="#15a3e3"/><stop offset="1" stop-color="#068abe"/></radialGradient><radialGradient id="c" cx="0" cy="0" r="1" gradientUnits="userSpaceOnUse" gradientTransform="matrix(90.6744 345.82 -1047.62 273.45 100.872 5.18)"><stop offset="0" stop-color="#d1eefa"/><stop offset=".2" stop-color="#c1e9f9"/><stop offset=".27" stop-color="#9edef8"/><stop offset=".33" stop-color="#79d3f6"/><stop offset=".45" stop-color="#68c4ec"/><stop offset=".51" stop-color="#046ab4"/><stop offset=".56" stop-color="#0b7ec6"/><stop offset=".63" stop-color="#1aacef"/><stop offset=".81" stop-color="#15a3e3"/><stop offset="1" stop-color="#068abe"/></radialGradient><radialGradient id="d" cx="0" cy="0" r="1" gradientUnits="userSpaceOnUse" gradientTransform="matrix(90.6744 345.82 -1047.62 273.45 100.872 5.18)"><stop offset="0" stop-color="#d1eefa"/><stop offset=".2" stop-color="#c1e9f9"/><stop offset=".27" stop-color="#9edef8"/><stop offset=".33" stop-color="#79d3f6"/><stop offset=".45" stop-color="#68c4ec"/><stop offset=".51" stop-color="#046ab4"/><stop offset=".56" stop-color="#0b7ec6"/><stop offset=".63" stop-color="#1aacef"/><stop offset=".81" stop-color="#15a3e3"/><stop offset="1" stop-color="#068abe"/></radialGradient></defs></svg>