<svg viewBox="0 0 352 352" xmlns="http://www.w3.org/2000/svg" xml:space="preserve" fill-rule="evenodd" clip-rule="evenodd" stroke-linejoin="round" stroke-miterlimit="2"><path fill="none" d="M0 0h352v352H0z"/><path d="M91.294 292.431C115.076 309.769 144.353 320 176 320c31.623 0 60.88-10.216 84.642-27.522.296.376.615.736.957 1.077l10.426 10.4C245.276 324.071 212.02 336 176 336c-36.064 0-69.358-11.958-96.128-32.122l10.773-10.746c.226-.226.443-.459.649-.701ZM238.835 28.83C295.941 53.264 336 109.991 336 176c0 6.491-.387 12.891-1.142 19.192l-14.253-3.838c-.458-.124-.921-.22-1.386-.287.517-4.955.781-9.981.781-15.067 0-58.621-35.105-109.108-85.414-131.564.173-.433.321-.879.442-1.335l3.807-14.271Zm-125.622-.021 3.803 14.273c.121.455.269.901.441 1.335C67.124 66.864 32 117.363 32 176c0 4.959.251 9.86.741 14.689-.369.062-.737.143-1.102.241L17.1 194.845c-.726-6.18-1.1-12.469-1.1-18.845 0-66.027 40.081-122.766 97.213-147.191Z" fill="url(#a)"/><path d="M91.294 292.431C115.076 309.769 144.353 320 176 320c31.623 0 60.88-10.216 84.642-27.522.296.376.615.736.957 1.077l10.426 10.4C245.276 324.071 212.02 336 176 336c-36.064 0-69.358-11.958-96.128-32.122l10.773-10.746c.226-.226.443-.459.649-.701Zm.466 5.238C115.678 314.27 144.712 324 176 324c31.245 0 60.242-9.704 84.134-26.257l5.753 5.739C240.475 321.443 209.461 332 176 332c-33.505 0-64.558-10.586-89.992-28.593l5.752-5.738ZM238.835 28.83C295.941 53.264 336 109.991 336 176c0 6.491-.387 12.891-1.142 19.192l-14.253-3.838c-.458-.124-.921-.22-1.386-.287.517-4.955.781-9.981.781-15.067 0-58.621-35.105-109.108-85.414-131.564.173-.433.321-.879.442-1.335l3.807-14.271Zm-125.622-.021 3.803 14.273c.121.455.269.901.441 1.335C67.124 66.864 32 117.363 32 176c0 4.959.251 9.86.741 14.689-.369.062-.737.143-1.102.241L17.1 194.845c-.726-6.18-1.1-12.469-1.1-18.845 0-66.027 40.081-122.766 97.213-147.191Zm126.182 13.44 2.096-7.857C294.908 59.16 332 113.282 332 176c0 4.754-.213 9.459-.631 14.11l-7.85-2.114c.319-3.959.481-7.959.481-11.996 0-59.007-34.607-109.996-84.605-133.751Zm-126.746-.021C62.625 65.976 28 116.977 28 176c0 3.92.153 7.804.454 11.645l-7.854 2.116c-.397-4.534-.6-9.124-.6-13.761 0-62.735 37.112-116.87 90.556-141.629l2.093 7.857Z" fill="#cdeefe" fill-opacity=".5"/><path d="M266.81 257.437c.021 1.082.03 2.197.026 3.345-.014 4.082-.843 7.412-1.831 9.936C241.743 292.59 210.425 306 176 306c-34.081 0-65.116-13.143-88.314-34.637-1.172-2.624-2.262-6.319-2.278-11.005-.003-.902.004-1.789.018-2.659C107.76 282.441 140.078 298 176 298c36.05 0 68.47-15.67 90.81-40.563ZM213.663 51.549C267.07 67.711 306 117.345 306 176a130.15 130.15 0 0 1-3.399 29.634c-1.694 2.14-4.183 4.56-7.76 6.641-.964.561-1.915 1.099-2.848 1.612C295.891 201.96 298 189.224 298 176c0-58.695-41.539-107.764-96.805-119.39.91-.549 1.853-1.103 2.83-1.662 3.594-2.058 6.936-3.003 9.638-3.399Zm-75.285-.012c2.701.397 6.044 1.342 9.637 3.401.969.555 1.911 1.112 2.823 1.665C95.558 68.213 54 117.292 54 176c0 12.975 2.03 25.48 5.789 37.211-.78-.435-1.576-.888-2.386-1.359-3.937-2.291-6.555-4.992-8.247-7.279A130.221 130.221 0 0 1 46 176c0-58.669 38.949-108.313 92.378-124.463Z" fill="url(#b)"/><path d="M266.81 257.437c.021 1.082.03 2.197.026 3.345-.014 4.082-.843 7.412-1.831 9.936C241.743 292.59 210.425 306 176 306c-34.081 0-65.116-13.143-88.314-34.637-1.172-2.624-2.262-6.319-2.278-11.005-.003-.902.004-1.789.018-2.659C107.76 282.441 140.078 298 176 298c36.05 0 68.47-15.67 90.81-40.563Zm-2.036 5.103c-.186 2.783-.772 5.136-1.473 7.033C240.43 290.925 209.73 304 176 304c-33.406 0-63.841-12.826-86.648-33.821-.807-1.898-1.542-4.352-1.823-7.33C110.035 285.773 141.369 300 176 300c34.787 0 66.248-14.356 88.774-37.46ZM213.663 51.549C267.07 67.711 306 117.345 306 176a130.15 130.15 0 0 1-3.399 29.634c-1.694 2.14-4.183 4.56-7.76 6.641-.964.561-1.915 1.099-2.848 1.612C295.891 201.96 298 189.224 298 176c0-58.695-41.539-107.764-96.805-119.39.91-.549 1.853-1.103 2.83-1.662 3.594-2.058 6.936-3.003 9.638-3.399Zm-75.285-.012c2.701.397 6.044 1.342 9.637 3.401.969.555 1.911 1.112 2.823 1.665C95.558 68.213 54 117.292 54 176c0 12.975 2.03 25.48 5.789 37.211-.78-.435-1.576-.888-2.386-1.359-3.937-2.291-6.555-4.992-8.247-7.279A130.221 130.221 0 0 1 46 176c0-58.669 38.949-108.313 92.378-124.463ZM295.392 209.57A123.833 123.833 0 0 0 300 176c0-57.862-39.717-106.519-93.357-120.177 2.525-1.233 4.872-1.894 6.874-2.227h.002C265.881 69.647 304 118.407 304 176c0 9.881-1.122 19.501-3.244 28.735-1.289 1.566-3.035 3.267-5.364 4.835ZM145.397 55.813C91.736 69.458 52 118.125 52 176c0 11.368 1.533 22.381 4.405 32.839-2.397-1.686-4.143-3.5-5.39-5.123A128.186 128.186 0 0 1 48 176c0-57.607 38.138-106.377 90.521-122.416h.002c2.001.333 4.349.995 6.874 2.229Z" fill="#cdeefe" fill-opacity=".5"/><path d="M193.194 132.383a2.212 2.212 0 0 0 2.104 1.529h10.31c.958 0 1.808.618 2.104 1.529l3.175 9.772a2.214 2.214 0 0 0 2.105 1.529h48.795a2.213 2.213 0 0 1 1.301 4.003l-39.477 28.681a2.212 2.212 0 0 0-.803 2.474l3.203 9.859a2.213 2.213 0 0 1-.804 2.474l-8.34 6.059a2.213 2.213 0 0 0-.804 2.474l15.061 46.353a2.212 2.212 0 0 1-3.405 2.474l-39.431-28.648a2.214 2.214 0 0 0-2.601 0l-8.386 6.094a2.215 2.215 0 0 1-2.602 0l-8.386-6.094a2.214 2.214 0 0 0-2.601 0l-39.431 28.648a2.212 2.212 0 0 1-3.405-2.474l15.061-46.353a2.213 2.213 0 0 0-.804-2.474l-8.34-6.059a2.213 2.213 0 0 1-.804-2.474l3.203-9.859a2.212 2.212 0 0 0-.803-2.474l-39.477-28.681a2.213 2.213 0 0 1 1.301-4.003h48.795c.959 0 1.809-.618 2.105-1.529l3.175-9.772a2.213 2.213 0 0 1 2.104-1.529h10.31c.958 0 1.808-.617 2.104-1.529l15.09-46.44a2.211 2.211 0 0 1 4.208 0l15.09 46.44ZM176 150.275c14.655 0 26.553 11.898 26.553 26.553 0 14.656-11.898 26.554-26.553 26.554-14.655 0-26.553-11.898-26.553-26.554 0-14.655 11.898-26.553 26.553-26.553Z" fill="url(#c)"/><path d="M193.194 132.383a2.212 2.212 0 0 0 2.104 1.529h10.31c.958 0 1.808.618 2.104 1.529l3.175 9.772a2.214 2.214 0 0 0 2.105 1.529h48.795a2.213 2.213 0 0 1 1.301 4.003l-39.477 28.681a2.212 2.212 0 0 0-.803 2.474l3.203 9.859a2.213 2.213 0 0 1-.804 2.474l-8.34 6.059a2.213 2.213 0 0 0-.804 2.474l15.061 46.353a2.212 2.212 0 0 1-3.405 2.474l-39.431-28.648a2.214 2.214 0 0 0-2.601 0l-8.386 6.094a2.215 2.215 0 0 1-2.602 0l-8.386-6.094a2.214 2.214 0 0 0-2.601 0l-39.431 28.648a2.212 2.212 0 0 1-3.405-2.474l15.061-46.353a2.213 2.213 0 0 0-.804-2.474l-8.34-6.059a2.213 2.213 0 0 1-.804-2.474l3.203-9.859a2.212 2.212 0 0 0-.803-2.474l-39.477-28.681a2.213 2.213 0 0 1 1.301-4.003h48.795c.959 0 1.809-.618 2.105-1.529l3.175-9.772a2.213 2.213 0 0 1 2.104-1.529h10.31c.958 0 1.808-.617 2.104-1.529l15.09-46.44a2.211 2.211 0 0 1 4.208 0l15.09 46.44ZM176 92.41l13.39 41.209a6.212 6.212 0 0 0 5.908 4.293h9.011l2.774 8.537a6.214 6.214 0 0 0 5.909 4.293h43.295L221.26 176.19a6.214 6.214 0 0 0-2.257 6.946l2.802 8.624-7.29 5.296a6.212 6.212 0 0 0-2.256 6.946l13.361 41.122-34.981-25.415a6.212 6.212 0 0 0-7.303 0l-7.336 5.33-7.336-5.33a6.212 6.212 0 0 0-7.303 0l-34.981 25.415 13.361-41.122a6.212 6.212 0 0 0-2.256-6.946l-7.29-5.296 2.802-8.624a6.214 6.214 0 0 0-2.257-6.946l-35.027-25.448h43.295a6.214 6.214 0 0 0 5.909-4.293l2.774-8.537h9.011a6.212 6.212 0 0 0 5.908-4.293L176 92.41Zm0 53.865c-16.863 0-30.553 13.69-30.553 30.553s13.69 30.554 30.553 30.554 30.553-13.691 30.553-30.554-13.69-30.553-30.553-30.553Zm0 4c14.655 0 26.553 11.898 26.553 26.553 0 14.656-11.898 26.554-26.553 26.554-14.655 0-26.553-11.898-26.553-26.554 0-14.655 11.898-26.553 26.553-26.553Z" fill="#cdeefe" fill-opacity=".5"/><path d="m33.719 198.655-15.492 4.172a4 4 0 0 0-2.883 4.639c3.398 17.179 9.63 34.104 18.872 50.111 9.242 16.007 20.783 29.866 33.961 41.399a4 4 0 0 0 5.459-.178l11.359-11.33a3.998 3.998 0 0 0-.059-5.722s-7.48-7.384-7.528-21.36c-.051-14.887 2.29-25.979 2.29-25.979a3.999 3.999 0 0 0-2.752-4.658s-9.884-3.02-23.566-10.982c-12.08-7.03-14.735-17.2-14.735-17.2a4.001 4.001 0 0 0-4.926-2.912Z" fill="url(#d)"/><path d="m33.719 198.655-15.492 4.172a4 4 0 0 0-2.883 4.639c3.398 17.179 9.63 34.104 18.872 50.111 9.242 16.007 20.783 29.866 33.961 41.399a4 4 0 0 0 5.459-.178l11.359-11.33a3.998 3.998 0 0 0-.059-5.722s-7.48-7.384-7.528-21.36c-.051-14.887 2.29-25.979 2.29-25.979a3.999 3.999 0 0 0-2.752-4.658s-9.884-3.02-23.566-10.982c-12.08-7.03-14.735-17.2-14.735-17.2a4.001 4.001 0 0 0-4.926-2.912Zm42.058 34.919.008.003v.004s-2.429 11.449-2.377 26.819c.05 14.483 7.271 22.682 8.532 24.002l-.02.032-.01.02c-.087-.019-.096.073-.067.185-.028.113-.016.205.071.184l.01.02.015.023-11.127 11.1c-12.857-11.251-24.116-24.773-33.132-40.389-9.016-15.617-15.097-32.128-18.412-48.888l15.176-4.087c.125.238.464.525.315-.085l.016.061s2.877 11.664 16.593 19.646c14.167 8.244 24.409 11.35 24.409 11.35Z" fill="#cdeefe" fill-opacity=".5"/><path d="m267.249 287.891 11.359 11.331a4 4 0 0 0 5.459.178c13.178-11.533 24.719-25.393 33.961-41.4 9.242-16.007 15.474-32.932 18.873-50.111a4 4 0 0 0-2.884-4.639l-15.492-4.172a3.997 3.997 0 0 0-4.925 2.913s-2.656 10.169-14.735 17.199c-12.867 7.488-23.644 11.006-23.644 11.006a4 4 0 0 0-2.657 4.713s2.326 10.069 2.272 25.9c-.048 13.976-7.528 21.36-7.528 21.36a4.001 4.001 0 0 0-.059 5.722Z" fill="url(#e)"/><path d="m267.249 287.891 11.359 11.331a4 4 0 0 0 5.459.178c13.178-11.533 24.719-25.393 33.961-41.4 9.242-16.007 15.474-32.932 18.873-50.111a4 4 0 0 0-2.884-4.639l-15.492-4.172a3.997 3.997 0 0 0-4.925 2.913s-2.656 10.169-14.735 17.199c-12.867 7.488-23.644 11.006-23.644 11.006a4 4 0 0 0-2.657 4.713s2.326 10.069 2.272 25.9c-.048 13.976-7.528 21.36-7.528 21.36a4.001 4.001 0 0 0-.059 5.722Zm50.538-84.84.013-.025 15.177 4.087c-3.316 16.76-9.397 33.271-18.413 48.887s-20.275 29.138-33.131 40.39l-11.359-11.331.045-.043s8.662-8.324 8.717-24.193c.056-16.391-2.375-26.814-2.375-26.814l-.002-.009c.472 2.023 1.975-.643 0 0l.004-.001s11.13-3.622 24.414-11.352c12.518-7.285 16.008-17.637 16.52-19.39l.039.002.021-.002c.028.085.112.047.195-.034.111-.033.184-.089.123-.154l.012-.018Zm15.19 4.062Z" fill="#cdeefe" fill-opacity=".5"/><path d="m227.298 41.039 4.136-15.502a4 4 0 0 0-2.575-4.817c-16.576-5.649-34.349-8.717-52.832-8.72-18.483-.003-36.257 3.059-52.835 8.703a4 4 0 0 0-2.576 4.816l4.13 15.503a3.997 3.997 0 0 0 4.985 2.81s10.135-2.783 22.261 4.165c12.917 7.402 21.351 14.976 21.351 14.976a4 4 0 0 0 5.411-.054s7.557-7.048 21.296-14.914c12.129-6.944 22.263-4.157 22.263-4.157a4.001 4.001 0 0 0 4.985-2.809Z" fill="url(#f)"/><path d="m227.298 41.039 4.136-15.502a4 4 0 0 0-2.575-4.817c-16.576-5.649-34.349-8.717-52.832-8.72-18.483-.003-36.257 3.059-52.835 8.703a4 4 0 0 0-2.576 4.816l4.13 15.503a3.997 3.997 0 0 0 4.985 2.81s10.135-2.783 22.261 4.165c12.917 7.402 21.351 14.976 21.351 14.976a4 4 0 0 0 5.411-.054s7.557-7.048 21.296-14.914c12.129-6.944 22.263-4.157 22.263-4.157a4.001 4.001 0 0 0 4.985-2.809Zm-3.78-1.346-.029-.002-.021.001c-.026-.085-.111-.049-.195.03-.112.03-.187.085-.127.151l-.012.018-.018.035c-1.774-.433-12.484-2.589-25.054 4.608-14.224 8.144-22.036 15.46-22.036 15.46a.043.043 0 0 0-.007.006l-.003-.003s-8.7-7.829-22.035-15.471c-12.567-7.2-23.278-5.048-25.052-4.616l-.018-.034-.012-.018c.06-.066-.015-.121-.127-.151-.083-.08-.169-.116-.195-.031l-.021-.001-.029.002-4.046-15.188c16.173-5.505 33.513-8.492 51.545-8.489 18.033.003 35.372 2.995 51.543 8.506-1.991-.678-.542 2.033 0 0l-4.051 15.187Z" fill="#cdeefe" fill-opacity=".5"/><defs><radialGradient id="a" cx="0" cy="0" r="1" gradientUnits="userSpaceOnUse" gradientTransform="matrix(89.6744 346.82 -1050.65 270.418 100.872 5.18)"><stop offset="0" stop-color="#d1eefa"/><stop offset=".2" stop-color="#c1e9f9"/><stop offset=".27" stop-color="#9edef8"/><stop offset=".33" stop-color="#79d3f6"/><stop offset=".45" stop-color="#68c4ec"/><stop offset=".51" stop-color="#046ab4"/><stop offset=".56" stop-color="#0b7ec6"/><stop offset=".63" stop-color="#1aacef"/><stop offset=".81" stop-color="#15a3e3"/><stop offset="1" stop-color="#068abe"/></radialGradient><radialGradient id="b" cx="0" cy="0" r="1" gradientUnits="userSpaceOnUse" gradientTransform="matrix(89.6744 346.82 -1050.65 270.418 100.872 5.18)"><stop offset="0" stop-color="#d1eefa"/><stop offset=".2" stop-color="#c1e9f9"/><stop offset=".27" stop-color="#9edef8"/><stop offset=".33" stop-color="#79d3f6"/><stop offset=".45" stop-color="#68c4ec"/><stop offset=".51" stop-color="#046ab4"/><stop offset=".56" stop-color="#0b7ec6"/><stop offset=".63" stop-color="#1aacef"/><stop offset=".81" stop-color="#15a3e3"/><stop offset="1" stop-color="#068abe"/></radialGradient><radialGradient id="c" cx="0" cy="0" r="1" gradientUnits="userSpaceOnUse" gradientTransform="matrix(89.6744 346.82 -1050.65 270.418 100.872 5.18)"><stop offset="0" stop-color="#d1eefa"/><stop offset=".2" stop-color="#c1e9f9"/><stop offset=".27" stop-color="#9edef8"/><stop offset=".33" stop-color="#79d3f6"/><stop offset=".45" stop-color="#68c4ec"/><stop offset=".51" stop-color="#046ab4"/><stop offset=".56" stop-color="#0b7ec6"/><stop offset=".63" stop-color="#1aacef"/><stop offset=".81" stop-color="#15a3e3"/><stop offset="1" stop-color="#068abe"/></radialGradient><radialGradient id="d" cx="0" cy="0" r="1" gradientUnits="userSpaceOnUse" gradientTransform="matrix(89.6744 346.82 -1050.65 270.418 100.872 5.18)"><stop offset="0" stop-color="#d1eefa"/><stop offset=".2" stop-color="#c1e9f9"/><stop offset=".27" stop-color="#9edef8"/><stop offset=".33" stop-color="#79d3f6"/><stop offset=".45" stop-color="#68c4ec"/><stop offset=".51" stop-color="#046ab4"/><stop offset=".56" stop-color="#0b7ec6"/><stop offset=".63" stop-color="#1aacef"/><stop offset=".81" stop-color="#15a3e3"/><stop offset="1" stop-color="#068abe"/></radialGradient><radialGradient id="e" cx="0" cy="0" r="1" gradientUnits="userSpaceOnUse" gradientTransform="matrix(89.6744 346.82 -1050.65 270.418 100.872 5.18)"><stop offset="0" stop-color="#d1eefa"/><stop offset=".2" stop-color="#c1e9f9"/><stop offset=".27" stop-color="#9edef8"/><stop offset=".33" stop-color="#79d3f6"/><stop offset=".45" stop-color="#68c4ec"/><stop offset=".51" stop-color="#046ab4"/><stop offset=".56" stop-color="#0b7ec6"/><stop offset=".63" stop-color="#1aacef"/><stop offset=".81" stop-color="#15a3e3"/><stop offset="1" stop-color="#068abe"/></radialGradient><radialGradient id="f" cx="0" cy="0" r="1" gradientUnits="userSpaceOnUse" gradientTransform="matrix(89.6744 346.82 -1050.65 270.418 100.872 5.18)"><stop offset="0" stop-color="#d1eefa"/><stop offset=".2" stop-color="#c1e9f9"/><stop offset=".27" stop-color="#9edef8"/><stop offset=".33" stop-color="#79d3f6"/><stop offset=".45" stop-color="#68c4ec"/><stop offset=".51" stop-color="#046ab4"/><stop offset=".56" stop-color="#0b7ec6"/><stop offset=".63" stop-color="#1aacef"/><stop offset=".81" stop-color="#15a3e3"/><stop offset="1" stop-color="#068abe"/></radialGradient></defs></svg>