<svg viewBox="0 0 352 352" xmlns="http://www.w3.org/2000/svg" xml:space="preserve" fill-rule="evenodd" clip-rule="evenodd" stroke-linejoin="round" stroke-miterlimit="2"><path fill="none" d="M0 0h352v352H0z"/><path d="m113.213 28.809 3.803 14.273c.121.455.269.901.441 1.335C67.124 66.864 32 117.363 32 176c0 58.629 35.114 109.122 85.435 131.574-.172.434-.32.879-.441 1.335l-3.805 14.272C56.07 298.751 16 242.018 16 176c0-66.027 40.081-122.766 97.213-147.191Zm125.622.02C295.941 53.264 336 109.991 336 176c0 66.018-40.07 122.751-97.189 147.181l-3.805-14.272a11.92 11.92 0 0 0-.441-1.335C284.886 285.122 320 234.629 320 176c0-58.621-35.105-109.108-85.413-131.564.172-.434.32-.88.441-1.335l3.807-14.272Z" fill="url(#a)"/><path d="m113.213 28.809 3.803 14.273c.121.455.269.901.441 1.335C67.124 66.864 32 117.363 32 176c0 58.629 35.114 109.122 85.435 131.574-.172.434-.32.879-.441 1.335l-3.805 14.272C56.07 298.751 16 242.018 16 176c0-66.027 40.081-122.766 97.213-147.191Zm125.622.02C295.941 53.264 336 109.991 336 176c0 66.018-40.07 122.751-97.189 147.181l-3.805-14.272a11.92 11.92 0 0 0-.441-1.335C284.886 285.122 320 234.629 320 176c0-58.621-35.105-109.108-85.413-131.564.172-.434.32-.88.441-1.335l3.807-14.272Zm.56 13.42 2.096-7.857C294.908 59.16 332 113.282 332 176c0 62.726-37.102 116.855-90.532 141.619l-2.095-7.858C289.384 286.01 324 235.015 324 176c0-59.007-34.607-109.996-84.605-133.751Zm-126.746-.021C62.625 65.976 28 116.977 28 176c0 59.015 34.616 110.01 84.627 133.761l-2.095 7.858C57.102 292.855 20 238.726 20 176c0-62.735 37.112-116.87 90.555-141.63l2.094 7.858Z" fill="#dbe1e8" fill-opacity=".5"/><path d="M213.663 51.549C267.07 67.711 306 117.345 306 176c0 58.662-38.939 108.301-92.358 124.457-2.701-.396-6.043-1.341-9.637-3.4a131.48 131.48 0 0 1-2.823-1.664C256.452 283.775 298 234.701 298 176c0-58.695-41.539-107.764-96.805-119.391a146.91 146.91 0 0 1 2.83-1.661c3.594-2.058 6.936-3.003 9.638-3.399Zm-75.285-.013c2.701.398 6.044 1.343 9.637 3.402.969.555 1.911 1.112 2.823 1.664C95.558 68.213 54 117.292 54 176c0 58.701 41.548 107.775 96.825 119.395-.91.548-1.854 1.103-2.83 1.662-3.594 2.059-6.937 3.004-9.638 3.4C84.939 284.301 46 234.662 46 176c0-58.669 38.949-108.313 92.378-124.464Z" fill="url(#b)"/><path d="M213.663 51.549C267.07 67.711 306 117.345 306 176c0 58.662-38.939 108.301-92.358 124.457-2.701-.396-6.043-1.341-9.637-3.4a131.48 131.48 0 0 1-2.823-1.664C256.452 283.775 298 234.701 298 176c0-58.695-41.539-107.764-96.805-119.391a146.91 146.91 0 0 1 2.83-1.661c3.594-2.058 6.936-3.003 9.638-3.399Zm-75.285-.013c2.701.398 6.044 1.343 9.637 3.402.969.555 1.911 1.112 2.823 1.664C95.558 68.213 54 117.292 54 176c0 58.701 41.548 107.775 96.825 119.395-.91.548-1.854 1.103-2.83 1.662-3.594 2.059-6.937 3.004-9.638 3.4C84.939 284.301 46 234.662 46 176c0-58.669 38.949-108.313 92.378-124.464Zm68.245 244.646C260.273 282.531 300 233.868 300 176c0-57.862-39.717-106.519-93.357-120.177 2.525-1.233 4.873-1.894 6.874-2.227h.002C265.881 69.647 304 118.407 304 176c0 57.6-38.128 106.365-90.501 122.41-2.002-.333-4.35-.995-6.876-2.228ZM145.396 55.813C91.736 69.458 52 118.125 52 176c0 57.868 39.726 106.531 93.377 120.182-2.526 1.233-4.873 1.895-6.874 2.228C86.128 282.365 48 233.6 48 176c0-57.607 38.138-106.377 90.521-122.417h.002c2.001.334 4.349.996 6.873 2.23Z" fill="#dbe1e8" fill-opacity=".5"/><path d="M176 220c19.387 0 35.826-12.507 41.682-29.931.029-.087.083-.207.137-.226.054-.02.078-.001.187.109l21.791 21.791a2 2 0 0 1 .488 2.032L229.35 247.43a2 2 0 0 1-1.902 1.382H124.552a2 2 0 0 1-1.902-1.382l-10.935-33.655a2 2 0 0 1 .488-2.032l21.791-21.791c.109-.11.133-.129.187-.109.054.019.108.139.137.226C140.174 207.493 156.613 220 176 220Z" fill="url(#c)"/><path d="M176 248.812h-51.448a2 2 0 0 1-1.902-1.382l-10.935-33.655a2 2 0 0 1 .488-2.032l21.791-21.791c.109-.11.133-.129.187-.109.054.019.108.139.137.226C140.174 207.493 156.613 220 176 220s35.826-12.507 41.682-29.931c.029-.087.083-.207.137-.226.054-.02.078-.001.187.109l21.791 21.791a2 2 0 0 1 .488 2.032L229.35 247.43a2 2 0 0 1-1.902 1.382H176v-4h49.995l10.107-31.108-16.866-16.866C211.492 212.928 195.051 224 176 224s-35.492-11.072-43.236-27.162l-16.866 16.866 10.107 31.108H176v4Z" fill="#dbe1e8" fill-opacity=".5"/><path d="M174.824 86.854a2.002 2.002 0 0 1 2.352 0l83.244 60.48c.7.51.994 1.412.726 2.236l-13.925 42.857a2 2 0 0 1-3.316.796l-24.06-24.061a2.005 2.005 0 0 1-.554-1.061C215.564 147.579 197.587 132 176 132c-21.587 0-39.564 15.579-43.291 36.101a2.005 2.005 0 0 1-.554 1.061l-24.06 24.061a2.001 2.001 0 0 1-3.316-.796L90.854 149.57a2.001 2.001 0 0 1 .726-2.236l83.244-60.48Z" fill="url(#d)"/><path d="M176 132c-21.587 0-39.564 15.579-43.291 36.101a2.005 2.005 0 0 1-.554 1.061l-24.06 24.061a2.001 2.001 0 0 1-3.316-.796L90.854 149.57a2.001 2.001 0 0 1 .726-2.236l83.244-60.48a2.002 2.002 0 0 1 2.352 0l83.244 60.48c.7.51.994 1.412.726 2.236l-13.925 42.857a2 2 0 0 1-3.316.796l-24.06-24.061a2.005 2.005 0 0 1-.554-1.061C215.564 147.579 197.587 132 176 132v-4c23.333 0 42.799 16.686 47.107 38.767l21.319 21.32 12.467-38.371L176 90.944l-80.893 58.772 12.467 38.371 21.319-21.32C133.201 144.686 152.667 128 176 128v4Z" fill="#dbe1e8" fill-opacity=".5"/><path d="m124.724 310.97-4.133 15.502a4.001 4.001 0 0 0 2.575 4.817C139.743 336.935 157.517 340 176 340c18.483 0 36.257-3.065 52.834-8.711a4.001 4.001 0 0 0 2.575-4.817l-4.133-15.502a4 4 0 0 0-4.985-2.81s-10.135 2.785-22.262-4.161c-12.918-7.399-21.354-14.973-21.354-14.973a4 4 0 0 0-5.41.055s-7.557 7.049-21.294 14.918c-12.127 6.946-22.262 4.161-22.262 4.161a4.001 4.001 0 0 0-4.985 2.81Z" fill="url(#e)"/><path d="m124.724 310.97-4.133 15.502a4.001 4.001 0 0 0 2.575 4.817C139.743 336.935 157.517 340 176 340c18.483 0 36.257-3.065 52.834-8.711a4.001 4.001 0 0 0 2.575-4.817l-4.133-15.502a4 4 0 0 0-4.985-2.81s-10.135 2.785-22.262-4.161c-12.918-7.399-21.354-14.973-21.354-14.973a4 4 0 0 0-5.41.055s-7.557 7.049-21.294 14.918c-12.127 6.946-22.262 4.161-22.262 4.161a4.001 4.001 0 0 0-4.985 2.81Zm51.27-18.964L176 292l.003.003s8.701 7.828 22.038 15.467c13.77 7.887 25.31 4.547 25.31 4.547l.06-.017 4.133 15.502C211.372 333.011 194.032 336 176 336c-18.032 0-35.372-2.989-51.544-8.498L128.589 312l.06.017s11.54 3.34 25.31-4.547c14.223-8.147 22.035-15.464 22.035-15.464Z" fill="#dbe1e8" fill-opacity=".5"/><path d="m227.298 41.039 4.136-15.502a4 4 0 0 0-2.575-4.817c-16.576-5.649-34.349-8.717-52.832-8.72-18.483-.003-36.257 3.059-52.835 8.703a4 4 0 0 0-2.576 4.816l4.13 15.503a3.997 3.997 0 0 0 4.985 2.81s10.135-2.783 22.261 4.165c12.917 7.402 21.351 14.976 21.351 14.976a4 4 0 0 0 5.411-.054s7.557-7.048 21.296-14.914c12.129-6.944 22.263-4.157 22.263-4.157a4.001 4.001 0 0 0 4.985-2.809Z" fill="url(#f)"/><path d="m227.298 41.039 4.136-15.502a4 4 0 0 0-2.575-4.817c-16.576-5.649-34.349-8.717-52.832-8.72-18.483-.003-36.257 3.059-52.835 8.703a4 4 0 0 0-2.576 4.816l4.13 15.503a3.997 3.997 0 0 0 4.985 2.81s10.135-2.783 22.261 4.165c12.917 7.402 21.351 14.976 21.351 14.976a4 4 0 0 0 5.411-.054s7.557-7.048 21.296-14.914c12.129-6.944 22.263-4.157 22.263-4.157a4.001 4.001 0 0 0 4.985-2.809Zm-3.864-1.031-.06-.017s-11.54-3.342-25.312 4.543c-14.224 8.144-22.036 15.46-22.036 15.46l-.007.006-.003-.003s-8.7-7.829-22.035-15.471c-12.567-7.2-23.278-5.048-25.052-4.616-.125-.237-.481-.532-.318.082l-4.13-15.503c.542 2.033 1.992-.678 0 0 16.173-5.505 33.513-8.492 51.545-8.489 18.033.003 35.372 2.995 51.543 8.506-1.991-.678-.542 2.033 0 0l-4.135 15.502Z" fill="#dbe1e8" fill-opacity=".5"/><defs><radialGradient id="a" cx="0" cy="0" r="1" gradientUnits="userSpaceOnUse" gradientTransform="matrix(93.822 344.595 -1050.97 280.292 101.15 5.263)"><stop offset="0" stop-color="#d8d9da"/><stop offset=".13" stop-color="#d0d1d2"/><stop offset=".17" stop-color="#bbbdbf"/><stop offset=".21" stop-color="#a4a8aa"/><stop offset=".37" stop-color="#9ca1a3"/><stop offset=".41" stop-color="#878d90"/><stop offset=".45" stop-color="#6d7578"/><stop offset=".53" stop-color="#70787b"/><stop offset=".57" stop-color="#777e81"/><stop offset=".59" stop-color="#7e8486"/><stop offset=".8" stop-color="#757c7e"/><stop offset="1" stop-color="#5b6367"/></radialGradient><radialGradient id="b" cx="0" cy="0" r="1" gradientUnits="userSpaceOnUse" gradientTransform="matrix(93.822 344.595 -1050.97 280.292 101.15 5.263)"><stop offset="0" stop-color="#d8d9da"/><stop offset=".13" stop-color="#d0d1d2"/><stop offset=".17" stop-color="#bbbdbf"/><stop offset=".21" stop-color="#a4a8aa"/><stop offset=".37" stop-color="#9ca1a3"/><stop offset=".41" stop-color="#878d90"/><stop offset=".45" stop-color="#6d7578"/><stop offset=".53" stop-color="#70787b"/><stop offset=".57" stop-color="#777e81"/><stop offset=".59" stop-color="#7e8486"/><stop offset=".8" stop-color="#757c7e"/><stop offset="1" stop-color="#5b6367"/></radialGradient><radialGradient id="c" cx="0" cy="0" r="1" gradientUnits="userSpaceOnUse" gradientTransform="matrix(93.822 344.595 -1050.97 280.292 101.15 5.263)"><stop offset="0" stop-color="#d8d9da"/><stop offset=".13" stop-color="#d0d1d2"/><stop offset=".17" stop-color="#bbbdbf"/><stop offset=".21" stop-color="#a4a8aa"/><stop offset=".37" stop-color="#9ca1a3"/><stop offset=".41" stop-color="#878d90"/><stop offset=".45" stop-color="#6d7578"/><stop offset=".53" stop-color="#70787b"/><stop offset=".57" stop-color="#777e81"/><stop offset=".59" stop-color="#7e8486"/><stop offset=".8" stop-color="#757c7e"/><stop offset="1" stop-color="#5b6367"/></radialGradient><radialGradient id="d" cx="0" cy="0" r="1" gradientUnits="userSpaceOnUse" gradientTransform="matrix(93.822 344.595 -1050.97 280.292 101.15 5.263)"><stop offset="0" stop-color="#d8d9da"/><stop offset=".13" stop-color="#d0d1d2"/><stop offset=".17" stop-color="#bbbdbf"/><stop offset=".21" stop-color="#a4a8aa"/><stop offset=".37" stop-color="#9ca1a3"/><stop offset=".41" stop-color="#878d90"/><stop offset=".45" stop-color="#6d7578"/><stop offset=".53" stop-color="#70787b"/><stop offset=".57" stop-color="#777e81"/><stop offset=".59" stop-color="#7e8486"/><stop offset=".8" stop-color="#757c7e"/><stop offset="1" stop-color="#5b6367"/></radialGradient><radialGradient id="e" cx="0" cy="0" r="1" gradientUnits="userSpaceOnUse" gradientTransform="matrix(93.822 344.595 -1050.97 280.292 101.15 5.263)"><stop offset="0" stop-color="#d8d9da"/><stop offset=".13" stop-color="#d0d1d2"/><stop offset=".17" stop-color="#bbbdbf"/><stop offset=".21" stop-color="#a4a8aa"/><stop offset=".37" stop-color="#9ca1a3"/><stop offset=".41" stop-color="#878d90"/><stop offset=".45" stop-color="#6d7578"/><stop offset=".53" stop-color="#70787b"/><stop offset=".57" stop-color="#777e81"/><stop offset=".59" stop-color="#7e8486"/><stop offset=".8" stop-color="#757c7e"/><stop offset="1" stop-color="#5b6367"/></radialGradient><radialGradient id="f" cx="0" cy="0" r="1" gradientUnits="userSpaceOnUse" gradientTransform="matrix(93.822 344.595 -1050.97 280.292 101.15 5.263)"><stop offset="0" stop-color="#d8d9da"/><stop offset=".13" stop-color="#d0d1d2"/><stop offset=".17" stop-color="#bbbdbf"/><stop offset=".21" stop-color="#a4a8aa"/><stop offset=".37" stop-color="#9ca1a3"/><stop offset=".41" stop-color="#878d90"/><stop offset=".45" stop-color="#6d7578"/><stop offset=".53" stop-color="#70787b"/><stop offset=".57" stop-color="#777e81"/><stop offset=".59" stop-color="#7e8486"/><stop offset=".8" stop-color="#757c7e"/><stop offset="1" stop-color="#5b6367"/></radialGradient></defs></svg>