<svg viewBox="0 0 352 352" xmlns="http://www.w3.org/2000/svg" xml:space="preserve" fill-rule="evenodd" clip-rule="evenodd" stroke-linejoin="round" stroke-miterlimit="2"><path fill="none" d="M0 0h352v352H0z"/><path d="M176 16c88.306 0 160 71.694 160 160s-71.694 160-160 160S16 264.306 16 176 87.694 16 176 16Zm0 16c79.476 0 144 64.524 144 144s-64.524 144-144 144S32 255.476 32 176 96.524 32 176 32Z" fill="url(#a)"/><path d="M176 16c88.306 0 160 71.694 160 160s-71.694 160-160 160S16 264.306 16 176 87.694 16 176 16Zm0 4c86.099 0 156 69.901 156 156s-69.901 156-156 156S20 262.099 20 176 89.901 20 176 20Zm0 8C94.317 28 28 94.317 28 176s66.317 148 148 148 148-66.317 148-148S257.683 28 176 28Zm0 4c79.476 0 144 64.524 144 144s-64.524 144-144 144S32 255.476 32 176 96.524 32 176 32Z" fill="#e3f2fd" fill-opacity=".5"/><path d="M176 46c71.749 0 130 58.251 130 130s-58.251 130-130 130S46 247.749 46 176 104.251 46 176 46Zm0 8c67.334 0 122 54.666 122 122s-54.666 122-122 122S54 243.334 54 176 108.666 54 176 54Z" fill="url(#b)"/><path d="M176 46c71.749 0 130 58.251 130 130s-58.251 130-130 130S46 247.749 46 176 104.251 46 176 46Zm0 2c70.645 0 128 57.355 128 128 0 70.645-57.355 128-128 128-70.645 0-128-57.355-128-128 0-70.645 57.355-128 128-128Zm0 4c-68.437 0-124 55.563-124 124s55.563 124 124 124 124-55.563 124-124S244.437 52 176 52Zm0 2c67.334 0 122 54.666 122 122s-54.666 122-122 122S54 243.334 54 176 108.666 54 176 54Z" fill="#e3f2fd" fill-opacity=".5"/><path d="M158.635 205.19v-2.414c.047-8.286.793-14.892 2.237-19.816 1.444-4.924 3.563-8.901 6.357-11.932 2.793-3.03 6.155-5.776 10.085-8.238 2.936-1.894 5.563-3.859 7.883-5.895 2.321-2.036 4.167-4.297 5.54-6.783 1.373-2.486 2.06-5.267 2.06-8.345 0-3.267-.781-6.132-2.344-8.594-1.562-2.462-3.658-4.356-6.285-5.682-2.628-1.325-5.528-1.988-8.701-1.988-3.077 0-5.989.675-8.735 2.024-2.747 1.349-4.996 3.338-6.748 5.966-1.752 2.628-2.698 5.883-2.841 9.766h-28.977c.237-9.47 2.51-17.295 6.818-23.473 4.309-6.179 10.015-10.796 17.117-13.85 7.102-3.054 14.938-4.581 23.508-4.581 9.423 0 17.756 1.551 25 4.652 7.245 3.101 12.927 7.588 17.046 13.459 4.119 5.871 6.179 12.95 6.179 21.236 0 5.539-.912 10.452-2.735 14.737a35.937 35.937 0 0 1-7.635 11.364c-3.267 3.29-7.125 6.261-11.576 8.913-3.741 2.225-6.807 4.545-9.198 6.96a23.01 23.01 0 0 0-5.326 8.381c-1.16 3.172-1.764 7.078-1.811 11.719v2.414h-26.918Zm14.062 45.455c-4.734 0-8.771-1.669-12.109-5.007-3.338-3.338-4.983-7.351-4.936-12.039-.047-4.64 1.598-8.617 4.936-11.931 3.338-3.315 7.375-4.972 12.109-4.972 4.499 0 8.452 1.657 11.861 4.972 3.409 3.314 5.138 7.291 5.185 11.931-.047 3.125-.864 5.978-2.45 8.559-1.587 2.58-3.658 4.64-6.215 6.179-2.557 1.538-5.35 2.308-8.381 2.308Z" fill="url(#c)" fill-rule="nonzero"/><path d="M172.697 250.645c-4.734 0-8.771-1.669-12.109-5.007-3.338-3.338-4.983-7.351-4.936-12.039-.047-4.64 1.598-8.617 4.936-11.931 3.338-3.315 7.375-4.972 12.109-4.972 4.499 0 8.452 1.657 11.861 4.972 3.409 3.314 5.138 7.291 5.185 11.931-.047 3.125-.864 5.978-2.45 8.559-1.587 2.58-3.658 4.64-6.215 6.179-2.557 1.538-5.35 2.308-8.381 2.308Zm0-4c-3.628 0-6.722-1.277-9.281-3.836-2.543-2.543-3.8-5.598-3.764-9.169v-.041c-.036-3.562 1.221-6.577 3.754-9.093 2.561-2.542 5.659-3.81 9.291-3.81 3.446 0 6.461 1.301 9.073 3.84 2.586 2.514 3.919 5.521 3.972 9.034-.044 2.382-.657 4.541-1.857 6.493-1.244 2.023-2.865 3.64-4.869 4.846-1.928 1.16-4.034 1.736-6.319 1.736Zm-14.062-41.455v-2.414c.047-8.286.793-14.892 2.237-19.816 1.444-4.924 3.563-8.901 6.357-11.932 2.793-3.03 6.155-5.776 10.085-8.238 2.936-1.894 5.563-3.859 7.883-5.895 2.321-2.036 4.167-4.297 5.54-6.783 1.373-2.486 2.06-5.267 2.06-8.345 0-3.267-.781-6.132-2.344-8.594-1.562-2.462-3.658-4.356-6.285-5.682-2.628-1.325-5.528-1.988-8.701-1.988-3.077 0-5.989.675-8.735 2.024-2.747 1.349-4.996 3.338-6.748 5.966-1.752 2.628-2.698 5.883-2.841 9.766h-28.977c.237-9.47 2.51-17.295 6.818-23.473 4.309-6.179 10.015-10.796 17.117-13.85 7.102-3.054 14.938-4.581 23.508-4.581 9.423 0 17.756 1.551 25 4.652 7.245 3.101 12.927 7.588 17.046 13.459 4.119 5.871 6.179 12.95 6.179 21.236 0 5.539-.912 10.452-2.735 14.737a35.937 35.937 0 0 1-7.635 11.364c-3.267 3.29-7.125 6.261-11.576 8.913-3.741 2.225-6.807 4.545-9.198 6.96a23.01 23.01 0 0 0-5.326 8.381c-1.16 3.172-1.764 7.078-1.811 11.719v2.414h-26.918Zm22.956-4h-18.937c.122-7.075.788-12.778 2.057-17.104 1.249-4.261 3.041-7.724 5.459-10.346 2.565-2.784 5.658-5.299 9.268-7.561l.022-.014c3.134-2.021 5.917-4.106 8.376-6.264 2.685-2.356 4.814-4.978 6.403-7.855 1.692-3.063 2.558-6.486 2.558-10.279 0-4.086-1.013-7.658-2.967-10.737-1.954-3.08-4.573-5.451-7.861-7.11-3.173-1.601-6.671-2.417-10.502-2.417-3.699 0-7.199.812-10.5 2.434-3.38 1.661-6.154 4.102-8.311 7.337-1.518 2.278-2.57 4.935-3.11 7.985h-21.132c.667-6.769 2.588-12.506 5.851-17.186 3.88-5.563 9.022-9.713 15.416-12.462 6.624-2.849 13.936-4.256 21.928-4.256 8.827 0 16.64 1.424 23.426 4.329 6.514 2.789 11.641 6.8 15.345 12.079 3.671 5.232 5.454 11.555 5.454 18.939 0 4.949-.787 9.343-2.415 13.171a31.994 31.994 0 0 1-6.793 10.111c-3.043 3.065-6.641 5.826-10.785 8.296-4.067 2.419-7.392 4.955-9.993 7.582a26.958 26.958 0 0 0-6.241 9.821c-1.162 3.177-1.852 7.01-2.016 11.507Z" fill="#e3f2fd" fill-opacity=".5"/><defs><radialGradient id="a" cx="0" cy="0" r="1" gradientUnits="userSpaceOnUse" gradientTransform="matrix(92.4039 329.559 -648.634 181.868 128.166 16)"><stop offset="0" stop-color="#a1b6c7"/><stop offset=".33" stop-color="#9ab3c8"/><stop offset=".53" stop-color="#7aa7cc"/><stop offset=".62" stop-color="#71a1c7"/><stop offset=".72" stop-color="#689bc3"/><stop offset="1" stop-color="#6498c1"/></radialGradient><radialGradient id="b" cx="0" cy="0" r="1" gradientUnits="userSpaceOnUse" gradientTransform="matrix(92.4039 329.559 -648.634 181.868 128.166 16)"><stop offset="0" stop-color="#a1b6c7"/><stop offset=".33" stop-color="#9ab3c8"/><stop offset=".53" stop-color="#7aa7cc"/><stop offset=".62" stop-color="#71a1c7"/><stop offset=".72" stop-color="#689bc3"/><stop offset="1" stop-color="#6498c1"/></radialGradient><radialGradient id="c" cx="0" cy="0" r="1" gradientUnits="userSpaceOnUse" gradientTransform="matrix(92.4039 329.559 -648.634 181.868 128.166 16)"><stop offset="0" stop-color="#a1b6c7"/><stop offset=".33" stop-color="#9ab3c8"/><stop offset=".53" stop-color="#7aa7cc"/><stop offset=".62" stop-color="#71a1c7"/><stop offset=".72" stop-color="#689bc3"/><stop offset="1" stop-color="#6498c1"/></radialGradient></defs></svg>