<svg viewBox="0 0 140 24" xmlns="http://www.w3.org/2000/svg" xml:space="preserve" fill-rule="evenodd" clip-rule="evenodd" stroke-linejoin="round" stroke-miterlimit="2"><path fill="#1c2837" d="M0 0h140v24H0z"/><path fill="none" d="M0 0h140v24H0z"/><path d="M23.805 8.988c-.325-1-1.478-3.642-2.103-3.642-.46 0-1.39.73-1.409 1.19 0 0 .72 1.07 1.237 1.986-.69.46-2.18 1.171-3.252.531l-2.529-1.79c-.944-.826-.707-2.496-.478-3.295 1.028.208 2.258.56 2.258.56.398-.224.934-1.49.771-1.654-.33-.33-3.062-.874-4.113-.874-1.052 0-3.977.738-4.114.874-.192.193.355 1.468.772 1.654.112.05 1.272-.313 2.256-.54.229.808.46 2.457-.477 3.276l-2.528 1.804c-1.073.64-2.565-.077-3.256-.539.517-.917 1.24-1.992 1.24-1.992.205-.413-.948-1.19-1.41-1.19-.582 0-1.777 2.642-2.102 3.642-.325 1-.799 3.823-.44 4.182.338.337 1.708.169 1.887-.273 0 0 .045-1.267.163-2.307.835.02 2.462.272 2.952 1.416l.966 3.002c.274 1.206-.855 2.402-1.512 2.927a36.195 36.195 0 0 1-1.514-1.783c-.462-.14-1.642.535-1.642 1.018 0 .72 1.964 2.508 2.814 3.126.85.618 3.416 1.688 3.842 1.688.216 0 .636-1.65.364-1.921 0 0-1.174-.431-2.117-.863.293-.78 1.064-2.186 2.293-2.298h3.125c1.231.112 2.008 1.52 2.3 2.298-.934.4-2.103.794-2.154.887-.228.42.237 1.715.394 1.872.29.29 2.992-1.07 3.842-1.688.851-.618 2.814-2.625 2.814-3.114 0-.347-1.175-1.147-1.642-1.022 0 0-.79 1.02-1.5 1.802-.659-.518-1.8-1.707-1.525-2.918l.965-3.018c.487-1.135 2.09-1.394 2.93-1.418.086 1.005.095 2.218.186 2.309.337.337 1.642.521 1.886.278.329-.33-.115-3.183-.44-4.183Zm-12.229 4.903c-.26-.45-.569-1.328-.55-1.788.02-.5.298-1.51.604-1.905.218-.283.696-.707 1.123-.974a3.143 3.143 0 0 1 1.394-.327 3.16 3.16 0 0 1 2.883 1.87c.057.14.111.288.158.437a3.153 3.153 0 0 1 .056 1.489l-.004.017c-.008.035-.019.07-.027.104a3.16 3.16 0 0 1-3.066 2.404 3.153 3.153 0 0 1-2.57-1.327Z" fill="#ffc400" fill-rule="nonzero"/><path d="M29 12.983c.35 2.767 1.867 4.267 4.683 4.267 2.65 0 4.067-1.567 4.067-3.383 0-1.734-.75-2.584-3.917-3.617-2.55-.833-2.9-1.25-2.9-2.1 0-.933.717-1.75 2.267-1.75 1.783 0 2.417.917 2.667 2.2l1.4-.3c-.3-2.183-1.967-3.217-4.067-3.217-2.333 0-3.667 1.45-3.667 3.067 0 1.667 1.117 2.517 3.617 3.317 2.8.916 3.217 1.416 3.217 2.466 0 1.034-.8 2.017-2.634 2.017-2.25 0-2.966-1.117-3.283-3.25l-1.45.283ZM40 17h1.367v-5.55c0-1.35.916-2.283 2.366-2.283 1.434 0 2.05.95 2.05 2.433V17h1.367v-5.767c0-2.2-1.35-3.316-3.167-3.316-1.083 0-2.1.483-2.583 1.133h-.033V4.833H40V17ZM49.993 17h1.367V8.167h-1.367V17Zm-.1-10.617h1.567v-1.55h-1.567v1.55ZM60.277 14.283c-.317.584-.85 1.734-2.634 1.734-1.833 0-2.683-1.467-2.7-3.034h6.634v-.4c0-2.95-1.65-4.666-3.967-4.666-2.333 0-4.033 1.8-4.033 4.666 0 2.867 1.733 4.667 4.1 4.667 1.933 0 3.116-1.1 3.7-2.25l-1.1-.717Zm-5.3-2.383c.016-1.083.733-2.75 2.633-2.75 1.917 0 2.583 1.467 2.617 2.75h-5.25ZM64.01 4.833h1.383V17H64.01zM73.993 14.067c0 1.016-.933 1.95-2.266 1.95-1.767 0-2.684-1.284-2.684-3.434 0-2.15.917-3.433 2.684-3.433a2.206 2.206 0 0 1 2.266 2.183v2.734ZM74.127 17h1.233V4.833h-1.367v4.184h-.033c-.45-.534-1.25-1.1-2.45-1.1-2.133 0-3.833 1.783-3.833 4.666 0 2.834 1.5 4.667 3.833 4.667 1.317 0 2.217-.667 2.583-1.1h.034V17ZM78.01 17h4.45c1.8 0 2.7-.35 3.35-.967.7-.683 1.017-1.6 1.017-2.666 0-1.35-.75-2.267-1.7-2.667v-.017c.733-.433 1.266-1.15 1.266-2.216 0-1.7-1.316-3.134-3.433-3.134h-4.95V17Zm2.25-2.083v-3.05h2.733c.967 0 1.584.533 1.584 1.5 0 1.25-.717 1.55-1.6 1.55H80.26Zm0-4.884V7.417h2.417c.9 0 1.466.433 1.466 1.333 0 .85-.566 1.283-1.466 1.283H80.26ZM94.143 17h1.817v-5.6c0-2.533-1.7-3.483-3.683-3.483-2.117 0-3.25 1.183-3.634 2.533l1.8.75c.217-.683.55-1.45 1.867-1.45 1.05 0 1.5.433 1.5.933s-.183.684-2.283 1.2c-2.117.517-3 1.167-3 2.75 0 1.334.9 2.617 3.183 2.617 1.783 0 2.4-1.1 2.4-1.1h.033V17Zm-2.183-3.617c1.717-.433 1.783-.65 1.883-.833h.034v1.533c0 .65-.55 1.3-1.967 1.3-.767 0-1.3-.233-1.3-.9 0-.366.117-.8 1.35-1.1ZM98.943 13.85c0 2.1.65 3.15 3.117 3.15h.917v-2.083h-.717c-1 0-1.183-.384-1.183-1.267V10h2.2V8.167h-2.234V6h-2.05v2.167h-1.416V10h1.366v3.85ZM105.36 13.85c0 2.1.65 3.15 3.117 3.15h.916v-2.083h-.716c-1 0-1.184-.384-1.184-1.267V10h2.2V8.167h-2.233V6h-2.05v2.167h-1.417V10h1.367v3.85ZM117.293 13.95c-.433.617-1.033 1.383-2.166 1.383-1.184 0-1.884-.733-1.95-2.1h5.933v-.65c0-2.866-1.75-4.666-4.05-4.666s-4.083 1.8-4.083 4.666c0 2.867 1.75 4.667 4.183 4.667 1.833 0 2.917-.9 3.65-1.967l-1.517-1.333Zm-4.116-2.333c.083-.984.783-1.8 1.883-1.8 1.167 0 1.85.683 1.95 1.8h-3.833ZM120.993 17h2.167v-4.85c0-1.417.583-2.017 1.517-2.017.216 0 .45.05.683.134l.333-2.1a1.97 1.97 0 0 0-.8-.167c-.783 0-1.483.45-1.816 1.1h-.034v-.933h-2.05V17ZM128.294 20.75h2.15l5.083-12.583h-2.2l-2.283 5.983h-.034l-2.283-5.983h-2.2l3.533 8.4-1.766 4.183Z" fill="#fff" fill-rule="nonzero"/></svg>