<svg viewBox="0 0 154 24" xmlns="http://www.w3.org/2000/svg" xml:space="preserve" fill-rule="evenodd" clip-rule="evenodd" stroke-linejoin="round" stroke-miterlimit="2"><path d="M1.248 12.20544c.52416 4.14336 2.79552 6.38976 7.01376 6.38976 3.96864 0 6.09024-2.34624 6.09024-5.06688 0-2.59584-1.1232-3.8688-5.8656-5.41632C4.66752 6.864 4.14336 6.24 4.14336 4.96704c0-1.39776 1.07328-2.6208 3.39456-2.6208 2.67072 0 3.6192 1.3728 3.9936 3.29472l2.09664-.44928C13.17888 1.92192 10.68288.3744 7.53792.3744c-3.4944 0-5.4912 2.17152-5.4912 4.59264 0 2.496 1.67232 3.76896 5.41632 4.96704 4.19328 1.3728 4.81728 2.1216 4.81728 3.69408 0 1.54752-1.19808 3.02016-3.94368 3.02016-3.3696 0-4.44288-1.67232-4.91712-4.8672l-2.17152.42432Zm15.79968 6.01536h2.04672V9.90912c0-2.02176 1.3728-3.41952 3.54432-3.41952 2.14656 0 3.07008 1.42272 3.07008 3.64416v8.08704h2.04672V9.58464c0-3.29472-2.02176-4.96704-4.7424-4.96704-1.6224 0-3.14496.72384-3.8688 1.69728h-.04992V0h-2.04672v18.2208Zm13.90272 0h2.04672V4.992H30.9504v13.2288Zm-.14976-15.89952h2.34624V0h-2.34624v2.32128ZM45.8016 14.15232c-.47424.8736-1.27296 2.59584-3.94368 2.59584-2.7456 0-4.01856-2.19648-4.04352-4.54272h9.93408v-.59904c0-4.41792-2.47104-6.9888-5.94048-6.9888-3.4944 0-6.04032 2.69568-6.04032 6.9888s2.59584 6.9888 6.14016 6.9888c2.89536 0 4.66752-1.64736 5.54112-3.3696l-1.64736-1.07328Zm-7.93728-3.56928c.02496-1.6224 1.09824-4.1184 3.94368-4.1184 2.8704 0 3.8688 2.19648 3.91872 4.1184h-7.8624ZM50.39424 0h2.07168v18.2208h-2.07168zm14.40192 13.82784c0 1.52256-1.39776 2.92032-3.39456 2.92032-2.64576 0-4.01856-1.92192-4.01856-5.14176 0-3.21984 1.3728-5.14176 4.01856-5.14176 2.19648 0 3.39456 1.7472 3.39456 3.26976v4.09344Zm.19968 4.39296h1.84704V0h-2.04672v6.26496h-.04992c-.67392-.79872-1.872-1.64736-3.66912-1.64736-3.19488 0-5.7408 2.67072-5.7408 6.9888 0 4.2432 2.2464 6.9888 5.7408 6.9888 1.97184 0 3.31968-.9984 3.8688-1.64736h.04992v1.27296Z" fill="#2f77ec" fill-rule="nonzero"/><path d="M69.60096 18.2208h6.66432c2.69568 0 4.04352-.52416 5.01696-1.44768 1.04832-1.02336 1.52256-2.39616 1.52256-3.9936 0-2.02176-1.1232-3.39456-2.54592-3.9936v-.02496c1.09824-.64896 1.89696-1.72224 1.89696-3.31968 0-2.54592-1.97184-4.69248-5.14176-4.69248h-7.41312v17.472Zm3.3696-3.12v-4.56768H77.064c1.44768 0 2.3712.79872 2.3712 2.2464 0 1.872-1.07328 2.32128-2.39616 2.32128h-4.06848Zm0-7.31328V3.8688h3.6192c1.34784 0 2.19648.64896 2.19648 1.9968 0 1.27296-.84864 1.92192-2.19648 1.92192h-3.6192ZM92.86368 18.2208h2.72064V9.83424c0-3.79392-2.54592-5.21664-5.51616-5.21664-3.16992 0-4.8672 1.77216-5.44128 3.79392l2.69568 1.1232c.32448-1.02336.82368-2.17152 2.79552-2.17152 1.57248 0 2.2464.64896 2.2464 1.39776 0 .7488-.27456 1.02336-3.41952 1.79712-3.16992.77376-4.4928 1.7472-4.4928 4.1184 0 1.9968 1.34784 3.91872 4.76736 3.91872 2.67072 0 3.59424-1.64736 3.59424-1.64736h.04992v1.27296Zm-3.26976-5.41632c2.57088-.64896 2.67072-.97344 2.82048-1.248h.04992v2.29632c0 .97344-.82368 1.94688-2.94528 1.94688-1.14816 0-1.94688-.34944-1.94688-1.34784 0-.54912.17472-1.19808 2.02176-1.64736Zm9.63456.69888c0 3.14496.97344 4.71744 4.66752 4.71744h1.3728v-3.12h-1.07328c-1.4976 0-1.77216-.57408-1.77216-1.89696V7.7376h3.29472V4.992h-3.34464V1.7472h-3.07008V4.992h-2.1216v2.7456h2.04672v5.76576Zm9.36 0c0 3.14496.97344 4.71744 4.66752 4.71744h1.3728v-3.12h-1.07328c-1.4976 0-1.77216-.57408-1.77216-1.89696V7.7376h3.29472V4.992h-3.34464V1.7472h-3.07008V4.992h-2.1216v2.7456h2.04672v5.76576Zm17.24736.14976c-.64896.92352-1.54752 2.07168-3.2448 2.07168-1.77216 0-2.82048-1.09824-2.92032-3.14496h8.88576v-.97344c0-4.29312-2.6208-6.9888-6.06528-6.9888-3.44448 0-6.1152 2.69568-6.1152 6.9888s2.6208 6.9888 6.26496 6.9888c2.7456 0 4.368-1.34784 5.46624-2.94528l-2.27136-1.9968Zm-6.16512-3.4944c.1248-1.47264 1.17312-2.69568 2.82048-2.69568 1.7472 0 2.77056 1.02336 2.92032 2.69568h-5.7408Zm11.124 8.06208h3.2448v-7.26336c0-2.1216.8736-3.02016 2.27136-3.02016.32448 0 .67392.07488 1.02336.19968l.4992-3.14496c-.39936-.17472-.79872-.2496-1.19808-.2496-1.17312 0-2.22144.67392-2.72064 1.64736h-.04992V4.992h-3.07008v13.2288Zm10.75776 5.616h3.21984l7.6128-18.8448h-3.29472l-3.41952 8.96064h-.04992L142.20144 4.992h-3.29472l5.29152 12.57984-2.64576 6.26496Z" fill="#ffc400" fill-rule="nonzero"/></svg>