<svg viewBox="0 0 154 56" xmlns="http://www.w3.org/2000/svg" fill-rule="evenodd" clip-rule="evenodd" stroke-linejoin="round" stroke-miterlimit="2"><path fill="none" d="M0 0h156v56H0z"/><path d="M-.001 30.237c.504 3.984 2.688 6.144 6.744 6.144 3.816 0 5.855-2.256 5.855-4.872 0-2.496-1.08-3.72-5.64-5.208-3.671-1.2-4.175-1.8-4.175-3.024 0-1.344 1.032-2.52 3.264-2.52 2.567 0 3.48 1.32 3.84 3.168l2.016-.432c-.432-3.144-2.833-4.632-5.857-4.632-3.36 0-5.28 2.088-5.28 4.416 0 2.4 1.609 3.624 5.208 4.776 4.033 1.32 4.632 2.04 4.632 3.552 0 1.488-1.151 2.904-3.791 2.904-3.24 0-4.272-1.608-4.728-4.68l-2.088.408zM16.006 36.021h1.968V28.03c0-1.944 1.32-3.288 3.408-3.288 2.064 0 2.952 1.368 2.952 3.504v7.776h1.968v-8.304c0-3.168-1.944-4.776-4.56-4.776-1.56 0-3.024.696-3.72 1.632h-.047v-6.072h-1.969v17.52zM30.023 36.021h1.968v-12.72h-1.968v12.72zm-.144-15.288h2.256v-2.232h-2.256v2.232zM44.902 32.11c-.456.84-1.224 2.495-3.792 2.495-2.64 0-3.864-2.112-3.888-4.368h9.552v-.576c0-4.248-2.376-6.72-5.712-6.72-3.36 0-5.808 2.592-5.808 6.72s2.496 6.72 5.904 6.72c2.784 0 4.488-1.584 5.328-3.24l-1.584-1.032zm-7.632-3.433c.024-1.56 1.056-3.96 3.792-3.96 2.76 0 3.72 2.112 3.769 3.96h-7.56zM50.014 18.501h1.992v17.52h-1.992zM64.03 31.797c0 1.464-1.343 2.808-3.263 2.808-2.545 0-3.865-1.848-3.865-4.944s1.32-4.944 3.865-4.944a3.176 3.176 0 013.263 3.144v3.936zm.193 4.224h1.775v-17.52H64.03v6.024h-.048c-.648-.768-1.8-1.584-3.528-1.584-3.072 0-5.52 2.568-5.52 6.72 0 4.08 2.16 6.72 5.52 6.72 1.896 0 3.192-.96 3.72-1.584h.048v1.224zM70.007 36.021h6.407c2.593 0 3.889-.504 4.825-1.392 1.007-.984 1.463-2.304 1.463-3.84 0-1.944-1.08-3.264-2.447-3.84v-.024c1.056-.624 1.824-1.656 1.824-3.192 0-2.448-1.896-4.512-4.944-4.512h-7.129v16.8zm3.24-3V28.63h3.935c1.393 0 2.28.768 2.28 2.16 0 1.8-1.031 2.232-2.303 2.232h-3.913zm0-7.032v-3.768h3.48c1.295 0 2.111.624 2.111 1.92 0 1.224-.815 1.848-2.111 1.848h-3.48zM93.047 36.021h2.616v-8.064c0-3.648-2.448-5.016-5.304-5.016-3.048 0-4.68 1.704-5.232 3.648l2.592 1.08c.312-.984.792-2.088 2.688-2.088 1.512 0 2.16.624 2.16 1.344 0 .72-.264.984-3.288 1.728-3.048.744-4.32 1.68-4.32 3.96 0 1.92 1.296 3.768 4.584 3.768 2.568 0 3.456-1.584 3.456-1.584h.048v1.224zm-3.144-5.208c2.471-.624 2.567-.936 2.711-1.2h.049v2.208c0 .936-.792 1.872-2.832 1.872-1.104 0-1.872-.336-1.872-1.296 0-.528.168-1.152 1.944-1.584zM99.983 31.485c0 3.024.936 4.536 4.488 4.536h1.32v-3h-1.032c-1.44 0-1.704-.552-1.704-1.824v-5.256h3.168v-2.64h-3.216v-3.12h-2.952v3.12h-2.04v2.64h1.968v5.544zM109.99 31.485c0 3.024.937 4.536 4.489 4.536h1.32v-3h-1.032c-1.44 0-1.704-.552-1.704-1.824v-5.256h3.168v-2.64h-3.216v-3.12h-2.952v3.12h-2.04v2.64h1.968v5.544zM127.079 31.63c-.624.887-1.488 1.991-3.12 1.991-1.704 0-2.712-1.056-2.808-3.024h8.544v-.936c0-4.128-2.52-6.72-5.832-6.72s-5.88 2.592-5.88 6.72 2.52 6.72 6.024 6.72c2.64 0 4.2-1.296 5.256-2.832l-2.184-1.92zm-5.928-3.36c.12-1.417 1.128-2.593 2.712-2.593 1.68 0 2.664.984 2.808 2.592h-5.52zM131.999 36.021h3.12v-6.984c0-2.04.84-2.904 2.184-2.904.312 0 .648.072.984.192l.48-3.024a2.836 2.836 0 00-1.152-.24 2.956 2.956 0 00-2.616 1.584h-.048v-1.344h-2.952v12.72zM142.439 41.421h3.096l7.32-18.12h-3.168l-3.288 8.616h-.048l-3.288-8.616h-3.168l5.088 12.096-2.544 6.024z" fill="#fff" fill-rule="nonzero"/></svg>