<svg width="56" height="56" viewBox="0 0 56 56" xmlns="http://www.w3.org/2000/svg" xmlns:xlink="http://www.w3.org/1999/xlink" xml:space="preserve" fill-rule="evenodd" clip-rule="evenodd" stroke-linejoin="round" stroke-miterlimit="2"><path d="M45.753 22.432c-.6-1.845-2.728-6.722-3.881-6.722-.851 0-2.566 1.346-2.6 2.196 0 0 1.329 1.976 2.282 3.665-1.274.85-4.024 2.162-6.003.982l-4.667-3.303c-1.744-1.526-1.306-4.608-.882-6.084 1.896.385 4.167 1.033 4.167 1.033.734-.413 1.724-2.75 1.423-3.051-.61-.612-5.652-1.614-7.592-1.614-1.94 0-7.34 1.362-7.592 1.614-.355.355.654 2.708 1.423 3.052.208.092 2.35-.579 4.164-.996.423 1.491.849 4.534-.88 6.046l-4.666 3.33c-1.98 1.18-4.734-.143-6.009-.994.954-1.693 2.289-3.678 2.289-3.678.378-.763-1.75-2.197-2.601-2.197-1.076 0-3.281 4.877-3.881 6.722-.6 1.846-1.475 7.057-.812 7.72.622.622 3.152.312 3.481-.504 0 0 .085-2.34.303-4.258 1.54.037 4.543.502 5.448 2.614l1.782 5.54c.507 2.226-1.577 4.434-2.79 5.403-1.316-1.422-2.794-3.291-2.794-3.291-.853-.258-3.03.987-3.03 1.879 0 1.329 3.623 4.629 5.193 5.77 1.57 1.14 6.305 3.115 7.09 3.115.4 0 1.174-3.045.673-3.546 0 0-2.168-.795-3.907-1.592.54-1.44 1.964-4.035 4.232-4.241h5.768c2.272.206 3.705 2.804 4.246 4.24-1.725.74-3.883 1.466-3.977 1.639-.421.775.437 3.163.728 3.454.534.534 5.522-1.973 7.091-3.115 1.57-1.142 5.194-4.845 5.194-5.749 0-.64-2.17-2.115-3.031-1.885 0 0-1.46 1.884-2.77 3.325-1.214-.956-3.322-3.15-2.814-5.385l1.782-5.57c.898-2.095 3.856-2.573 5.406-2.618.16 1.854.177 4.094.345 4.261.622.622 3.03.963 3.48.513.608-.608-.211-5.874-.81-7.72Zm-22.571 9.05c-.48-.832-1.05-2.452-1.015-3.301.037-.922.55-2.787 1.114-3.516.403-.522 1.284-1.305 2.073-1.797a5.8 5.8 0 0 1 2.573-.604 5.83 5.83 0 0 1 5.321 3.451c.105.26.205.533.29.807a5.82 5.82 0 0 1 .104 2.749l-.007.031c-.014.065-.034.127-.05.191-.045.17-.094.338-.147.505a5.83 5.83 0 0 1-5.51 3.932 5.82 5.82 0 0 1-4.746-2.448Z" fill="#ffc400" fill-rule="nonzero"/><g transform="scale(.29167)"><clipPath id="a"><path d="M156.868 76.911c-2.056-6.327-9.354-23.047-13.307-23.047-2.918 0-8.799 4.612-8.917 7.527 0 0 4.559 6.775 7.825 12.567-4.368 2.911-13.795 7.413-20.581 3.365l-16-11.324c-5.978-5.23-4.477-15.798-3.025-20.859 6.502 1.319 14.287 3.541 14.287 3.541 2.516-1.414 5.91-9.43 4.881-10.46-2.095-2.096-19.378-5.533-26.031-5.533-6.653 0-25.168 4.67-26.031 5.533-1.217 1.218 2.245 9.286 4.881 10.463.713.318 8.055-1.982 14.277-3.412 1.45 5.112 2.909 15.543-3.016 20.728l-16 11.416c-6.788 4.049-16.231-.489-20.601-3.408 3.269-5.803 7.846-12.609 7.846-12.609 1.296-2.615-6-7.533-8.918-7.533-3.689 0-11.25 16.72-13.306 23.048-2.056 6.328-5.057 24.194-2.782 26.469 2.132 2.132 10.806 1.067 11.935-1.729 0 0 .29-8.02 1.036-14.599 5.282.126 15.578 1.722 18.679 8.962l6.111 18.992c1.737 7.636-5.406 15.206-9.569 18.528-4.509-4.877-9.576-11.286-9.576-11.286-2.926-.884-10.392 3.387-10.392 6.443 0 4.556 12.425 15.87 17.807 19.782 5.383 3.913 21.618 10.68 24.312 10.68 1.369 0 4.023-10.439 2.306-12.156 0 0-7.433-2.726-13.397-5.459 1.852-4.938 6.733-13.835 14.509-14.541h19.777c7.788.707 12.703 9.613 14.558 14.537-5.913 2.54-13.313 5.029-13.635 5.619-1.445 2.657 1.498 10.847 2.495 11.844 1.831 1.831 18.931-6.766 24.313-10.68 5.383-3.914 17.807-16.612 17.807-19.71 0-2.193-7.437-7.254-10.393-6.465 0 0-5.004 6.459-9.493 11.402-4.167-3.28-11.394-10.803-9.651-18.464l6.111-19.1c3.076-7.181 13.219-8.82 18.535-8.973.545 6.358.606 14.038 1.18 14.61 2.134 2.132 10.393 3.3 11.935 1.758 2.082-2.083-.726-20.139-2.782-26.467ZM79.48 107.937c-1.642-2.85-3.6-8.405-3.48-11.317.129-3.159 1.886-9.554 3.82-12.055 1.382-1.788 4.402-4.473 7.109-6.16a19.883 19.883 0 0 1 8.821-2.071c8.133 0 15.118 4.863 18.244 11.833.36.887.701 1.825.996 2.764.483 1.721.76 3.529.76 5.404 0 1.378-.14 2.723-.405 4.021l-.026.108c-.047.223-.115.437-.169.656-.155.58-.324 1.157-.507 1.729-2.705 7.842-10.131 13.484-18.893 13.484-6.715.001-12.643-3.319-16.27-8.396Z"/></clipPath><g opacity=".2" clip-path="url(#a)"><use xlink:href="#b" width="58" height="52" transform="translate(83 26)"/><path d="M117.15 47.682s-7.785-2.222-14.287-3.541c-.673 2.346-1.346 5.876-1.29 9.508.067-3.272.68-6.378 1.29-8.508 6.502 1.319 14.287 3.541 14.287 3.541 2.361-1.327 5.496-8.471 5.021-10.193-.38 2.592-2.986 8.049-5.021 9.193Z" fill="#1a237e" fill-rule="nonzero"/><use xlink:href="#c" width="58" height="52" transform="translate(51 26)"/><path d="M74.85 48.685c.713.318 8.055-1.982 14.277-3.412.608 2.145 1.211 5.228 1.277 8.464.057-3.595-.606-7.099-1.277-9.464-6.222 1.43-13.564 3.73-14.277 3.412-2.103-.938-4.724-6.255-5.083-8.989-.413 2.098 2.674 8.913 5.083 9.989Z" fill="#1a237e" fill-rule="nonzero"/><use xlink:href="#d" width="77" height="58" transform="translate(57 63)"/><path d="M114.99 89.93a36.7 36.7 0 0 0-.996-2.764c-3.126-6.97-10.111-11.833-18.244-11.833-3.17 0-6.157.758-8.821 2.071-2.707 1.688-5.727 4.372-7.109 6.16-1.934 2.501-3.691 8.896-3.82 12.055-.01.238-.001.499.016.77.198-3.229 1.915-9.381 3.804-11.824 1.382-1.788 4.402-4.473 7.109-6.16a19.883 19.883 0 0 1 8.821-2.071c8.133 0 15.118 4.863 18.244 11.833.36.887.701 1.825.996 2.764.433 1.542.688 3.156.738 4.823.003-.141.021-.277.021-.419a19.879 19.879 0 0 0-.759-5.405Z" fill="#1a237e" fill-rule="nonzero"/><use xlink:href="#e" width="45" height="51" transform="translate(31 48)"/><path d="M49.511 73.008s-.139.911 0 1c3.227-5.628 7.846-12.609 7.846-12.609.181-.366.18-.779.061-1.216-.022.071-.027.147-.061.216 0-.001-4.578 6.806-7.846 12.609Z" fill="#1a237e" fill-rule="nonzero"/><use xlink:href="#f" width="45" height="50" transform="translate(116 48)"/><path d="M142.34 73.046c-2.919-5.175-6.729-11.208-7.537-12.418-.086.246-.14.503-.158.764-.018.261 4.601 6.952 7.825 12.567.138-.089-.13-.913-.13-.913Z" fill="#1a237e" fill-rule="nonzero"/><use xlink:href="#g" width="82" height="68" transform="translate(88 116)"/><path d="M133.619 147.32c-5.382 3.914-22.481 12.511-24.313 10.68-.766-.766-2.672-5.765-2.864-9.251-.202 3.436 2.021 9.408 2.864 10.251 1.831 1.831 18.931-6.766 24.313-10.68 5.383-3.914 17.807-16.612 17.807-19.71a1.34 1.34 0 0 0-.097-.468c-1.119 3.802-12.593 15.458-17.71 19.178Z" fill="#1a237e" fill-rule="nonzero"/><use xlink:href="#h" width="76" height="68" transform="translate(13 74)"/><path d="M44.285 101.653s.29-8.02 1.036-14.599c5.282.126 15.578 1.722 18.679 8.962l6.111 18.992c.155.684.217 1.365.239 2.045a10.895 10.895 0 0 0-.239-3.045L64 95.017c-3.101-7.24-13.397-8.835-18.679-8.962-.746 6.579-1.036 14.599-1.036 14.599-1.128 2.796-9.803 3.86-11.935 1.729-.534-.534-.775-1.937-.808-3.84-.042 2.412.184 4.216.808 4.84 2.132 2.131 10.807 1.066 11.935-1.73Z" fill="#1a237e" fill-rule="nonzero"/><use xlink:href="#i" width="76" height="68" transform="translate(103 74)"/><path d="M159.649 102.378c-1.542 1.542-9.801.374-11.935-1.758-.573-.572-.635-8.252-1.18-14.61-5.316.153-15.459 1.792-18.535 8.973l-6.111 19.101a10.89 10.89 0 0 0-.238 3.039c.021-.677.083-1.356.238-2.039L128 95.983c3.076-7.181 13.219-8.82 18.535-8.973.545 6.358.606 14.038 1.18 14.61 2.134 2.132 10.393 3.3 11.935 1.758.56-.56.764-2.277.727-4.604-.033 1.813-.252 3.128-.728 3.604Z" fill="#1a237e" fill-rule="nonzero"/><g><use xlink:href="#j" width="86" height="52" transform="translate(53 114)"/><path d="M120.446 141.537c.112-.048.144-.85 0-1-1.854-4.924-6.77-13.83-14.558-14.537H86.111c-7.775.706-12.657 9.604-14.509 14.541 0 0-.111.949 0 1 2.064-5.043 7.159-13.874 14.509-14.541h19.777c7.358.668 12.487 9.505 14.558 14.537Z" fill="#1a237e" fill-rule="nonzero"/></g><g><use xlink:href="#k" width="82" height="68" transform="translate(22 116)"/><path d="M82.694 158.156c-2.694 0-18.929-6.767-24.312-10.68-5.171-3.759-16.839-14.35-17.745-19.214-.031.146-.063.291-.063.432 0 4.556 12.425 15.87 17.807 19.782 5.383 3.913 21.618 10.68 24.312 10.68 1.101 0 3.031-6.75 2.853-10.287-.154 3.671-1.848 9.287-2.852 9.287Z" fill="#1a237e" fill-rule="nonzero"/></g></g></g><g transform="scale(.29167)"><clipPath id="l"><path d="M156.868 76.911c-2.056-6.327-9.354-23.047-13.307-23.047-2.918 0-8.799 4.612-8.917 7.527 0 0 4.559 6.775 7.825 12.567-4.368 2.911-13.795 7.413-20.581 3.365l-16-11.324c-5.978-5.23-4.477-15.798-3.025-20.859 6.502 1.319 14.287 3.541 14.287 3.541 2.516-1.414 5.91-9.43 4.881-10.46-2.095-2.096-19.378-5.533-26.031-5.533-6.653 0-25.168 4.67-26.031 5.533-1.217 1.218 2.245 9.286 4.881 10.463.713.318 8.055-1.982 14.277-3.412 1.45 5.112 2.909 15.543-3.016 20.728l-16 11.416c-6.788 4.049-16.231-.489-20.601-3.408 3.269-5.803 7.846-12.609 7.846-12.609 1.296-2.615-6-7.533-8.918-7.533-3.689 0-11.25 16.72-13.306 23.048-2.056 6.328-5.057 24.194-2.782 26.469 2.132 2.132 10.806 1.067 11.935-1.729 0 0 .29-8.02 1.036-14.599 5.282.126 15.578 1.722 18.679 8.962l6.111 18.992c1.737 7.636-5.406 15.206-9.569 18.528-4.509-4.877-9.576-11.286-9.576-11.286-2.926-.884-10.392 3.387-10.392 6.443 0 4.556 12.425 15.87 17.807 19.782 5.383 3.913 21.618 10.68 24.312 10.68 1.369 0 4.023-10.439 2.306-12.156 0 0-7.433-2.726-13.397-5.459 1.852-4.938 6.733-13.835 14.509-14.541h19.777c7.788.707 12.703 9.613 14.558 14.537-5.913 2.54-13.313 5.029-13.635 5.619-1.445 2.657 1.498 10.847 2.495 11.844 1.831 1.831 18.931-6.766 24.313-10.68 5.383-3.914 17.807-16.612 17.807-19.71 0-2.193-7.437-7.254-10.393-6.465 0 0-5.004 6.459-9.493 11.402-4.167-3.28-11.394-10.803-9.651-18.464l6.111-19.1c3.076-7.181 13.219-8.82 18.535-8.973.545 6.358.606 14.038 1.18 14.61 2.134 2.132 10.393 3.3 11.935 1.758 2.082-2.083-.726-20.139-2.782-26.467ZM79.48 107.937c-1.642-2.85-3.6-8.405-3.48-11.317.129-3.159 1.886-9.554 3.82-12.055 1.382-1.788 4.402-4.473 7.109-6.16a19.883 19.883 0 0 1 8.821-2.071c8.133 0 15.118 4.863 18.244 11.833.36.887.701 1.825.996 2.764.483 1.721.76 3.529.76 5.404 0 1.378-.14 2.723-.405 4.021l-.026.108c-.047.223-.115.437-.169.656-.155.58-.324 1.157-.507 1.729-2.705 7.842-10.131 13.484-18.893 13.484-6.715.001-12.643-3.319-16.27-8.396Z"/></clipPath><g opacity=".2" clip-path="url(#l)"><use xlink:href="#m" width="51" height="45" transform="translate(88 129)"/><path d="M120.446 142.537c.037-.225.304-.662 0-1-5.854 2.489-13.319 5.04-13.635 5.619-.336.617-.428 1.539-.369 2.593.037-.628.146-1.182.369-1.593.322-.59 7.722-3.079 13.635-5.619Z" fill="#fff" fill-rule="nonzero"/><use xlink:href="#n" width="77" height="58" transform="translate(57 84)"/><path d="M79.48 108.937c3.627 5.077 9.555 8.397 16.27 8.397 8.762 0 16.188-5.643 18.893-13.484.184-.575.353-1.155.507-1.729.054-.22.122-.434.169-.656l.026-.108c.27-1.323.406-2.67.405-4.021 0-.195-.016-.387-.021-.581a20.096 20.096 0 0 1-.384 3.603l-.026.108c-.047.223-.115.437-.169.656-.155.58-.324 1.157-.507 1.729-2.705 7.842-10.131 13.484-18.893 13.484-6.715 0-12.643-3.32-16.27-8.397-1.507-2.617-3.277-7.51-3.465-10.548-.004.075-.013.158-.016.23-.118 2.911 1.84 8.467 3.481 11.317Z" fill="#fff" fill-rule="nonzero"/><use xlink:href="#o" width="63" height="83" transform="translate(116 41)"/><path d="M143.562 54.864c3.952 0 11.251 16.72 13.307 23.047 1.504 4.628 3.407 15.525 3.508 21.863.11-6.123-1.922-17.981-3.508-22.863-2.056-6.327-9.354-23.047-13.307-23.047-2.918 0-8.641 3.848-8.759 6.763 0 0 .069.025.166.169.933-2.89 5.918-5.932 8.593-5.932Z" fill="#fff" fill-rule="nonzero"/><use xlink:href="#p" width="78" height="62" transform="translate(83 42)"/><path d="M105.889 66c-3.207-2.806-4.252-7.147-4.315-11.351-.093 4.503.853 9.321 4.315 12.351l16 11.324c6.786 4.047 16.213-.455 20.581-3.365.041-.271.14-.755 0-1-4.524 2.907-13.997 7.292-20.581 3.365l-16-11.324Z" fill="#fff" fill-rule="nonzero"/><use xlink:href="#q" width="90" height="44" transform="translate(51 20)"/><path d="M69.837 39.121c.863-.863 19.51-5.433 26.163-5.433 6.653 0 23.937 3.437 26.031 5.533.063.063-.031-.113 0 0 .09-.614.197-.803 0-1-2.095-2.096-19.378-5.533-26.031-5.533-6.653 0-25.408 4.74-26.271 5.603-.246.247.017.137.108.83.039-.198-.105.105 0 0Z" fill="#fff" fill-rule="nonzero"/><use xlink:href="#r" width="67" height="53" transform="translate(103 106)"/><path d="M141.033 122.146s-5.004 6.459-9.493 11.402c-3.612-2.844-9.516-8.878-9.89-15.425-.219 6.927 6.094 13.437 9.89 16.425 4.489-4.943 9.493-11.402 9.493-11.402 2.762-.737 9.219 3.19 10.083 5.557.059-.197.213-.407.213-.56 0-2.194-7.34-6.787-10.296-5.997Z" fill="#fff" fill-rule="nonzero"/><use xlink:href="#s" width="51" height="45" transform="translate(53 129)"/><path d="M71.603 141.541a.849.849 0 0 0 .163.787C77.73 145.062 85 148 85 148c.336.336.503 1.009.546 1.869.056-1.333-.089-2.412-.546-2.869 0 0-7.493-2.777-13.397-5.459Z" fill="#fff" fill-rule="nonzero"/><use xlink:href="#t" width="63" height="83" transform="translate(13 41)"/><path d="M35.133 77.913c2.056-6.328 9.617-23.048 13.306-23.048 2.51 0 8.183 2.851 8.918 5.533.833-2.659-6.076-6.533-8.918-6.533-3.689 0-11.25 16.72-13.306 23.048-1.573 4.841-3.696 16.43-3.59 22.629.111-6.377 2.098-17.038 3.59-21.629Z" fill="#fff" fill-rule="nonzero"/><g><use xlink:href="#u" width="67" height="53" transform="translate(22 106)"/><path d="M50.967 123.251s5.066 6.409 9.576 11.286c3.79-3.024 10.028-9.572 9.808-16.483-.367 6.536-6.202 12.604-9.808 15.483-4.509-4.877-9.576-11.286-9.576-11.286-2.926-.884-10.33 2.955-10.33 6.012 0 .179.103.35.14.548.631-3.01 7.398-6.403 10.19-5.56Z" fill="#fff" fill-rule="nonzero"/></g><g><use xlink:href="#v" width="78" height="63" transform="translate(31 42)"/><path d="M49.511 75.008c4.37 2.919 13.813 7.457 20.601 3.408l16-11.416c3.439-3.01 4.384-7.785 4.293-12.264-.067 4.177-1.108 8.478-4.293 11.264l-16 11.416c-6.586 3.928-16.075-.491-20.601-3.408-.14.244-.183.742 0 1Z" fill="#fff" fill-rule="nonzero"/></g></g></g></svg>