<svg viewBox="0 0 640 100" xmlns="http://www.w3.org/2000/svg" fill-rule="evenodd" clip-rule="evenodd" stroke-linejoin="round" stroke-miterlimit="2"><path d="M5.2 50.863c2.184 17.264 11.648 26.624 29.224 26.624 16.536 0 25.376-9.776 25.376-21.112 0-10.816-4.68-16.12-24.44-22.568-15.912-5.2-18.096-7.8-18.096-13.105 0-5.823 4.472-10.92 14.144-10.92 11.128 0 15.08 5.72 16.64 13.729l8.736-1.872C54.912 8.014 44.512 1.567 31.408 1.567c-14.56 0-22.88 9.048-22.88 19.136 0 10.4 6.968 15.704 22.568 20.696 17.472 5.72 20.072 8.84 20.072 15.392 0 6.448-4.992 12.584-16.432 12.584-14.04 0-18.512-6.969-20.488-20.28L5.2 50.861zM71.032 75.927h8.528V41.294c0-8.423 5.72-14.247 14.768-14.247 8.944 0 12.792 5.928 12.792 15.183v33.697h8.528V39.943c0-13.728-8.424-20.696-19.76-20.696-6.76 0-13.104 3.016-16.12 7.072h-.208V.007h-8.528v75.92zM128.96 75.927h8.528v-55.12h-8.528v55.12zm-.624-66.249h9.776V.008h-9.776v9.671zM190.84 58.975c-1.976 3.64-5.304 10.816-16.432 10.816-11.44 0-16.744-9.152-16.848-18.928h41.392v-2.496c0-18.408-10.296-29.12-24.752-29.12-14.56 0-25.168 11.232-25.168 29.12s10.816 29.12 25.584 29.12c12.064 0 19.448-6.864 23.088-14.04l-6.864-4.472zm-33.072-14.872c.104-6.76 4.576-17.16 16.432-17.16 11.96 0 16.12 9.152 16.328 17.16h-32.76zM209.976.007h8.632v75.92h-8.632zM269.984 57.623c0 6.344-5.824 12.168-14.144 12.168-11.024 0-16.744-8.008-16.744-21.424s5.72-21.424 16.744-21.424c9.152 0 14.144 7.28 14.144 13.623v17.057zm.832 18.304h7.696V.007h-8.528V26.11h-.208c-2.808-3.329-7.8-6.865-15.288-6.865-13.312 0-23.92 11.129-23.92 29.12 0 17.68 9.36 29.12 23.92 29.12 8.216 0 13.832-4.16 16.12-6.863h.208v5.303z" fill="#42a5f5" fill-rule="nonzero"/><path d="M290.004 75.927h27.768c11.232 0 16.848-2.185 20.904-6.033 4.368-4.263 6.344-9.983 6.344-16.64 0-8.423-4.68-14.143-10.608-16.64v-.103c4.576-2.704 7.904-7.176 7.904-13.832 0-10.608-8.216-19.552-21.424-19.552h-30.888v72.8zm14.04-13V43.895H321.1c6.032 0 9.88 3.328 9.88 9.36 0 7.8-4.472 9.672-9.984 9.672h-16.952zm0-30.472V16.127h15.08c5.616 0 9.152 2.704 9.152 8.32 0 5.304-3.536 8.008-9.152 8.008h-15.08zM386.932 75.927h11.336V40.982c0-15.807-10.608-21.735-22.984-21.735-13.208 0-20.28 7.384-22.672 15.808l11.232 4.68c1.352-4.264 3.432-9.048 11.648-9.048 6.552 0 9.36 2.704 9.36 5.824 0 3.12-1.144 4.264-14.248 7.488-13.208 3.224-18.72 7.28-18.72 17.16 0 8.32 5.616 16.328 19.864 16.328 11.128 0 14.976-6.864 14.976-6.864h.208v5.303zm-13.624-22.569c10.712-2.703 11.128-4.055 11.752-5.2h.208v9.569c0 4.056-3.432 8.112-12.272 8.112-4.784 0-8.112-1.456-8.112-5.616 0-2.288.728-4.992 8.424-6.864zM413.452 56.27c0 13.105 4.056 19.657 19.448 19.657h5.72v-13h-4.472c-6.24 0-7.384-2.392-7.384-7.904V32.246h13.728v-11.44h-13.936V7.287h-12.792v13.52h-8.84v11.44h8.528V56.27zM452.452 56.27c0 13.105 4.056 19.657 19.448 19.657h5.72v-13h-4.472c-6.24 0-7.384-2.392-7.384-7.904V32.246h13.728v-11.44h-13.936V7.287h-12.792v13.52h-8.84v11.44h8.528V56.27zM524.316 56.895c-2.704 3.848-6.448 8.632-13.52 8.632-7.384 0-11.752-4.576-12.168-13.104h37.024v-4.056c0-17.888-10.92-29.12-25.272-29.12-14.352 0-25.48 11.232-25.48 29.12s10.92 29.12 26.104 29.12c11.44 0 18.2-5.616 22.776-12.272l-9.464-8.32zm-25.688-14.56c.52-6.136 4.888-11.232 11.752-11.232 7.28 0 11.544 4.264 12.168 11.232h-23.92zM544.978 75.927h13.52V45.662c0-8.84 3.64-12.583 9.464-12.583 1.352 0 2.808.312 4.264.831l2.08-13.103a12.29 12.29 0 00-4.992-1.04c-4.888 0-9.256 2.808-11.336 6.864h-.208v-5.825h-12.792v55.12zM589.802 99.327h13.416l31.72-78.52H621.21l-14.248 37.336h-.208l-14.248-37.336h-13.728l22.048 52.416-11.024 26.104z" fill="#ffc400" fill-rule="nonzero"/></svg>