<svg width="156" height="24" viewBox="0 0 156 24" fill="none" xmlns="http://www.w3.org/2000/svg"><path fill-rule="evenodd" clip-rule="evenodd" d="M3.41 11.72c.473 3.177 1.544 4.84 4.904 4.84 2.739 0 3.934-1.465 3.934-3.003 0-1.565-.623-2.31-4.805-3.675C3.71 8.69 2.041 7.424 2.041 4.942c0-2.409 1.992-4.569 5.477-4.569 3.136 0 5.626 1.54 6.074 4.792l-2.091.447c-.374-1.912-1.32-3.277-3.983-3.277-2.315 0-3.386 1.216-3.386 2.607 0 1.266.523 1.886 4.332 3.128 4.73 1.54 5.85 2.805 5.85 5.387 0 2.707-2.116 5.04-6.074 5.04-4.207 0-6.473-2.234-6.995-6.355l2.165-.423zM17.127 0h2.041v6.281h.05c.722-.968 2.24-1.688 3.858-1.688 2.714 0 4.73 1.664 4.73 4.94v8.591h-2.041V10.08c0-2.21-.921-3.625-3.062-3.625-2.166 0-3.535 1.39-3.535 3.402v8.267h-2.041V.001zm14.089 0h2.34v2.31h-2.34V0zm.15 4.966h2.04v13.158h-2.04V4.966zm16.952 10.18c-.872 1.712-2.64 3.351-5.527 3.351-3.535 0-6.124-2.681-6.124-6.951s2.54-6.951 6.025-6.951c3.46 0 5.924 2.557 5.924 6.95v.597H38.71c.025 2.333 1.294 4.518 4.032 4.518 2.663 0 3.46-1.713 3.934-2.582l1.643 1.068zM46.6 10.528c-.05-1.912-1.046-4.097-3.907-4.097-2.838 0-3.909 2.483-3.934 4.097H46.6zM51.48 0h2.065v18.123H51.48V.001zm14.61 16.857h-.049c-.548.645-1.892 1.639-3.858 1.639-3.485 0-5.725-2.732-5.725-6.952 0-4.295 2.539-6.951 5.725-6.951 1.793 0 2.988.844 3.66 1.638h.05V0h2.04v18.123h-1.841v-1.266h-.001zm-.198-7.174c0-1.515-1.195-3.253-3.386-3.253-2.639 0-4.008 1.912-4.008 5.115 0 3.202 1.37 5.114 4.008 5.114 1.992 0 3.386-1.391 3.386-2.905V9.684zM71.444.746h7.393c3.162 0 5.128 2.135 5.128 4.667 0 1.59-.796 2.657-1.892 3.302v.025c1.42.596 2.54 1.961 2.54 3.972 0 1.589-.473 2.954-1.519 3.972-.97.919-2.314 1.44-5.003 1.44h-6.646V.746h-.001zm6.97 7.001c1.343 0 2.19-.645 2.19-1.912 0-1.34-.847-1.986-2.19-1.986h-3.61v3.898h3.61zm.447 7.274c1.32 0 2.39-.447 2.39-2.31 0-1.44-.92-2.234-2.365-2.234h-4.082v4.544h4.057zm15.658 1.837h-.05s-.921 1.639-3.585 1.639c-3.41 0-4.754-1.913-4.754-3.898 0-2.359 1.32-3.327 4.481-4.097 3.136-.77 3.41-1.043 3.41-1.788 0-.744-.672-1.39-2.24-1.39-1.967 0-2.465 1.142-2.788 2.16l-2.688-1.117c.572-2.011 2.265-3.774 5.426-3.774 2.962 0 5.502 1.414 5.502 5.19v8.341h-2.714v-1.266zm-5.277-2.483c0 .993.797 1.34 1.942 1.34 2.116 0 2.937-.967 2.937-1.936v-2.284h-.05c-.15.273-.25.596-2.814 1.242-1.84.447-2.015 1.093-2.015 1.638zm11.774-6.678h-2.041v-2.73h2.115V1.738h3.062v3.227h3.336v2.731h-3.286v5.438c0 1.316.274 1.886 1.768 1.886h1.07v3.103h-1.369c-3.684 0-4.654-1.564-4.654-4.692V7.697h-.001zm9.883 0h-2.042v-2.73h2.116V1.738h3.061v3.227h3.337v2.731h-3.286v5.438c0 1.316.274 1.886 1.767 1.886h1.071v3.103h-1.369c-3.684 0-4.655-1.564-4.655-4.692V7.697zm19.665 7.87c-1.096 1.59-2.714 2.93-5.451 2.93-3.635 0-6.248-2.681-6.248-6.951s2.663-6.951 6.098-6.951c3.436 0 6.05 2.681 6.05 6.95v.969h-8.863c.1 2.035 1.146 3.127 2.913 3.127 1.693 0 2.589-1.142 3.236-2.06l2.265 1.987zm-2.69-5.461c-.149-1.664-1.169-2.682-2.912-2.682-1.642 0-2.688 1.217-2.813 2.682h5.725zm5.627-5.14h3.062v1.39h.05a3.068 3.068 0 012.713-1.638c.399 0 .798.075 1.195.248l-.498 3.129a3.098 3.098 0 00-1.02-.199c-1.394 0-2.265.894-2.265 3.004v7.224h-3.236V4.966h-.001zm13.542 12.513l-5.276-12.513h3.285l3.41 8.913h.05l3.41-8.913h3.286l-7.592 18.744h-3.211l2.638-6.231z" fill="#fff"/></svg>