<svg xmlns="http://www.w3.org/2000/svg" width="24" height="24" viewBox="0 0 24 24"><path fill-rule="evenodd" clip-rule="evenodd" d="M3.285 21.997c3.16-2.58 4.195.315 9.26-.268 7.078-.815 3.354-5.06 1.592-7.317 1.93.486 2.135-1.482 3.624-1.328 1.254.13 1.104 1.277 1.33 3.882 1.578-.144 2.465-5.716.49-6.265-1.036-.288-2.626.827-3.144 1.313-2.102 1.974-2.867-.05-2.508-1.113.973-.37 1.34.498 1.79-.16.094-.138.276-.683.262-.682.053-.54 0-1.09-.298-1.557-.275-.43-.668-.79-.98-1.192-.44-.57-.357-1.628-.763-2.25-.482-.736-1.134-.96-1.942-1.25-.414-.147-.858-.27-1.3-.244-.398.02-.69.264-1.098.2-.267-.042-.475-.224-.68-.387-.55-.44-1.05-.9-1.685-1.385-.402.947-.073 2.036-.035 2.992.042 1.08-.263 2.22-.968 3.082-.11.13-.487.352-.824.79-.354.462-.763 1.065-1.064 1.67-.373.75-.86 1.625-1.016 1.985-.356.824-.203 2.067.142 2.216 1.538.665 1.847-.285 3.606-.813-.514 1.8-1.858 2.74-3.655 3.77 3.032 1.078 4.704-2.078 5.218-3.77.42 1.18 2.157 2.007 1.556 4.04-.457 1.546-1.307 1.355-3.314 1.183-2-.17-3.61 1.063-3.595 2.857zm2.337-8.684c-.184-2.266.988-3.547 2.116-2.904.572 1.972-.236 2.67-2.116 2.903z"/></svg>
