<svg width="24" height="24" viewBox="0 0 24 24" xmlns="http://www.w3.org/2000/svg" fill-rule="evenodd" clip-rule="evenodd" stroke-linejoin="round" stroke-miterlimit="2"><path d="M20.306 15.603c-.583-1.167-1.684-3.07-1.924-3.527-.006-.065-.257-.482-.257-.482a93.643 93.643 0 00-.69-1.427c-.23-.472-.417-1.06-.75-1.466-.182-.224-.213.186-.397-.05-.214-.272-.712-1.03-.793-1.368-.106-.445.12-.43.467-.47.3-.036.516-.166.647-.453.2-.437.04-.55-.014-.994-.054-.426-.034-.852-.006-1.28.01-.15.033-.448-.126-.533-.188-.1-.444.16-.62.215-.375.115-.436-.33-.744-.323-.203.005-.263.478-.333.618-.144.29-.41.963-.703 1.156-.182.12-.725.023-.938.015-.05-.002-.498-.298-.424-.395l.11-.145c.104-.127.13-.396.148-.55a3 3 0 00.006-.584 2.002 2.002 0 00-.42-1.04c-.22-.27-.638-.59-.99-.39-.293.17-.528.497-.694.786-.083.146-.154.3-.212.458a1.727 1.727 0 00-.102.538c0 .05.083.55.125.815.024.15-.357.26-.516.258-.155 0-.662.222-.938.063-.595-.344-.7-.77-.845-1.063a7.576 7.576 0 00-.5-.846c-.194-.29-.352-.067-.576.03-.243.108-.386.03-.608-.06-.445-.182-.342.47-.38.718-.123.788-.292 1.156-.156 1.938.14.234.754.438 1.05.61l-.183.546c-.49.365-.8.754-.928 1-.722-.05-.644-.268-.875.114-.097.16-.078.113-.164.376-.07.216-.137.37-.214.612-.044.137-.11.31-.15.446-.042.135-.09.28-.126.42-.06.235-.12.47-.194.7-.09.29-.17.56-.21.86-.04.314-.072.627-.125.94-.123.72-.276 1.472-.395 2.188-.11.662-.22 1.74-.313 2.406.05.477 1-1.536 1.163-1.976.17-.46.62-1.294.834-1.89.053-.146.064-.386.16-.502.416.305 1.24.37 1.466-.177.157-.38.138-.79-.028-1.162-.077-.173-.207-.312-.29-.48-.085-.17-.02-.286.058-.45.308-.642.495-1.342.98-1.88.266-.297.233-.595.88-.673.175-.02.38.192.478.344.05.074.116.215.142.28.11.28.223.54.463.712.068.048.03.048.055.134.03.27.178.613.185.84-.303.018-.852-.285-.875 0-.005 0-.168.584-.168.584-.047.563.717.598.66.995-.03.25.065-.172 0 0-.195.22-.84.503-.96.796-.344.758-.4 1.74-.485 2.642-.138.39-.478.696-.607 1.094-.053.544-.12 1.088-.19 1.63l-.102.795c-.033.262-.104.42-.208.66-.067.156-.132.313-.206.467-.152.317-.364.61-.484.942-.105.288-.202.723-.07 1.02a.48.48 0 00.402.28c.245.01.307-.186.432-.35a.84.84 0 01.303-.244c.253-.12.56-.116.76.094.175.18.244.486.536.514.328.032.523-.28.533-.568.007-.206-.047-.412-.068-.615-.03-.3-.006-.615.007-.917.04-.995.14-1.986.175-2.98.04-.118.214-.406.227-.404.404-.463.605-.876.7-1.182.033-.112.185-.773.267-1.016.056-.166.18-.395.266-.547a.935.935 0 01.297-.266c.553-.262.97.36 1.354.644.202.148.423.352.335.63-.083.264-.397.362-.626.46-.644.273 0 1.655.084 2.27.054.39.24.654.368 1.025.135.387.424.697.054 1.04-.173.16-.572.313-.515.617.073.383.75.68 1.054.833.512.26.974.28 1.52.424.337.088 1.323-.067 1.11-.616-.088-.23-.394-.346-.097-.47.233-.1.632.067.63.065.08-.008.12-.095.143-.174.023-.366-.376-.66-.742-.877-.153-.098-.76-.207-.766-.234-.02-.097-.053-.354-.188-.75-.26-1.32-.733-1.975-.64-2.142.083-.15 1.107-.18 1.077-.547-.02-.25-.13-.683-.212-.99-.074-.275-.138-.41-.24-.673-.08-.2-.166-.43-.234-.634a3.375 3.375 0 00-.18-.397c-.31-.613-.386-.826-1.026-1.076-.015-.027-.167-.236-.044-.308.09-.052.203-.068.22-.078.283-.17.288-.36.312-.672a.816.816 0 00-.13-.52c-.153-.242-.42.002-.65-.058.093-.28.02-.945.108-1.297.494-.405.42-.543.77-.9 0 0 .17-.1.173-.09.04.09.426.794.543 1.11.107.29.575.878.783 1.193.17.256.365.447.54.76.072.128.098.153.193.274.198.253-.115.387-.172.66-.062.295.102.787.303 1.03.157.19.67.436.916.34.25-.093.476-.2.64-.404.098-.122.054-.134.136-.032.298.37.437.77.71 1.16.158.226.317.453.485.67.463.602.037.033.5.64.048.07.53.705.642.84.047.052.427.392.497.427-.058-.226-.432-1.073-.446-1.102v.005z" fill-rule="nonzero"/></svg>